<?xml version="1.0" standalone="no"?>
<!DOCTYPE svg PUBLIC "-//W3C//DTD SVG 1.1//EN" "http://www.w3.org/Graphics/SVG/1.1/DTD/svg11.dtd" >
<svg xmlns="http://www.w3.org/2000/svg">
<metadata>
Created by FontPrep 20130207 at Mon Feb 23 14:51:27 2015
 By Vinny Nota
(C)2007 House Industries/Brand Design Co., Inc. All Rights Reserved.
</metadata>
<defs>
<font id="ec7e2e16db4168df05e01bdc3802d8ea" horiz-adv-x='1024' >
  <font-face 
    font-family="Neutraface2DJCText-Book"
    font-weight="400"
    font-stretch="normal"
    units-per-em="2048"
    panose-1="2 11 5 3 2 2 2 2 1 2"
    ascent="1597"
    descent="-451"
    x-height="848"
    cap-height="1393"
    bbox="-117 -526 2404 1972"
    underline-thickness="40"
    underline-position="-231"
    unicode-range="U+0020-FB04"
  />
<missing-glyph horiz-adv-x="485" 
 />
    <glyph glyph-name="ff" unicode="ff" horiz-adv-x="1171" 
d="M207 1192q0 274 248 272q124 0 194 -90l-92 -90q-41 51 -102 51q-104 0 -105 -143v-344h381v385q-1 137 63 205t173 67q143 0 215 -104l-95 -84q-45 59 -108 59q-104 0 -105 -143v-385h228v-121h-228v-727h-143v727h-381v-727h-143v727h-137v121h137v344z" />
    <glyph glyph-name="fi" unicode="fi" horiz-adv-x="1030" 
d="M207 1233q0 275 247 273q121 0 195 -93l-90 -86q-45 49 -104 49q-104 0 -105 -143v-385h524v-848h-143v727h-381v-727h-143v727h-137v121h137v385zM803 1094q-41 0 -72 28t-31 72q0 43 31 73q31 29 72 29t71 -30t31 -72q-1 -44 -31 -72t-71 -28z" />
    <glyph glyph-name="fl" unicode="fl" horiz-adv-x="1038" 
d="M731 0v1479h143v-1479h-143zM207 0v727h-137v121h137v385q0 137 62 205t176 68t190 -85l-90 -90q-39 45 -94 45q-100 0 -101 -143v-385h217v-121h-217v-727h-143z" />
    <glyph glyph-name="ffi" unicode="ffi" horiz-adv-x="1554" 
d="M731 1233q0 275 248 273q121 0 195 -93l-91 -86q-45 49 -104 49q-104 0 -105 -143v-385h525v-848h-144v727h-381v-727h-143v727h-381v-727h-143v727h-137v121h137v344q0 274 248 272q124 0 194 -90l-92 -90q-41 51 -102 51q-104 0 -105 -143v-344h381v385zM1327 1094
q-41 0 -72 28t-30 72q0 43 30 73q31 29 72 29t72 -30t31 -72q0 -44 -31 -72t-72 -28z" />
    <glyph glyph-name="ffl" unicode="ffl" horiz-adv-x="1562" 
d="M1255 0v1479h144v-1479h-144zM207 1192q0 274 248 272q124 0 194 -90l-92 -90q-41 51 -102 51q-104 0 -105 -143v-344h381v385q1 137 63 205t176 68t189 -85l-90 -90q-39 45 -94 45q-100 0 -101 -143v-385h220v-121h-220v-727h-143v727h-381v-727h-143v727h-137v121h137
v344z" />
    <glyph glyph-name="f_b" unicode="fb" horiz-adv-x="1708" 
d="M1167 109q133 0 213 89t80 228t-80 226t-213 87t-216 -88t-83 -226t83 -227t216 -89zM1202 -16q-113 0 -201 54t-131 144l4 -182h-143v1479h143v-805q102 193 330 192q172 0 289 -126t117 -315t-118 -315t-290 -126zM207 0v727h-137v121h137v385q0 137 62 205t176 68
t190 -85l-90 -90q-39 45 -94 45q-100 0 -101 -143v-385h217v-121h-217v-727h-143z" />
    <glyph glyph-name="f_f_b" unicode="ffb" horiz-adv-x="2232" 
d="M1692 109q133 0 213 89t80 228t-80 226t-213 87t-216 -88t-83 -226t83 -227t216 -89zM1726 -16q-112 0 -200 54t-131 144l4 -182h-144v1479h144v-805q102 193 330 192q173 0 289 -126t116 -315t-117 -315t-291 -126zM207 1192q0 274 248 272q124 0 194 -90l-92 -90
q-41 51 -102 51q-104 0 -105 -143v-344h381v385q1 137 63 205t176 68t189 -85l-90 -90q-39 45 -94 45q-100 0 -101 -143v-385h220v-121h-220v-727h-143v727h-381v-727h-143v727h-137v121h137v344z" />
    <glyph glyph-name="f_f_f" unicode="fff" horiz-adv-x="1697" 
d="M731 1212q0 273 249 273q124 0 194 -90l-93 -90q-41 51 -102 51q-104 0 -105 -144v-364h381v385q-1 137 63 205t173 67q143 0 215 -104l-94 -84q-45 59 -109 59q-104 0 -104 -143v-385h227v-121h-227v-727h-144v727h-381v-727h-143v727h-381v-727h-143v727h-137v121h137
v344q0 274 248 272q124 0 194 -90l-92 -90q-41 51 -102 51q-104 0 -105 -143v-344h381v364z" />
    <glyph glyph-name="f_f_f_i" unicode="fffi" horiz-adv-x="2078" 
d="M1255 1233q0 275 248 273q121 0 195 -93l-90 -86q-45 49 -105 49q-104 0 -104 -143v-385h524v-848h-143v727h-381v-727h-144v727h-381v-727h-143v727h-381v-727h-143v727h-137v121h137v344q0 274 248 272q124 0 194 -90l-92 -90q-41 51 -102 51q-104 0 -105 -143v-344
h381v364q0 273 249 273q124 0 194 -90l-93 -90q-41 51 -102 51q-104 0 -105 -144v-364h381v385zM1851 1094q-41 0 -71 28t-31 72q0 43 31 73q32 29 72 29t71 -30t31 -72q0 -44 -31 -72t-72 -28z" />
    <glyph glyph-name="f_f_f_l" unicode="fffl" horiz-adv-x="2086" 
d="M1780 0v1479h143v-1479h-143zM731 1212q0 273 249 273q124 0 194 -90l-93 -90q-41 51 -102 51q-104 0 -105 -144v-364h381v385q1 137 63 205t176 68t189 -85l-90 -90q-39 45 -94 45q-100 0 -100 -143v-385h219v-121h-219v-727h-144v727h-381v-727h-143v727h-381v-727
h-143v727h-137v121h137v344q0 274 248 272q124 0 194 -90l-92 -90q-41 51 -102 51q-104 0 -105 -143v-344h381v364z" />
    <glyph glyph-name="f_f_h" unicode="ffh" horiz-adv-x="2160" 
d="M1255 0v1479h144v-797q43 86 122 135t181 49q141 0 228 -93t87 -257v-516h-141v500q0 236 -211 235q-121 1 -194 -71t-72 -197v-467h-144zM207 1192q0 274 248 272q124 0 194 -90l-92 -90q-41 51 -102 51q-104 0 -105 -143v-344h381v385q1 137 63 205t176 68t189 -85
l-90 -90q-39 45 -94 45q-100 0 -101 -143v-385h220v-121h-220v-727h-143v727h-381v-727h-143v727h-137v121h137v344z" />
    <glyph glyph-name="f_f_iacute" unicode="ff&#xed;" horiz-adv-x="1554" 
d="M731 1233q0 275 248 273q121 0 195 -93l-91 -86q-45 49 -104 49q-104 0 -105 -143v-385h525v-848h-144v727h-381v-727h-143v727h-381v-727h-143v727h-137v121h137v344q0 274 248 272q124 0 194 -90l-92 -90q-41 51 -102 51q-104 0 -105 -143v-344h381v385zM1268 1020
l137 395h166l-191 -395h-112z" />
    <glyph glyph-name="f_f_icircumflex" unicode="ff&#xee;" horiz-adv-x="1554" 
d="M731 1233q0 275 248 273q121 0 195 -93l-91 -86q-45 49 -104 49q-104 0 -105 -143v-385h525v-848h-144v727h-381v-727h-143v727h-381v-727h-143v727h-137v121h137v344q0 274 248 272q124 0 194 -90l-92 -90q-41 51 -102 51q-104 0 -105 -143v-344h381v385zM1055 1030
l260 395h20l262 -395h-120l-150 209l-153 -209h-119z" />
    <glyph glyph-name="f_f_idieresis" unicode="ff&#xef;" horiz-adv-x="1554" 
d="M731 1233q0 275 248 273q121 0 195 -93l-91 -86q-45 49 -104 49q-104 0 -105 -143v-385h525v-848h-144v727h-381v-727h-143v727h-381v-727h-143v727h-137v121h137v344q0 274 248 272q124 0 194 -90l-92 -90q-41 51 -102 51q-104 0 -105 -143v-344h381v385zM1200 1094
q-36 0 -64 28t-28 64t28 64t64 28t66 -28q28 -28 28 -64t-28 -65q-29 -27 -66 -27zM1501 1094q-37 0 -65 26t-27 66q0 40 28 66q29 26 65 26t64 -27t28 -65t-28 -66q-28 -26 -65 -26z" />
    <glyph glyph-name="f_f_j" unicode="ffj" horiz-adv-x="1554" 
d="M731 1233q0 275 248 273q121 0 195 -93l-91 -86q-45 49 -104 49q-104 0 -105 -143v-385h525v-1049q0 -123 -62 -189q-63 -66 -171 -65q-108 0 -183 84l80 86q51 -47 98 -47q94 0 94 129v930h-381v-727h-143v727h-381v-727h-143v727h-137v121h137v344q0 274 248 272
q124 0 194 -90l-92 -90q-41 51 -102 51q-104 0 -105 -143v-344h381v385zM1327 1094q-41 0 -72 28t-30 72q0 43 30 73q31 29 72 29t72 -30t31 -72q0 -44 -31 -72t-72 -28z" />
    <glyph glyph-name="f_f_k" unicode="ffk" horiz-adv-x="2054" 
d="M1399 0h-144v1479h144v-949q0 -53 -8 -118l401 436h166l-326 -356l377 -492h-170l-307 397l-133 -139v-258zM207 1192q0 274 248 272q124 0 194 -90l-92 -90q-41 51 -102 51q-104 0 -105 -143v-344h381v385q1 137 63 205t176 68t189 -85l-90 -90q-39 45 -94 45
q-100 0 -101 -143v-385h220v-121h-220v-727h-143v727h-381v-727h-143v727h-137v121h137v344z" />
    <glyph glyph-name="f_f_t" unicode="fft" horiz-adv-x="1742" 
d="M731 1233q0 275 248 273q121 0 195 -93l-91 -86q-45 49 -104 49q-104 0 -105 -143v-385h381v291h142v-291h237v-121h-237v-473q0 -147 100 -148q61 0 115 50l78 -90q-80 -84 -196 -84q-238 0 -239 274v471h-381v-727h-143v727h-381v-727h-143v727h-137v121h137v344
q0 274 248 272q124 0 194 -90l-92 -90q-41 51 -102 51q-104 0 -105 -143v-344h381v385z" />
    <glyph glyph-name="f_h" unicode="fh" horiz-adv-x="1636" 
d="M731 0v1479h143v-797q43 86 122 135t182 49q141 0 228 -93t87 -257v-516h-141v500q0 236 -211 235q-121 1 -194 -71t-73 -197v-467h-143zM207 0v727h-137v121h137v385q0 137 62 205t176 68t190 -85l-90 -90q-39 45 -94 45q-100 0 -101 -143v-385h217v-121h-217v-727h-143
z" />
    <glyph glyph-name="f_iacute" unicode="f&#xed;" horiz-adv-x="1030" 
d="M207 1233q0 275 247 273q121 0 195 -93l-90 -86q-45 49 -104 49q-104 0 -105 -143v-385h524v-848h-143v727h-381v-727h-143v727h-137v121h137v385zM743 1020l138 395h166l-191 -395h-113z" />
    <glyph glyph-name="f_icircumflex" unicode="f&#xee;" horiz-adv-x="1030" 
d="M207 1233q0 275 247 273q121 0 195 -93l-90 -86q-45 49 -104 49q-104 0 -105 -143v-385h524v-848h-143v727h-381v-727h-143v727h-137v121h137v385zM530 1030l261 395h20l262 -395h-121l-149 209l-154 -209h-119z" />
    <glyph glyph-name="f_idieresis" unicode="f&#xef;" horiz-adv-x="1030" 
d="M207 1233q0 275 247 273q121 0 195 -93l-90 -86q-45 49 -104 49q-104 0 -105 -143v-385h524v-848h-143v727h-381v-727h-143v727h-137v121h137v385zM676 1094q-37 0 -65 28t-27 64q0 36 28 64t64 28q38 0 66 -28t28 -64t-28 -64t-66 -28zM977 1094q-37 0 -65 26t-27 66
q-1 40 27 66t65 26t65 -27t27 -65q1 -38 -27 -66q-28 -26 -65 -26z" />
    <glyph glyph-name="f_j" unicode="fj" horiz-adv-x="1030" 
d="M207 1233q0 275 247 273q121 0 195 -93l-90 -86q-45 49 -104 49q-104 0 -105 -143v-385h524v-1049q0 -123 -62 -189t-170 -65q-108 0 -183 84l80 86q51 -47 98 -47q94 0 94 129v930h-381v-727h-143v727h-137v121h137v385zM803 1094q-41 0 -72 28t-31 72q0 43 31 73
q31 29 72 29t71 -30t31 -72q-1 -44 -31 -72t-71 -28z" />
    <glyph glyph-name="f_k" unicode="fk" horiz-adv-x="1529" 
d="M874 0h-143v1479h143v-949q0 -53 -8 -118l402 436h166l-326 -356l377 -492h-170l-307 397l-134 -139v-258zM207 0v727h-137v121h137v385q0 137 62 205t176 68t190 -85l-90 -90q-39 45 -94 45q-100 0 -101 -143v-385h217v-121h-217v-727h-143z" />
    <glyph glyph-name="f_t" unicode="ft" horiz-adv-x="1218" 
d="M207 1233q0 275 247 273q121 0 195 -93l-90 -86q-45 49 -104 49q-104 0 -105 -143v-385h381v291h141v-291h236v-121h-236v-473q0 -147 101 -148q61 0 114 50l78 -90q-79 -84 -195 -84q-237 0 -239 274v471h-381v-727h-143v727h-137v121h137v385z" />
    <glyph glyph-name=".notdef" horiz-adv-x="485" 
 />
    <glyph glyph-name=".null" horiz-adv-x="0" 
 />
    <glyph glyph-name="nonmarkingreturn" horiz-adv-x="681" 
 />
    <glyph glyph-name="space" unicode=" " horiz-adv-x="485" 
 />
    <glyph glyph-name="exclam" unicode="!" horiz-adv-x="499" 
d="M250 -14q-43 0 -76 32t-33 77q0 46 33 78t76 32t76 -32q32 -32 32 -78t-32 -78q-33 -31 -76 -31zM195 389l-25 1004h160l-25 -1004h-110z" />
    <glyph glyph-name="quotedbl" unicode="&#x22;" horiz-adv-x="579" 
d="M98 963l-16 430h151l-16 -430h-119zM365 963l-19 430h152l-17 -430h-116z" />
    <glyph glyph-name="numbersign" unicode="#" horiz-adv-x="944" 
d="M342 696h205l55 222h-203zM59 582v114h164l56 222h-148v114h176l55 223h119l-55 -223h203l57 223h119l-55 -223h135v-114h-164l-55 -222h145v-114h-176l-53 -222h-121l55 222h-203l-53 -222h-121l58 222h-138z" />
    <glyph glyph-name="dollar" unicode="$" horiz-adv-x="892" 
d="M690 266q0 72 -43 113t-151 74v-353q96 8 145 52q49 42 49 114zM227 786q0 -63 37 -99t127 -64v311q-164 -16 -164 -148zM92 778q0 110 82 186q82 75 217 83v217h105v-220q96 -14 168 -64t108 -114l-102 -65q-59 104 -174 129v-340l12 -4q164 -49 242 -122t78 -195
q0 -123 -88 -199q-87 -76 -244 -84v-230h-105v232q-129 12 -221 77t-133 148l110 59q80 -145 244 -170v383q-155 43 -227 113t-72 180z" />
    <glyph glyph-name="percent" unicode="%" horiz-adv-x="1568" 
d="M1206 94q76 0 128 53t52 135t-52 136q-52 53 -128 53t-128 -53t-52 -135q0 -81 52 -135t128 -54zM365 559q76 0 128 53q52 52 52 136t-52 136t-128 52t-129 -52q-54 -52 -54 -135t54 -137t129 -53zM1206 -16q-125 0 -215 85t-90 214t90 215t215 86t215 -86t90 -215
t-90 -214t-215 -85zM391 0l645 1032h144l-645 -1032h-144zM365 446q-125 0 -217 86q-91 86 -91 216t91 215q90 86 216 86t216 -86t90 -215q0 -130 -90 -216t-215 -86z" />
    <glyph glyph-name="ampersand" unicode="&#x26;" horiz-adv-x="1339" 
d="M881 287l-361 436q-139 -76 -209 -155q-69 -78 -69 -198t76 -188t212 -67q220 0 351 172zM768 1124q0 74 -44 118t-116 44t-114 -43t-43 -130q0 -87 81 -185l39 -47q197 115 197 243zM1155 754q0 -258 -104 -455l245 -299h-178l-149 180q-174 -197 -439 -196
q-202 0 -322 103t-120 268t89 262t269 196l-24 31q-113 139 -113 270t82 213t215 82t215 -81t82 -204q0 -189 -256 -336l307 -372q59 143 60 338h141z" />
    <glyph glyph-name="quotesingle" unicode="'" horiz-adv-x="315" 
d="M98 963l-16 430h151l-16 -430h-119z" />
    <glyph glyph-name="parenleft" unicode="(" horiz-adv-x="589" 
d="M90 596q0 514 352 874l90 -73q-292 -342 -292 -801t292 -801l-90 -74q-352 361 -352 875z" />
    <glyph glyph-name="parenright" unicode=")" horiz-adv-x="589" 
d="M348 596q0 461 -291 801l88 73q354 -362 354 -874t-354 -875l-88 74q291 340 291 801z" />
    <glyph glyph-name="asterisk" unicode="*" horiz-adv-x="806" 
d="M338 768l31 256l-201 -150l-64 111l240 96l-240 97l64 110l201 -147l-31 252h129l-31 -252l203 147l63 -110l-241 -97l239 -96l-61 -111l-203 150l31 -256h-129z" />
    <glyph glyph-name="plus" unicode="+" horiz-adv-x="763" 
d="M315 197v256h-235v127h235v256h131v-256h238v-127h-238v-256h-131z" />
    <glyph glyph-name="comma" unicode="," horiz-adv-x="413" 
d="M96 98q0 45 34 78t78 33t77 -33q61 -61 8 -160l-123 -245h-80l80 227q-74 25 -74 100z" />
    <glyph glyph-name="hyphen" unicode="-" horiz-adv-x="585" 
d="M94 410v129h395v-129h-395z" />
    <glyph glyph-name="period" unicode="." horiz-adv-x="413" 
d="M208 -14q-44 0 -78 32t-34 80q0 47 33 79t78 32t78 -32t33 -79t-33 -80q-33 -32 -77 -32z" />
    <glyph glyph-name="slash" unicode="/" horiz-adv-x="876" 
d="M31 -262l614 1741h143l-614 -1741h-143z" />
    <glyph glyph-name="zero" unicode="0" horiz-adv-x="1316" 
d="M252 696q0 -289 114 -434t292 -145q177 0 291 144t114 435q0 292 -114 436t-291 144q-178 0 -292 -146t-114 -434zM657 -16q-235 0 -397 183t-162 529t162 530t398 183q236 0 397 -183q162 -184 162 -530t-162 -529t-398 -183z" />
    <glyph glyph-name="one" unicode="1" horiz-adv-x="653" 
d="M301 0v1262h-227v131h377v-1393h-150z" />
    <glyph glyph-name="two" unicode="2" horiz-adv-x="1091" 
d="M57 0v14l572 607q203 213 202 393q-1 116 -69 188t-189 72t-203 -72t-112 -207l-141 31q37 172 154 278q118 105 302 105t296 -110t112 -285q0 -213 -238 -469l-309 -328q-44 -49 -104 -94q72 8 127 8h532v-131h-932z" />
    <glyph glyph-name="three" unicode="3" horiz-adv-x="1124" 
d="M535 -16q-168 0 -301 77q-132 78 -193 203l123 66q119 -213 364 -213q166 0 264 91q97 92 97 240t-99 232t-274 84q-98 0 -178 -31l-8 15l358 446l74 78q-63 -10 -115 -10h-489v131h837v-15l-344 -424q-18 -26 -76 -84q207 -2 335 -118t128 -317q0 -199 -140 -325
t-363 -126z" />
    <glyph glyph-name="four" unicode="4" horiz-adv-x="1208" 
d="M393 383h430v573q0 123 11 144l-15 -19q-30 -49 -76 -106l-395 -502q-32 -41 -90 -86l-16 -14q90 10 151 10zM823 0v258h-766v76l904 1091h12v-1042h155v-125h-155v-258h-150z" />
    <glyph glyph-name="five" unicode="5" horiz-adv-x="1122" 
d="M535 -16q-164 0 -292 70t-196 194l127 69q117 -201 361 -200q159 0 253 91t94 242q0 150 -90 234q-91 84 -251 84q-201 0 -348 -133l-13 8v750h778v-131h-647v-433q104 66 254 66q213 0 343 -120q130 -119 130 -329t-139 -336t-364 -126z" />
    <glyph glyph-name="six" unicode="6" horiz-adv-x="1163" 
d="M582 117q152 0 244 98q92 99 92 241t-92 241t-244 99t-244 -98q-92 -100 -92 -242t92 -240t244 -99zM582 -16q-213 0 -351 135q-137 135 -137 315t117 348l428 611h166l-297 -422l-107 -125q98 72 211 72q197 0 327 -134t130 -330q0 -198 -137 -334t-350 -136z" />
    <glyph glyph-name="seven" unicode="7" horiz-adv-x="1124" 
d="M70 1262v131h999v-15l-690 -1378h-158l631 1262h-782z" />
    <glyph glyph-name="eight" unicode="8" horiz-adv-x="1155" 
d="M581 809q121 0 189 68t68 168q0 101 -69 167t-189 66t-188 -67t-68 -167t68 -167q68 -68 189 -68zM244 401q0 -131 92 -207t243 -77q151 0 241 77q90 78 91 208q0 130 -91 209q-92 79 -242 79t-242 -79t-92 -210zM578 -16q-213 0 -350 113q-136 114 -136 298
q0 135 79 229t212 132q-98 33 -152 113q-53 81 -53 188q0 147 114 249t289 103q175 0 289 -102t113 -250q0 -109 -54 -189t-153 -112q131 -39 209 -132t78 -229q0 -183 -136 -297t-349 -114z" />
    <glyph glyph-name="nine" unicode="9" horiz-adv-x="1163" 
d="M240 932q0 -146 91 -246t247 -100t250 100t96 246q0 146 -94 244q-94 100 -250 100q-154 0 -247 -99t-93 -245zM549 465q-199 0 -330 134t-131 335t138 338t354 137t355 -137q140 -137 140 -336q0 -156 -121 -334l-405 -602h-164l289 426l86 109q-98 -70 -211 -70z" />
    <glyph glyph-name="colon" unicode=":" horiz-adv-x="434" 
d="M328 98q0 -48 -33 -80t-77 -32t-78 32t-34 80q0 47 33 79t78 32t78 -32t33 -79zM218 444q-44 0 -78 33t-34 80t33 79t78 32t78 -32t33 -79t-33 -80t-77 -33z" />
    <glyph glyph-name="semicolon" unicode=";" horiz-adv-x="434" 
d="M106 98q0 45 34 78t78 33t77 -33t33 -74t-25 -86l-123 -245h-80l80 227q-74 25 -74 100zM218 444q-44 0 -78 33t-34 80t33 79t78 32t78 -32t33 -79t-33 -80t-77 -33z" />
    <glyph glyph-name="less" unicode="&#x3c;" horiz-adv-x="729" 
d="M629 193l-555 296v21l555 293v-131l-344 -172l344 -174v-133z" />
    <glyph glyph-name="equal" unicode="=" horiz-adv-x="759" 
d="M86 311v127h588v-127h-588zM86 578v124h588v-124h-588z" />
    <glyph glyph-name="greater" unicode="&#x3e;" horiz-adv-x="729" 
d="M100 193v131l344 172l-344 174v133l555 -297v-21z" />
    <glyph glyph-name="question" unicode="?" horiz-adv-x="960" 
d="M422 -14q-43 0 -76 32t-33 77q0 46 33 78t76 32t76 -32q32 -32 32 -78t-32 -78q-33 -31 -76 -31zM55 1161q105 248 419 248q160 1 272 -107t112 -277t-101 -275t-265 -119v-248h-136v360h68q133 0 210 78t77 198q0 121 -71 191t-179 70t-174 -43t-113 -137z" />
    <glyph glyph-name="at" unicode="@" horiz-adv-x="1814" 
d="M891 102q104 0 174 79t70 194t-70 195t-174 81q-104 0 -172 -80q-68 -81 -68 -197t68 -194t172 -78zM918 -422q-348 0 -583 224t-235 578t239 588q239 232 581 232t568 -216t226 -540q0 -227 -87 -342t-230 -114q-205 0 -238 192q-88 -197 -295 -196q-154 0 -256 110
t-102 281q0 169 102 283t254 114q188 0 273 -176l-5 156h142v-473q0 -89 30 -135t106 -46t128 85q51 85 51 259q0 283 -183 463q-182 180 -484 180q-302 1 -493 -199t-191 -501t187 -498t495 -196q184 0 335 82l54 -103q-166 -92 -389 -92z" />
    <glyph glyph-name="A" unicode="A" horiz-adv-x="1341" 
d="M76 0l577 1407h25l590 -1407h-156l-127 313h-639l-125 -313h-145zM397 440h537l-215 533q-28 68 -41 116q-12 48 -12 50l-9 -29q-28 -93 -47 -135z" />
    <glyph glyph-name="B" unicode="B" horiz-adv-x="1232" 
d="M338 797h321q125 0 185 62q59 62 59 170t-63 170t-201 63h-301v-465zM338 131h340q293 0 293 268q0 129 -76 199t-225 70h-332v-537zM190 0v1393h461q195 -1 297 -99t103 -256q0 -231 -203 -297q272 -61 272 -350q0 -178 -108 -285q-109 -106 -324 -106h-498z" />
    <glyph glyph-name="C" unicode="C" horiz-adv-x="1486" 
d="M825 -16q-301 0 -508 200t-206 512q0 311 206 512q207 201 508 201q373 0 553 -270l-112 -82q-147 219 -441 219q-245 0 -403 -165t-158 -415t159 -414t402 -165q297 0 459 233l115 -80q-94 -138 -242 -212t-332 -74z" />
    <glyph glyph-name="D" unicode="D" horiz-adv-x="1392" 
d="M338 133h180q299 0 454 153q154 152 154 410t-154 411q-155 153 -454 153h-180v-1127zM190 0v1393h338q348 1 551 -189t203 -508t-203 -506q-203 -190 -551 -190h-338z" />
    <glyph glyph-name="E" unicode="E" horiz-adv-x="1187" 
d="M190 0v1393h848v-131h-700v-498h625v-129h-625v-504h729v-131h-877z" />
    <glyph glyph-name="F" unicode="F" horiz-adv-x="1138" 
d="M190 0v1393h838v-131h-690v-533h627v-133h-627v-596h-148z" />
    <glyph glyph-name="G" unicode="G" horiz-adv-x="1560" 
d="M814 -16q-308 0 -515 202t-207 510q0 309 208 511t509 202q387 0 565 -281l-117 -84q-147 231 -448 232q-243 0 -403 -165t-160 -415t161 -414t395 -165q234 1 370 117t163 290h-497v131h657q-5 -305 -189 -488t-492 -183z" />
    <glyph glyph-name="H" unicode="H" horiz-adv-x="1419" 
d="M190 0v1393h148v-650h745v650h148v-1393h-148v610h-745v-610h-148z" />
    <glyph glyph-name="I" unicode="I" horiz-adv-x="542" 
d="M197 0v1393h149v-1393h-149z" />
    <glyph glyph-name="J" unicode="J" horiz-adv-x="989" 
d="M428 -16q-248 0 -360 209l120 75q88 -152 234 -151q106 0 168 62q61 62 61 192v1022h150v-1026q-1 -187 -103 -285t-270 -98z" />
    <glyph glyph-name="K" unicode="K" horiz-adv-x="1243" 
d="M190 0v1393h148v-625q0 -74 -10 -182q45 92 96 157l532 650h168l-506 -623l564 -770h-181l-479 662l-184 -220v-442h-148z" />
    <glyph glyph-name="L" unicode="L" horiz-adv-x="1079" 
d="M190 0v1393h148v-1262h657v-131h-805z" />
    <glyph glyph-name="M" unicode="M" horiz-adv-x="1714" 
d="M334 0h-144v1409h21l647 -809l643 809h23v-1409h-144v920l4 131l2 26q-2 -2 -36 -56t-62 -87l-422 -533h-24l-416 533q-72 84 -100 143l2 -12l6 -145v-920z" />
    <glyph glyph-name="N" unicode="N" horiz-adv-x="1460" 
d="M330 0h-140v1407h25l832 -983q21 -28 46 -62t37 -50t13 -17l-2 29q-2 26 -5 64t-3 65v940h137v-1407h-25l-831 983q-68 78 -97 127l13 -156v-940z" />
    <glyph glyph-name="O" unicode="O" horiz-adv-x="1652" 
d="M264 696q0 -250 160 -414t402 -165q243 0 403 165q160 164 160 414t-160 415t-403 165q-242 0 -402 -165t-160 -415zM1542 696q0 -312 -207 -512t-509 -200t-509 200t-206 512q0 311 206 512q207 201 509 201t509 -201t207 -512z" />
    <glyph glyph-name="P" unicode="P" horiz-adv-x="1191" 
d="M338 659h252q352 -1 352 301t-352 302h-252v-603zM190 0v1393h408q228 0 362 -111q134 -110 134 -320t-133 -322t-363 -112h-260v-528h-148z" />
    <glyph glyph-name="Q" unicode="Q" horiz-adv-x="1652" 
d="M1389 698q0 248 -160 413t-403 165q-242 0 -402 -165t-160 -415t160 -414t401 -165q177 0 310 86l-211 229l100 86l213 -231q152 163 152 411zM826 1409q302 0 509 -201t207 -511t-209 -515l211 -225l-102 -86l-213 229q-182 -117 -404 -116q-301 0 -508 200t-206 512
q0 311 206 512q207 201 509 201z" />
    <glyph glyph-name="R" unicode="R" horiz-adv-x="1243" 
d="M338 674h262q350 0 350 294t-350 294h-262v-588zM190 0v1393h418q228 0 362 -109t134 -317q0 -150 -77 -250t-216 -144l340 -573h-174l-320 549q-20 -2 -65 -2h-254v-547h-148z" />
    <glyph glyph-name="S" unicode="S" horiz-adv-x="1087" 
d="M545 -16q-344 0 -486 282l123 66q56 -100 140 -158t214 -59q130 1 212 65t82 168t-62 169q-61 65 -201 126l-110 51q-160 72 -234 157q-73 85 -73 229t103 237q103 92 263 92q252 0 377 -209l-119 -74q-94 152 -258 152q-102 0 -162 -54t-59 -144q0 -90 49 -141
q49 -52 172 -110l111 -51q182 -80 266 -177t84 -258t-121 -260t-311 -99z" />
    <glyph glyph-name="T" unicode="T" horiz-adv-x="1138" 
d="M496 0v1262h-428v131h1003v-131h-428v-1262h-147z" />
    <glyph glyph-name="U" unicode="U" horiz-adv-x="1355" 
d="M678 -16q-221 0 -361 128q-139 128 -139 363v918h148v-908q0 -182 93 -276t259 -94t259 94t93 276v908h148v-918q0 -235 -140 -363t-360 -128z" />
    <glyph glyph-name="V" unicode="V" horiz-adv-x="1343" 
d="M664 -14l-588 1407h160l382 -944l60 -189q31 119 59 189l381 944h150l-580 -1407h-24z" />
    <glyph glyph-name="W" unicode="W" horiz-adv-x="1951" 
d="M532 -14l-460 1407h157l293 -928q10 -39 39 -152q25 102 45 152l363 942h24l363 -942q25 -68 45 -152q35 137 39 152l291 928h149l-459 -1407h-24l-375 991q-8 18 -15 43t-13 43l-13 49l-14 -49q-7 -18 -15 -43t-14 -43l-381 -991h-25z" />
    <glyph glyph-name="X" unicode="X" horiz-adv-x="1300" 
d="M88 0l477 758l-401 635h168l276 -435l45 -96q20 61 43 96l275 435h162l-400 -635l481 -758h-167l-355 557q-39 61 -47 96l-24 -57q-10 -25 -19 -39l-352 -557h-162z" />
    <glyph glyph-name="Y" unicode="Y" horiz-adv-x="1249" 
d="M555 0v512l-485 881h168l335 -617q17 -33 39 -86q21 -53 21 -55q14 57 59 141l334 617h154l-473 -877v-516h-152z" />
    <glyph glyph-name="Z" unicode="Z" horiz-adv-x="1189" 
d="M80 0v23l778 1239h-668v131h897v-23l-776 -1239h781v-131h-1012z" />
    <glyph glyph-name="bracketleft" unicode="[" horiz-adv-x="624" 
d="M156 -262v1741h395v-123h-252v-1495h252v-123h-395z" />
    <glyph glyph-name="backslash" unicode="\" horiz-adv-x="878" 
d="M705 -262l-617 1741h143l617 -1741h-143z" />
    <glyph glyph-name="bracketright" unicode="]" horiz-adv-x="624" 
d="M74 -262v123h252v1495h-252v123h397v-1741h-397z" />
    <glyph glyph-name="asciicircum" unicode="^" horiz-adv-x="854" 
d="M139 948l279 461h18l279 -461h-119l-168 258l-170 -258h-119z" />
    <glyph glyph-name="underscore" unicode="_" horiz-adv-x="524" 
d="M-4 -262v127h532v-127h-532z" />
    <glyph glyph-name="grave" unicode="`" 
d="M459 1020l-191 395h164l139 -395h-112z" />
    <glyph glyph-name="a" unicode="a" horiz-adv-x="1122" 
d="M536 109q132 0 213 89t80 226q0 137 -81 226q-82 89 -213 89t-209 -87t-78 -227t78 -228t210 -88zM504 -16q-172 0 -289 127t-117 315t117 314t291 126q223 0 323 -200l-4 182h144v-848h-144l4 182q-45 -88 -129 -143t-196 -55z" />
    <glyph glyph-name="b" unicode="b" horiz-adv-x="1128" 
d="M589 109q134 0 214 89t80 227t-80 226t-214 88t-217 -88t-83 -226t83 -227t217 -89zM618 -16q-110 0 -196 54t-131 144l4 -182h-141v1479h141v-805q104 193 326 192q173 0 291 -126t118 -315t-119 -315t-293 -126z" />
    <glyph glyph-name="c" unicode="c" horiz-adv-x="956" 
d="M554 -16q-202 0 -329 127t-127 313t127 314t325 128t322 -151l-102 -84q-82 109 -223 109t-221 -90q-80 -89 -80 -226t80 -226t222 -89t234 110l99 -84q-125 -151 -327 -151z" />
    <glyph glyph-name="d" unicode="d" horiz-adv-x="1128" 
d="M540 109q134 0 217 89t83 227t-83 226t-217 88t-214 -88t-80 -226t80 -227t214 -89zM510 -16q-174 0 -293 126t-119 315t119 315t291 126q221 0 326 -192v805h141v-1479h-141l4 182q-45 -90 -131 -144t-197 -54z" />
    <glyph glyph-name="e" unicode="e" horiz-adv-x="1056" 
d="M244 485h575q-10 115 -83 188q-74 73 -196 73t-201 -72q-79 -70 -95 -189zM572 104q152 0 253 113l88 -86q-131 -147 -346 -147t-342 126t-127 313t126 315t320 128t310 -138t109 -351h-721q14 -125 96 -199t234 -74z" />
    <glyph glyph-name="f" unicode="f" horiz-adv-x="651" 
d="M207 0v727h-137v121h137v385q0 137 63 205t172 67q143 0 215 -104l-94 -84q-45 59 -108 59q-104 0 -105 -143v-385h228v-121h-228v-727h-143z" />
    <glyph glyph-name="g" unicode="g" horiz-adv-x="1130" 
d="M540 109q134 0 217 89t83 227t-83 226t-217 88t-214 -88t-80 -226t80 -227t214 -89zM549 -457q-293 0 -430 236l106 74q113 -186 320 -187q289 0 289 318v192q-43 -86 -128 -139t-196 -53q-174 0 -293 126t-119 315t119 315t291 126q227 0 330 -200l-4 182h143v-875
q-1 -217 -115 -323t-313 -107z" />
    <glyph glyph-name="h" unicode="h" horiz-adv-x="1056" 
d="M152 0v1479h143v-797q41 86 120 135t181 49q143 0 230 -93t87 -257v-516h-143v500q0 236 -211 235q-119 1 -191 -71t-73 -197v-467h-143z" />
    <glyph glyph-name="i" unicode="i" horiz-adv-x="454" 
d="M156 0v848h143v-848h-143zM227 1094q-41 0 -71 28t-31 72q0 43 31 73q32 29 72 29t71 -30t31 -72q0 -44 -31 -72t-72 -28z" />
    <glyph glyph-name="j" unicode="j" horiz-adv-x="454" 
d="M299 -201q1 -123 -61 -189t-170 -65q-108 0 -185 84l80 86q51 -47 98 -47q94 0 95 129v1051h143v-1049zM227 1094q-41 0 -71 28t-31 72q0 43 31 73q32 29 72 29t71 -30t31 -72q0 -44 -31 -72t-72 -28z" />
    <glyph glyph-name="k" unicode="k" horiz-adv-x="948" 
d="M295 0h-143v1479h143v-949q0 -63 -10 -120l403 438h166l-326 -356l377 -492h-170l-307 397l-133 -139v-258z" />
    <glyph glyph-name="l" unicode="l" horiz-adv-x="466" 
d="M162 0v1479h143v-1479h-143z" />
    <glyph glyph-name="m" unicode="m" horiz-adv-x="1550" 
d="M152 0v848h143l-4 -160q85 178 273 178t249 -178q98 178 293 178q139 0 220 -87t81 -236v-543h-141v524q0 211 -187 211q-104 0 -166 -68q-61 -69 -61 -192v-475h-143v524q0 211 -185 211q-104 0 -167 -68q-62 -69 -62 -192v-475h-143z" />
    <glyph glyph-name="n" unicode="n" horiz-adv-x="1056" 
d="M152 0v848h143l-4 -174q41 90 122 141t183 51q143 0 230 -93t87 -257v-516h-143v500q0 236 -211 235q-119 1 -191 -71t-73 -197v-467h-143z" />
    <glyph glyph-name="o" unicode="o" horiz-adv-x="1093" 
d="M244 424q0 -138 85 -228t219 -90t218 90t84 228q0 137 -84 227t-218 90t-219 -90t-85 -227zM548 -16q-189 0 -320 127q-130 127 -130 313t130 314t320 128t318 -128q129 -128 129 -314t-129 -313t-318 -127z" />
    <glyph glyph-name="p" unicode="p" horiz-adv-x="1128" 
d="M589 109q134 0 214 89t80 227t-80 226t-214 88t-217 -88t-83 -226t83 -227t217 -89zM154 -434v1282h141l-4 -182q102 201 330 200q173 0 291 -126t118 -315t-119 -315t-293 -126q-112 0 -196 53t-127 139v-610h-141z" />
    <glyph glyph-name="q" unicode="q" horiz-adv-x="1130" 
d="M540 109q134 0 217 89t83 227t-83 226t-217 88t-214 -88t-80 -226t80 -227t214 -89zM834 -434v610q-43 -86 -128 -139t-196 -53q-174 0 -293 126t-119 315t119 315t291 126q227 0 330 -200l-4 182h143v-1282h-143z" />
    <glyph glyph-name="r" unicode="r" horiz-adv-x="731" 
d="M152 0v848h143l-4 -166q76 182 248 182q88 0 147 -41l-55 -125q-47 33 -130 33t-145 -72t-61 -213v-446h-143z" />
    <glyph glyph-name="s" unicode="s" horiz-adv-x="839" 
d="M448 -16q-142 0 -236 55q-93 55 -138 141l110 64q86 -143 246 -144q86 0 133 34t47 95t-46 89t-172 64t-192 90t-67 162q0 108 79 170t200 62q186 0 282 -137l-98 -76q-70 96 -184 97q-68 0 -108 -30t-40 -83t41 -80t166 -61t200 -92t75 -170t-78 -181t-220 -69z" />
    <glyph glyph-name="t" unicode="t" horiz-adv-x="686" 
d="M438 -18q-236 0 -237 274v471h-131v121h131v291h141v-291h238v-121h-238v-473q0 -147 100 -148q68 0 121 54l70 -97q-81 -81 -195 -81z" />
    <glyph glyph-name="u" unicode="u" horiz-adv-x="1036" 
d="M515 -18q-175 0 -273 103t-99 290v473h144v-467q0 -272 232 -272t233 272v467h141v-473q0 -184 -101 -289q-102 -104 -277 -104z" />
    <glyph glyph-name="v" unicode="v" horiz-adv-x="946" 
d="M463 -16l-412 864h158l225 -490q25 -55 47 -145q27 109 45 145l222 490h147l-406 -864h-26z" />
    <glyph glyph-name="w" unicode="w" horiz-adv-x="1398" 
d="M399 -18l-348 866h156l182 -467q39 -112 39 -129q14 68 43 129l221 479h19l225 -477q27 -61 45 -133q0 41 39 133l182 465h146l-353 -866h-20l-234 510q-18 37 -27 69q-8 32 -14 53q-18 -74 -41 -122l-239 -510h-21z" />
    <glyph glyph-name="x" unicode="x" horiz-adv-x="962" 
d="M63 0l336 451l-290 397h170l159 -221q16 -23 49 -88q-1 6 15 40t26 48l162 221h158l-287 -387l338 -461h-172l-201 279q-29 43 -53 92q-34 -73 -49 -92l-203 -279h-158z" />
    <glyph glyph-name="y" unicode="y" horiz-adv-x="946" 
d="M195 -434l217 506l-361 776h158l240 -526q10 -25 19 -61l15 -60l4 -23q14 90 39 144l222 526h147l-553 -1282h-147z" />
    <glyph glyph-name="z" unicode="z" horiz-adv-x="854" 
d="M66 0v20l489 709h-436v119h667v-23l-493 -706h483v-119h-710z" />
    <glyph glyph-name="braceleft" unicode="{" horiz-adv-x="751" 
d="M561 -262q-272 0 -272 295v379q0 78 -30 110t-89 31h-119v123h119q59 0 89 33t30 110v365q0 295 272 295h117v-123h-109q-67 0 -101 -39t-34 -135v-379q0 -156 -133 -189q133 -25 133 -188v-391q0 -96 34 -135t101 -39h109v-123h-117z" />
    <glyph glyph-name="bar" unicode="|" horiz-adv-x="485" 
d="M174 -262v1741h137v-1741h-137z" />
    <glyph glyph-name="braceright" unicode="}" horiz-adv-x="749" 
d="M461 819q0 -143 121 -143h116v-123h-116q-59 0 -90 -32t-31 -109v-379q0 -295 -271 -295h-116v123h108q68 0 102 39t33 135v391q0 160 134 188q-133 25 -134 191v377q0 96 -33 135q-34 39 -102 39h-108v123h116q270 0 271 -295v-365z" />
    <glyph glyph-name="asciitilde" unicode="~" horiz-adv-x="804" 
d="M277 696q72 0 145 -67q62 -51 76 -55t22 -3q61 0 74 121l106 -10q-4 -109 -50 -167t-119 -58t-146 67q-43 35 -59 45t-41 11q-62 0 -74 -121l-107 10q4 109 52 168t121 59z" />
    <glyph glyph-name="uni00A0" unicode="&#xa0;" horiz-adv-x="372" 
 />
    <glyph glyph-name="exclamdown" unicode="&#xa1;" horiz-adv-x="499" 
d="M305 1004l25 -1004h-160l25 1004h110zM250 1407q43 0 76 -32q32 -32 32 -78q0 -45 -32 -77t-76 -32q-43 0 -76 32t-33 78t33 77q33 32 76 32z" />
    <glyph glyph-name="cent" unicode="&#xa2;" horiz-adv-x="962" 
d="M244 424q0 -121 62 -206t171 -105v622q-105 -20 -169 -105t-64 -206zM477 1083h105v-219q180 -12 292 -149l-100 -82q-72 92 -192 106v-630q125 14 204 110l99 -84q-115 -137 -303 -149v-224h-105v226q-166 22 -272 144t-107 292q0 170 108 293t271 145v221z" />
    <glyph glyph-name="sterling" unicode="&#xa3;" horiz-adv-x="1114" 
d="M272 250q-48 0 -72 -24q-26 -24 -26 -60t26 -61q26 -23 70 -23t86 28q40 28 56 70q-92 70 -140 70zM541 219q149 -108 252 -108q104 0 182 88l86 -88q-103 -127 -255 -127t-304 122q-83 -122 -244 -122q-84 0 -142 52t-58 133t56 130t136 49t164 -45q-15 86 -76 229h-195
v115h146q-63 160 -64 268q1 150 107 250q106 101 260 101t252 -64t145 -164l-119 -65q-43 84 -102 124t-163 40q-104 -1 -167 -61t-63 -164t59 -265h332v-115h-289q63 -182 64 -303v-10z" />
    <glyph glyph-name="yen" unicode="&#xa5;" horiz-adv-x="1097" 
d="M469 0v262h-350v115h346l-80 141h-266v115h203l-226 399h162l234 -434q31 -60 49 -119l8 -20q25 80 57 139l246 434h149l-235 -399h199v-115h-265l-84 -141h349v-115h-351v-262h-145z" />
    <glyph glyph-name="section" unicode="&#xa7;" horiz-adv-x="1013" 
d="M813 410q0 63 -38 104t-140 82l-201 80q-88 37 -147 86q-84 -41 -84 -137q0 -70 38 -111t134 -80l186 -72q97 -36 154 -79q98 43 98 127zM190 981q0 125 92 205t228 80q236 0 328 -207l-117 -53q-70 141 -207 141q-84 0 -134 -43t-50 -114q0 -72 32 -112t113 -73l201 -80
q143 -55 208 -127t64 -170q0 -147 -164 -213q47 -66 47 -152q0 -125 -88 -199t-232 -75q-144 0 -245 61q-100 61 -145 160l115 58q80 -158 258 -158q90 0 142 42t52 106t-39 102t-129 73l-182 72q-143 55 -208 125t-64 178q-1 149 165 221q-41 66 -41 152z" />
    <glyph glyph-name="dieresis" unicode="&#xa8;" 
d="M338 1100q-37 0 -66 28t-28 66q0 39 28 67q29 27 66 27q38 0 66 -28t28 -66t-28 -66t-66 -28zM686 1100q-38 0 -66 28t-28 66q0 39 29 67q29 27 65 27t66 -28q28 -28 28 -66q0 -39 -28 -67q-29 -27 -66 -27z" />
    <glyph glyph-name="copyright" unicode="&#xa9;" horiz-adv-x="1224" 
d="M628 211q-136 0 -224 87q-87 87 -87 218t86 219t218 88t231 -104l-84 -78q-53 70 -137 70q-84 1 -133 -55t-49 -139t49 -138t133 -55t143 73l84 -78q-94 -108 -230 -108zM166 517q0 -197 129 -323t318 -126t318 127q128 127 128 323t-128 322q-127 127 -317 127
t-319 -127t-129 -323zM1145 517q0 -227 -156 -379t-376 -152q-221 0 -377 152t-156 379q0 226 157 379t377 153t375 -153q156 -153 156 -379z" />
    <glyph glyph-name="ordfeminine" unicode="&#xaa;" horiz-adv-x="823" 
d="M582 643h-203q-166 0 -166 -119t168 -118q86 0 143 42t58 113v82zM582 743q0 109 -43 152t-125 43q-123 0 -207 -102l-82 71q100 141 299 142q131 0 211 -74t80 -227v-433h-133l2 95q-78 -111 -234 -111q-118 0 -194 57q-76 56 -76 164t81 166t204 57h217z" />
    <glyph glyph-name="guillemotleft" unicode="&#xab;" horiz-adv-x="813" 
d="M270 76l-192 325v17l192 321h148l-197 -329l197 -334h-148zM588 76l-193 325v17l193 321h147l-196 -329l196 -334h-147z" />
    <glyph glyph-name="registered" unicode="&#xae;" horiz-adv-x="1052" 
d="M453 983h84q94 0 94 84t-94 84h-84v-168zM162 982q0 -164 101 -266t262 -102t265 102t103 266q0 165 -103 266q-102 102 -264 102t-263 -102t-101 -266zM523 1421q187 0 319 -126t133 -313q-1 -187 -133 -313t-318 -126t-316 126t-130 314t129 313t316 125zM365 741v486
h172q88 0 136 -42t48 -114q0 -113 -100 -143l112 -187h-98l-103 174h-79v-174h-88z" />
    <glyph glyph-name="macron" unicode="&#xaf;" 
d="M276 1104v113h472v-113h-472z" />
    <glyph glyph-name="degree" unicode="&#xb0;" horiz-adv-x="665" 
d="M333 680q58 0 95 39t37 98t-37 98t-95 39t-95 -39t-37 -98t37 -98t95 -39zM333 586q-99 0 -169 68t-70 164q0 97 70 164t169 67t169 -67t70 -164t-70 -165q-70 -67 -169 -67z" />
    <glyph glyph-name="acute" unicode="&#xb4;" 
d="M453 1020l139 395h164l-191 -395h-112z" />
    <glyph glyph-name="paragraph" unicode="&#xb6;" horiz-adv-x="1183" 
d="M545 0v623h-45q-182 0 -289 109q-106 110 -107 274q0 164 110 276t294 111h485v-1393h-141v1266h-164v-1266h-143z" />
    <glyph glyph-name="periodcentered" unicode="&#xb7;" horiz-adv-x="413" 
d="M208 387q-44 0 -78 33t-34 80t33 79q33 31 78 31t78 -32t33 -78q0 -47 -34 -80q-32 -33 -76 -33z" />
    <glyph glyph-name="cedilla" unicode="&#xb8;" 
d="M524 -475q-147 0 -207 121l82 51q41 -80 117 -80q41 0 69 26q27 25 27 69t-28 72q-29 28 -84 28h-43v188h94v-109q72 -10 121 -59t49 -129q-1 -80 -59 -129t-138 -49z" />
    <glyph glyph-name="ordmasculine" unicode="&#xba;" horiz-adv-x="929" 
d="M465 412q109 0 177 74t67 188q0 116 -68 188q-69 72 -177 72t-174 -73t-67 -189q1 -116 67 -188t175 -72zM465 299q-159 0 -269 108q-110 109 -110 267t111 266t269 109q158 0 268 -109q110 -110 110 -268t-110 -266t-269 -107z" />
    <glyph glyph-name="guillemotright" unicode="&#xbb;" horiz-adv-x="813" 
d="M78 76l196 332l-196 331h147l193 -323v-17l-193 -323h-147zM395 76l197 332l-197 331h148l192 -323v-17l-192 -323h-148z" />
    <glyph glyph-name="questiondown" unicode="&#xbf;" horiz-adv-x="960" 
d="M905 231q-104 -247 -418 -247q-161 0 -273 108t-112 276q0 169 102 275t265 119v248h135v-361h-67q-133 0 -210 -78q-77 -77 -77 -197t71 -191t179 -71t174 44q66 43 112 137zM539 1407q43 0 75 -32t33 -78q0 -45 -33 -77q-34 -32 -76 -32t-75 32t-33 78t33 77
q33 32 76 32z" />
    <glyph glyph-name="Agrave" unicode="&#xc0;" horiz-adv-x="1341" 
d="M608 1534l-190 395h164l139 -395h-113zM76 0l577 1407h25l590 -1407h-156l-127 313h-639l-125 -313h-145zM397 440h537l-215 533q-28 68 -41 116q-12 48 -12 50l-9 -29q-28 -93 -47 -135z" />
    <glyph glyph-name="Aacute" unicode="&#xc1;" horiz-adv-x="1341" 
d="M610 1534l140 395h163l-190 -395h-113zM76 0l577 1407h25l590 -1407h-156l-127 313h-639l-125 -313h-145zM397 440h537l-215 533q-28 68 -41 116q-12 48 -12 50l-9 -29q-28 -93 -47 -135z" />
    <glyph glyph-name="Acircumflex" unicode="&#xc2;" horiz-adv-x="1341" 
d="M393 1544l262 395h19l262 -395h-119l-151 207l-154 -207h-119zM76 0l577 1407h25l590 -1407h-156l-127 313h-639l-125 -313h-145zM397 440h537l-215 533q-28 68 -41 116q-12 48 -12 50l-9 -29q-28 -93 -47 -135z" />
    <glyph glyph-name="Atilde" unicode="&#xc3;" horiz-adv-x="1341" 
d="M76 0l577 1407h25l590 -1407h-156l-127 313h-639l-125 -313h-145zM397 440h537l-215 533q-28 68 -41 116q-12 48 -12 50l-9 -29q-28 -93 -47 -135zM530 1675q-74 0 -86 -121l-110 11q6 107 59 167t133 60t160 -66q4 -4 15 -12t15 -11t11 -9q8 -6 11 -8q4 -2 10 -6
q15 -10 28 -11l21 -2q74 0 86 121l110 -10q-6 -111 -57 -168q-51 -58 -132 -58t-161 66q-47 37 -66 47t-47 10z" />
    <glyph glyph-name="Adieresis" unicode="&#xc4;" horiz-adv-x="1341" 
d="M492 1554q-37 0 -66 28t-29 67t29 67t66 27q38 0 66 -28q28 -29 28 -67t-28 -66t-66 -28zM840 1554q-37 0 -66 28t-29 67t29 67t66 27q38 0 66 -28q28 -29 28 -67t-28 -66t-66 -28zM76 0l577 1407h25l590 -1407h-156l-127 313h-639l-125 -313h-145zM397 440h537l-215 533
q-28 68 -41 116q-12 48 -12 50l-9 -29q-28 -93 -47 -135z" />
    <glyph glyph-name="Aring" unicode="&#xc5;" horiz-adv-x="1341" 
d="M666 1610q48 0 78 32t30 83q0 52 -30 83t-78 31t-79 -31q-30 -31 -30 -83q0 -51 31 -83t78 -32zM666 1520q-90 0 -153 60q-62 60 -62 145t62 145q63 60 153 61q90 0 152 -60q62 -59 62 -145t-62 -146t-152 -60zM76 0l577 1407h25l590 -1407h-156l-127 313h-639l-125 -313
h-145zM397 440h537l-215 533q-28 68 -41 116q-12 48 -12 50l-9 -29q-28 -93 -47 -135z" />
    <glyph glyph-name="AE" unicode="&#xc6;" horiz-adv-x="1951" 
d="M954 414v581q0 68 6 107q6 40 7 53l2 12q-55 -111 -84 -153l-396 -600h465zM1802 1393v-131h-698v-498h622v-129h-622v-504h727v-131h-877v287h-553l-186 -287h-160l930 1393h817z" />
    <glyph glyph-name="Ccedilla" unicode="&#xc7;" horiz-adv-x="1492" 
d="M786 -475q-147 0 -208 121l84 51q39 -80 116 -80q41 0 68 26q26 25 26 69t-28 72q-29 28 -84 28h-43v178q-264 38 -435 232t-171 490t206 496q207 201 508 201q373 0 553 -270l-112 -82q-147 219 -441 219q-245 0 -403 -165t-158 -415t159 -414t402 -165q297 0 459 233
l115 -80q-93 -137 -241 -212t-333 -74h-12v-93q70 -10 120 -59t50 -129q1 -80 -59 -129t-138 -49z" />
    <glyph glyph-name="Egrave" unicode="&#xc8;" horiz-adv-x="1187" 
d="M573 1534l-190 395h164l139 -395h-113zM190 0v1393h848v-131h-700v-498h625v-129h-625v-504h729v-131h-877z" />
    <glyph glyph-name="Eacute" unicode="&#xc9;" horiz-adv-x="1187" 
d="M190 0v1393h848v-131h-700v-498h625v-129h-625v-504h729v-131h-877zM573 1534l140 395h164l-191 -395h-113z" />
    <glyph glyph-name="Ecircumflex" unicode="&#xca;" horiz-adv-x="1187" 
d="M190 0v1393h848v-131h-700v-498h625v-129h-625v-504h729v-131h-877zM352 1544l262 395h19l262 -395h-119l-151 207l-154 -207h-119z" />
    <glyph glyph-name="Edieresis" unicode="&#xcb;" horiz-adv-x="1187" 
d="M190 0v1393h848v-131h-700v-498h625v-129h-625v-504h729v-131h-877zM455 1554q-37 0 -66 28t-29 67t29 67t66 27q37 0 65 -28q28 -29 29 -67q-1 -38 -29 -66t-65 -28zM803 1554q-37 0 -66 28t-28 67t29 67t65 27q37 0 65 -28q28 -29 29 -67q-1 -38 -29 -66t-65 -28z" />
    <glyph glyph-name="Igrave" unicode="&#xcc;" horiz-adv-x="542" 
d="M215 1534l-190 395h163l140 -395h-113zM197 0v1393h149v-1393h-149z" />
    <glyph glyph-name="Iacute" unicode="&#xcd;" horiz-adv-x="542" 
d="M217 1534l139 395h164l-190 -395h-113zM197 0v1393h149v-1393h-149z" />
    <glyph glyph-name="Icircumflex" unicode="&#xce;" horiz-adv-x="542" 
d="M0 1544l262 395h19l262 -395h-119l-152 207l-153 -207h-119zM197 0v1393h149v-1393h-149z" />
    <glyph glyph-name="Idieresis" unicode="&#xcf;" horiz-adv-x="542" 
d="M98 1554q-38 0 -66 28t-28 67t29 67t65 27q36 0 66 -28q29 -29 29 -67t-29 -66t-66 -28zM446 1554q-38 0 -66 28t-28 67t29 67t65 27q36 0 66 -28q29 -29 29 -67t-29 -66t-66 -28zM197 0v1393h149v-1393h-149z" />
    <glyph glyph-name="Eth" unicode="&#xd0;" horiz-adv-x="1392" 
d="M338 133h197q289 0 441 153q152 152 150 410q0 258 -151 411q-152 153 -440 153h-197v-498h375v-129h-375v-500zM190 0v633h-161v129h161v631h355q337 0 537 -193t200 -504q0 -312 -200 -504t-537 -192h-355z" />
    <glyph glyph-name="Ntilde" unicode="&#xd1;" horiz-adv-x="1460" 
d="M606 1675q-74 0 -86 -121l-110 11q6 107 59 167t132 60t161 -66q4 -4 15 -12t15 -11t11 -9q8 -6 11 -8l9 -6q5 -4 9 -6q4 -1 10 -3t10 -2l20 -2q74 0 86 121l111 -10q-6 -111 -57 -168q-50 -58 -132 -58t-163 66q-47 37 -65 47t-46 10zM330 0h-140v1407h25l832 -983
q21 -28 46 -62t37 -50t13 -17l-2 29q-2 26 -5 64t-3 65v940h137v-1407h-25l-831 983q-68 78 -97 127l13 -156v-940z" />
    <glyph glyph-name="Ograve" unicode="&#xd2;" horiz-adv-x="1652" 
d="M768 1534l-190 395h163l140 -395h-113zM264 696q0 -250 160 -414t402 -165q243 0 403 165q160 164 160 414t-160 415t-403 165q-242 0 -402 -165t-160 -415zM1542 696q0 -312 -207 -512t-509 -200t-509 200t-206 512q0 311 206 512q207 201 509 201t509 -201t207 -512z
" />
    <glyph glyph-name="Oacute" unicode="&#xd3;" horiz-adv-x="1652" 
d="M264 696q0 -250 160 -414t402 -165q243 0 403 165q160 164 160 414t-160 415t-403 165q-242 0 -402 -165t-160 -415zM1542 696q0 -312 -207 -512t-509 -200t-509 200t-206 512q0 311 206 512q207 201 509 201t509 -201t207 -512zM770 1534l139 395h164l-190 -395h-113z
" />
    <glyph glyph-name="Ocircumflex" unicode="&#xd4;" horiz-adv-x="1652" 
d="M264 696q0 -250 160 -414t402 -165q243 0 403 165q160 164 160 414t-160 415t-403 165q-242 0 -402 -165t-160 -415zM1542 696q0 -312 -207 -512t-509 -200t-509 200t-206 512q0 311 206 512q207 201 509 201t509 -201t207 -512zM553 1544l262 395h19l262 -395h-119
l-152 207l-153 -207h-119z" />
    <glyph glyph-name="Otilde" unicode="&#xd5;" horiz-adv-x="1652" 
d="M264 696q0 -250 160 -414t402 -165q243 0 403 165q160 164 160 414t-160 415t-403 165q-242 0 -402 -165t-160 -415zM1542 696q0 -312 -207 -512t-509 -200t-509 200t-206 512q0 311 206 512q207 201 509 201t509 -201t207 -512zM688 1792q80 0 162 -66q12 -12 27 -22
t26 -19q26 -18 58 -18q72 0 83 121l111 -10q-6 -111 -56 -168q-50 -58 -131 -58t-163 66q-47 37 -65 47t-46 10q-76 0 -88 -121l-108 11q6 109 58 168t132 59z" />
    <glyph glyph-name="Odieresis" unicode="&#xd6;" horiz-adv-x="1652" 
d="M264 696q0 -250 160 -414t402 -165q243 0 403 165q160 164 160 414t-160 415t-403 165q-242 0 -402 -165t-160 -415zM1542 696q0 -312 -207 -512t-509 -200t-509 200t-206 512q0 311 206 512q207 201 509 201t509 -201t207 -512zM651 1554q-37 0 -65 28t-29 67
q0 39 29 67q30 28 66 27q36 0 65 -28q29 -29 29 -67t-30 -66q-28 -28 -65 -28zM999 1554q-37 0 -65 28t-29 67q0 39 29 67q30 28 66 27q36 0 65 -28q29 -29 29 -67t-29 -66t-66 -28z" />
    <glyph glyph-name="multiply" unicode="&#xd7;" horiz-adv-x="757" 
d="M379 424l-205 -205l-90 90l205 205l-205 205l90 90l205 -205l205 205l90 -90l-205 -205l205 -205l-90 -90z" />
    <glyph glyph-name="Oslash" unicode="&#xd8;" horiz-adv-x="1652" 
d="M825 117q244 0 404 165t160 414q0 205 -113 359l-811 -811q154 -127 360 -127zM812 1276q-228 0 -388 -165t-160 -415q0 -204 113 -358l135 135q84 84 262 261t295 294l119 119q-147 129 -376 129zM1542 696q0 -311 -207 -512t-510 -200q-268 0 -463 159l-163 -163
l-93 90l166 163q-162 195 -161 463q0 311 206 512q207 201 491 201t482 -162l164 164l90 -90l-164 -162q162 -195 162 -463z" />
    <glyph glyph-name="Ugrave" unicode="&#xd9;" horiz-adv-x="1355" 
d="M621 1534l-191 395h164l139 -395h-112zM678 -16q-221 0 -361 128q-139 128 -139 363v918h148v-908q0 -182 93 -276t259 -94t259 94t93 276v908h148v-918q0 -235 -140 -363t-360 -128z" />
    <glyph glyph-name="Uacute" unicode="&#xda;" horiz-adv-x="1355" 
d="M678 -16q-221 0 -361 128q-139 128 -139 363v918h148v-908q0 -182 93 -276t259 -94t259 94t93 276v908h148v-918q0 -235 -140 -363t-360 -128zM621 1534l139 395h164l-191 -395h-112z" />
    <glyph glyph-name="Ucircumflex" unicode="&#xdb;" horiz-adv-x="1355" 
d="M678 -16q-221 0 -361 128q-139 128 -139 363v918h148v-908q0 -182 93 -276t259 -94t259 94t93 276v908h148v-918q0 -235 -140 -363t-360 -128zM406 1544l262 395h18l262 -395h-119l-151 207l-154 -207h-118z" />
    <glyph glyph-name="Udieresis" unicode="&#xdc;" horiz-adv-x="1355" 
d="M678 -16q-221 0 -361 128q-139 128 -139 363v918h148v-908q0 -182 93 -276t259 -94t259 94t93 276v908h148v-918q0 -235 -140 -363t-360 -128zM502 1554q-37 0 -66 28t-28 67q0 39 28 67t66 27q38 0 66 -28q28 -29 28 -67t-28 -66t-66 -28zM850 1554q-37 0 -66 28t-28 67
q0 39 28 67t66 27q38 0 66 -28q28 -29 28 -67t-28 -66t-66 -28z" />
    <glyph glyph-name="Yacute" unicode="&#xdd;" horiz-adv-x="1249" 
d="M575 1534l140 395h164l-191 -395h-113zM555 0v512l-485 881h168l335 -617q17 -33 39 -86q21 -53 21 -55q14 57 59 141l334 617h154l-473 -877v-516h-152z" />
    <glyph glyph-name="Thorn" unicode="&#xde;" horiz-adv-x="1196" 
d="M338 403h252q352 0 352 300t-352 301h-252v-601zM190 0v1393h148v-258h260q228 0 362 -111t134 -320q0 -208 -133 -320t-363 -112h-260v-272h-148z" />
    <glyph glyph-name="germandbls" unicode="&#xdf;" horiz-adv-x="1105" 
d="M580 -10q-90 0 -156 26l31 117q43 -18 110 -18q143 0 219 85q76 84 76 234t-96 235t-272 83v118q113 12 176 84t63 191t-60 179q-61 60 -157 60t-158 -64q-61 -65 -61 -204v-1116h-143v1118q0 190 104 288t258 99q154 0 253 -94t99 -264q0 -231 -196 -316
q154 -31 246 -136t92 -283t-114 -300t-314 -122z" />
    <glyph glyph-name="agrave" unicode="&#xe0;" horiz-adv-x="964" 
d="M420 1020l-191 395h164l139 -395h-112zM678 389h-254q-193 0 -193 -141q0 -147 205 -148q100 0 171 50t71 133v106zM678 498v20q0 227 -199 227q-156 0 -248 -122l-88 79q121 164 346 164q147 0 239 -88t93 -258v-520h-143l6 127q-96 -143 -281 -143q-141 0 -226 66
t-85 191t90 191t232 66h264z" />
    <glyph glyph-name="aacute" unicode="&#xe1;" horiz-adv-x="964" 
d="M422 1020l139 395h164l-190 -395h-113zM678 389h-254q-193 0 -193 -141q0 -147 205 -148q100 0 171 50t71 133v106zM678 498v20q0 227 -199 227q-156 0 -248 -122l-88 79q121 164 346 164q147 0 239 -88t93 -258v-520h-143l6 127q-96 -143 -281 -143q-141 0 -226 66
t-85 191t90 191t232 66h264z" />
    <glyph glyph-name="acircumflex" unicode="&#xe2;" horiz-adv-x="964" 
d="M207 1030l262 395h18l263 -395h-119l-152 207l-153 -207h-119zM678 389h-254q-193 0 -193 -141q0 -147 205 -148q100 0 171 50t71 133v106zM678 498v20q0 227 -199 227q-156 0 -248 -122l-88 79q121 164 346 164q147 0 239 -88t93 -258v-520h-143l6 127
q-96 -143 -281 -143q-141 0 -226 66t-85 191t90 191t232 66h264z" />
    <glyph glyph-name="atilde" unicode="&#xe3;" horiz-adv-x="964" 
d="M351 1278q71 0 129 -52t76 -61q17 -10 40 -10q61 0 74 119l106 -10q-6 -109 -52 -167q-46 -59 -116 -59t-149 68q-41 37 -59 47t-40 10q-63 0 -75 -121l-107 9q6 109 54 168t119 59zM678 389h-254q-193 0 -193 -141q0 -147 205 -148q100 0 171 50t71 133v106zM678 498v20
q0 227 -199 227q-156 0 -248 -122l-88 79q121 164 346 164q147 0 239 -88t93 -258v-520h-143l6 127q-96 -143 -281 -143q-141 0 -226 66t-85 191t90 191t232 66h264z" />
    <glyph glyph-name="adieresis" unicode="&#xe4;" horiz-adv-x="964" 
d="M303 1100q-37 0 -65 28t-29 66q0 39 29 67q30 27 66 27t65 -28t29 -66q0 -39 -29 -67q-29 -27 -66 -27zM651 1100q-37 0 -65 28t-29 66q0 39 29 67q30 27 66 27t65 -28t29 -66q0 -39 -29 -67q-29 -27 -66 -27zM678 389h-254q-193 0 -193 -141q0 -147 205 -148
q100 0 171 50t71 133v106zM678 498v20q0 227 -199 227q-156 0 -248 -122l-88 79q121 164 346 164q147 0 239 -88t93 -258v-520h-143l6 127q-96 -143 -281 -143q-141 0 -226 66t-85 191t90 191t232 66h264z" />
    <glyph glyph-name="aring" unicode="&#xe5;" horiz-adv-x="964" 
d="M477 1081q47 0 78 32t31 84t-30 83t-79 31t-79 -31t-30 -83t32 -84q30 -32 77 -32zM477 991q-90 1 -152 61q-63 60 -63 145t62 145t153 60t153 -60t62 -145t-62 -145t-153 -61zM678 389h-254q-193 0 -193 -141q0 -147 205 -148q100 0 171 50t71 133v106zM678 498v20
q0 227 -199 227q-156 0 -248 -122l-88 79q121 164 346 164q147 0 239 -88t93 -258v-520h-143l6 127q-96 -143 -281 -143q-141 0 -226 66t-85 191t90 191t232 66h264z" />
    <glyph glyph-name="ae" unicode="&#xe6;" horiz-adv-x="1636" 
d="M678 385h-254q-193 0 -193 -139q0 -145 205 -146q100 0 171 50t71 133v102zM823 492h574q-10 110 -82 182t-194 72t-201 -71q-79 -70 -97 -183zM678 492v24q0 229 -199 229q-156 0 -248 -122l-88 79q121 164 340 164t287 -192q55 86 145 139t199 53q201 0 318 -136
t110 -345h-723q12 -125 95 -203t235 -78t256 113l86 -86q-131 -147 -354 -147q-258 0 -373 198q-33 -96 -128 -147q-96 -51 -230 -51t-224 64t-90 191q0 126 90 189t232 64h264z" />
    <glyph glyph-name="ccedilla" unicode="&#xe7;" horiz-adv-x="956" 
d="M550 866q198 0 322 -151l-102 -84q-82 109 -223 109t-221 -90q-80 -89 -80 -226t80 -226t222 -89t234 110l99 -84q-125 -152 -338 -151v-93q70 -10 119 -59t49 -129q-1 -80 -59 -129t-138 -49q-145 0 -207 121l88 51q17 -27 27 -40q29 -36 76 -36q48 0 74 25q26 26 26 68
t-28 69t-81 27h-45v184q-154 30 -250 150t-96 293t127 301t325 128z" />
    <glyph glyph-name="egrave" unicode="&#xe8;" horiz-adv-x="1056" 
d="M473 1020l-190 395h163l140 -395h-113zM244 485h575q-10 115 -83 188q-74 73 -196 73t-201 -72q-79 -70 -95 -189zM572 104q152 0 253 113l88 -86q-131 -147 -346 -147t-342 126t-127 313t126 315t320 128t310 -138t109 -351h-721q14 -125 96 -199t234 -74z" />
    <glyph glyph-name="eacute" unicode="&#xe9;" horiz-adv-x="1056" 
d="M244 485h575q-10 115 -83 188q-74 73 -196 73t-201 -72q-79 -70 -95 -189zM572 104q152 0 253 113l88 -86q-131 -147 -346 -147t-342 126t-127 313t126 315t320 128t310 -138t109 -351h-721q14 -125 96 -199t234 -74zM475 1020l139 395h164l-190 -395h-113z" />
    <glyph glyph-name="ecircumflex" unicode="&#xea;" horiz-adv-x="1056" 
d="M244 485h575q-10 115 -83 188q-74 73 -196 73t-201 -72q-79 -70 -95 -189zM572 104q152 0 253 113l88 -86q-131 -147 -346 -147t-342 126t-127 313t126 315t320 128t310 -138t109 -351h-721q14 -125 96 -199t234 -74zM258 1030l262 395h19l262 -395h-119l-152 207
l-153 -207h-119z" />
    <glyph glyph-name="edieresis" unicode="&#xeb;" horiz-adv-x="1056" 
d="M244 485h575q-10 115 -83 188q-74 73 -196 73t-201 -72q-79 -70 -95 -189zM572 104q152 0 253 113l88 -86q-131 -147 -346 -147t-342 126t-127 313t126 315t320 128t310 -138t109 -351h-721q14 -125 96 -199t234 -74zM356 1100q-38 0 -66 28t-28 66q0 39 29 67
q29 27 65 27t66 -28q29 -28 29 -66t-29 -66t-66 -28zM705 1100q-37 0 -66 28t-29 66q0 39 29 67q29 27 66 27t65 -28t29 -66q-1 -38 -29 -66t-65 -28z" />
    <glyph glyph-name="igrave" unicode="&#xec;" horiz-adv-x="454" 
d="M170 1020l-190 395h163l140 -395h-113zM156 0v848h143v-848h-143z" />
    <glyph glyph-name="iacute" unicode="&#xed;" horiz-adv-x="454" 
d="M156 0v848h143v-848h-143zM172 1020l139 395h164l-190 -395h-113z" />
    <glyph glyph-name="icircumflex" unicode="&#xee;" horiz-adv-x="454" 
d="M156 0v848h143v-848h-143zM-43 1030l262 395h19l262 -395h-119l-152 207l-153 -207h-119z" />
    <glyph glyph-name="idieresis" unicode="&#xef;" horiz-adv-x="454" 
d="M72 1100q-37 0 -66 28t-29 66q0 39 29 67q29 27 66 27q38 0 66 -28t28 -66t-28 -66t-66 -28zM383 1100q-37 0 -66 28t-28 66q0 39 28 67q29 27 66 27t66 -28t29 -66q0 -39 -29 -67q-29 -27 -66 -27zM156 0v848h143v-848h-143z" />
    <glyph glyph-name="eth" unicode="&#xf0;" horiz-adv-x="1093" 
d="M244 424q0 -138 85 -228t219 -90t218 92t84 231q0 138 -84 225t-218 87t-219 -90t-85 -227zM995 465q0 -211 -128 -346t-318 -135t-321 127q-130 127 -130 313t128 314t305 128t278 -133q-60 224 -244 445l-137 -134l-72 72l144 139q-82 94 -172 168l80 88
q90 -72 182 -165l137 135l76 -74l-144 -137q336 -391 336 -805z" />
    <glyph glyph-name="ntilde" unicode="&#xf1;" horiz-adv-x="1056" 
d="M398 1278q70 0 130 -52q58 -52 75 -61q17 -10 40 -10q61 0 74 119l106 -10q-6 -109 -52 -167q-47 -59 -117 -59t-148 68q-40 37 -58 47t-40 10q-64 0 -76 -121l-107 9q7 109 55 168t118 59zM152 0v848h143l-4 -174q41 90 122 141t183 51q143 0 230 -93t87 -257v-516h-143
v500q0 236 -211 235q-119 1 -191 -71t-73 -197v-467h-143z" />
    <glyph glyph-name="ograve" unicode="&#xf2;" horiz-adv-x="1093" 
d="M487 1020l-190 395h164l139 -395h-113zM244 424q0 -138 85 -228t219 -90t218 90t84 228q0 137 -84 227t-218 90t-219 -90t-85 -227zM548 -16q-189 0 -320 127q-130 127 -130 313t130 314t320 128t318 -128q129 -128 129 -314t-129 -313t-318 -127z" />
    <glyph glyph-name="oacute" unicode="&#xf3;" horiz-adv-x="1093" 
d="M244 424q0 -138 85 -228t219 -90t218 90t84 228q0 137 -84 227t-218 90t-219 -90t-85 -227zM548 -16q-189 0 -320 127q-130 127 -130 313t130 314t320 128t318 -128q129 -128 129 -314t-129 -313t-318 -127zM489 1020l140 395h164l-191 -395h-113z" />
    <glyph glyph-name="ocircumflex" unicode="&#xf4;" horiz-adv-x="1093" 
d="M244 424q0 -138 85 -228t219 -90t218 90t84 228q0 137 -84 227t-218 90t-219 -90t-85 -227zM548 -16q-189 0 -320 127q-130 127 -130 313t130 314t320 128t318 -128q129 -128 129 -314t-129 -313t-318 -127zM272 1030l263 395h18l262 -395h-119l-151 207l-154 -207h-119z
" />
    <glyph glyph-name="otilde" unicode="&#xf5;" horiz-adv-x="1093" 
d="M419 1278q71 0 146 -66q41 -37 59 -47t40 -10q61 0 73 119l107 -10q-6 -109 -52 -167q-46 -59 -116 -59t-150 68q-41 37 -58 47t-40 10q-64 0 -76 -121l-106 9q6 109 54 168t119 59zM244 424q0 -138 85 -228t219 -90t218 90t84 228q0 137 -84 227t-218 90t-219 -90
t-85 -227zM548 -16q-189 0 -320 127q-130 127 -130 313t130 314t320 128t318 -128q129 -128 129 -314t-129 -313t-318 -127z" />
    <glyph glyph-name="odieresis" unicode="&#xf6;" horiz-adv-x="1093" 
d="M244 424q0 -138 85 -228t219 -90t218 90t84 228q0 137 -84 227t-218 90t-219 -90t-85 -227zM548 -16q-189 0 -320 127q-130 127 -130 313t130 314t320 128t318 -128q129 -128 129 -314t-129 -313t-318 -127zM371 1100q-37 0 -66 28t-29 66q0 39 29 67q29 27 66 27t65 -28
t29 -66q-1 -38 -29 -66t-65 -28zM719 1100q-37 0 -66 28t-28 66q0 39 28 67q29 27 66 27t65 -28t29 -66q-1 -38 -29 -66t-65 -28z" />
    <glyph glyph-name="divide" unicode="&#xf7;" horiz-adv-x="763" 
d="M382 117q-42 -1 -74 31t-32 76t31 74t74 30t75 -30t32 -75t-32 -76q-32 -30 -74 -30zM381 702q-43 0 -74 31t-31 76t31 75t74 30t75 -30t32 -75t-32 -76t-75 -31zM684 453h-604v127h604v-127z" />
    <glyph glyph-name="oslash" unicode="&#xf8;" horiz-adv-x="1093" 
d="M559 104q125 0 210 90t85 230q0 100 -43 172l-461 -424q84 -68 209 -68zM240 424q0 -92 43 -174l460 426q-79 68 -205 68t-212 -91q-86 -90 -86 -229zM995 424q0 -186 -129 -313t-306 -127t-302 102l-119 -111l-71 76l118 109q-88 117 -88 264q0 186 130 314t308 128
t300 -102l116 106l72 -75l-115 -107q86 -119 86 -264z" />
    <glyph glyph-name="ugrave" unicode="&#xf9;" horiz-adv-x="1054" 
d="M467 1020l-191 395h164l140 -395h-113zM461 -18q-143 0 -231 93q-87 93 -87 253v520h144v-506q0 -229 209 -229q120 1 192 73t72 195v467h143v-848h-143l4 172q-41 -90 -121 -140t-182 -50z" />
    <glyph glyph-name="uacute" unicode="&#xfa;" horiz-adv-x="1054" 
d="M461 -18q-143 0 -231 93q-87 93 -87 253v520h144v-506q0 -229 209 -229q120 1 192 73t72 195v467h143v-848h-143l4 172q-41 -90 -121 -140t-182 -50zM467 1020l139 395h164l-190 -395h-113z" />
    <glyph glyph-name="ucircumflex" unicode="&#xfb;" horiz-adv-x="1054" 
d="M461 -18q-143 0 -231 93q-87 93 -87 253v520h144v-506q0 -229 209 -229q120 1 192 73t72 195v467h143v-848h-143l4 172q-41 -90 -121 -140t-182 -50zM252 1030l262 395h18l263 -395h-119l-152 207l-153 -207h-119z" />
    <glyph glyph-name="udieresis" unicode="&#xfc;" horiz-adv-x="1054" 
d="M461 -18q-143 0 -231 93q-87 93 -87 253v520h144v-506q0 -229 209 -229q120 1 192 73t72 195v467h143v-848h-143l4 172q-41 -90 -121 -140t-182 -50zM350 1100q-38 0 -66 28t-28 66q0 39 29 67q29 27 65 27t66 -28q28 -28 28 -66q0 -39 -28 -67q-29 -27 -66 -27z
M698 1100q-38 0 -66 28t-28 66q0 39 29 67q29 27 65 27t66 -28q29 -28 29 -66t-29 -66t-66 -28z" />
    <glyph glyph-name="yacute" unicode="&#xfd;" horiz-adv-x="946" 
d="M432 1020l139 395h164l-190 -395h-113zM195 -434l217 506l-361 776h158l240 -526q8 -20 38 -142q14 88 39 142l222 526h147l-553 -1282h-147z" />
    <glyph glyph-name="thorn" unicode="&#xfe;" horiz-adv-x="1130" 
d="M591 109q134 0 214 89t80 227t-80 226t-214 88t-217 -88t-83 -226t83 -227t217 -89zM156 -434v1913h143v-805q102 193 328 192q173 0 289 -126t116 -315t-117 -315t-290 -126q-111 0 -197 53t-129 139v-610h-143z" />
    <glyph glyph-name="ydieresis" unicode="&#xff;" horiz-adv-x="946" 
d="M662 1100q-37 0 -66 28t-29 66q0 39 29 67q29 27 66 27q38 0 66 -28t28 -66t-28 -66t-66 -28zM313 1100q-37 0 -65 28t-29 66q0 39 29 67q30 27 66 27t65 -28t29 -66t-29 -66t-66 -28zM195 -434l217 506l-361 776h158l240 -526q8 -20 38 -142q14 88 39 142l222 526h147
l-553 -1282h-147z" />
    <glyph glyph-name="Amacron" unicode="&#x100;" horiz-adv-x="1341" 
d="M430 1573v113h471v-113h-471zM76 0l577 1407h25l590 -1407h-156l-127 313h-639l-125 -313h-145zM397 440h537l-215 533q-28 68 -41 116q-12 48 -12 50l-9 -29q-28 -93 -47 -135z" />
    <glyph glyph-name="amacron" unicode="&#x101;" horiz-adv-x="964" 
d="M242 1104v113h471v-113h-471zM678 389h-254q-193 0 -193 -141q0 -147 205 -148q100 0 171 50t71 133v106zM678 498v20q0 227 -199 227q-156 0 -248 -122l-88 79q121 164 346 164q147 0 239 -88t93 -258v-520h-143l6 127q-96 -143 -281 -143q-141 0 -226 66t-85 191
t90 191t232 66h264z" />
    <glyph glyph-name="Abreve" unicode="&#x102;" horiz-adv-x="1341" 
d="M666 1536q-115 0 -184 66t-85 174l115 18q33 -145 154 -145t153 145l115 -18q-16 -108 -84 -174t-184 -66zM76 0l577 1407h25l590 -1407h-156l-127 313h-639l-125 -313h-145zM397 440h537l-215 533q-28 68 -41 116q-12 48 -12 50l-9 -29q-28 -93 -47 -135z" />
    <glyph glyph-name="abreve" unicode="&#x103;" horiz-adv-x="964" 
d="M477 1022q-115 0 -183 66t-85 174l115 18q34 -145 154 -145t153 145l114 -18q-17 -108 -85 -174t-183 -66zM678 389h-254q-193 0 -193 -141q0 -147 205 -148q100 0 171 50t71 133v106zM678 498v20q0 227 -199 227q-156 0 -248 -122l-88 79q121 164 346 164q147 0 239 -88
t93 -258v-520h-143l6 127q-96 -143 -281 -143q-141 0 -226 66t-85 191t90 191t232 66h264z" />
    <glyph glyph-name="Aogonek" unicode="&#x104;" horiz-adv-x="1341" 
d="M395 440h539l-215 533q-28 68 -41 116q-12 48 -12 50l-9 -29q-28 -93 -47 -135zM1192 -475q-80 0 -135 47t-55 131t85 209l37 53l-139 348h-639l-125 -313h-145l577 1407h25l584 -1397l-78 -127q-70 -111 -70 -164t25 -75t61 -23q61 0 109 74l84 -49q-62 -121 -201 -121z
" />
    <glyph glyph-name="aogonek" unicode="&#x105;" horiz-adv-x="964" 
d="M678 389h-254q-193 0 -193 -141q0 -147 205 -148q100 0 171 50t71 133v106zM666 -278q0 -98 79 -97q61 0 105 72l90 -51q-61 -121 -201 -121q-80 0 -135 47t-55 137t84 203l43 57l8 158q-96 -143 -281 -143q-141 0 -226 66t-85 191t90 191t232 66h264v20q0 227 -199 227
q-156 0 -248 -122l-88 79q121 164 346 164q147 0 239 -88t93 -258v-489l-92 -152q-63 -103 -63 -157z" />
    <glyph glyph-name="Cacute" unicode="&#x106;" horiz-adv-x="1486" 
d="M825 -16q-301 0 -508 200t-206 512q0 311 206 512q207 201 508 201q373 0 553 -270l-112 -82q-147 219 -441 219q-245 0 -403 -165t-158 -415t159 -414t402 -165q297 0 459 233l115 -80q-94 -138 -242 -212t-332 -74zM743 1534l140 395h164l-191 -395h-113z" />
    <glyph glyph-name="cacute" unicode="&#x107;" horiz-adv-x="956" 
d="M554 -16q-202 0 -329 127t-127 313t127 314t325 128t322 -151l-102 -84q-82 109 -223 109t-221 -90q-80 -89 -80 -226t80 -226t222 -89t234 110l99 -84q-125 -151 -327 -151zM463 1020l139 395h164l-191 -395h-112z" />
    <glyph glyph-name="Ccircumflex" unicode="&#x108;" horiz-adv-x="1486" 
d="M825 -16q-301 0 -508 200t-206 512q0 311 206 512q207 201 508 201q373 0 553 -270l-112 -82q-147 219 -441 219q-245 0 -403 -165t-158 -415t159 -414t402 -165q297 0 459 233l115 -80q-94 -138 -242 -212t-332 -74zM526 1544l262 395h19l262 -395h-119l-151 207
l-154 -207h-119z" />
    <glyph glyph-name="ccircumflex" unicode="&#x109;" horiz-adv-x="956" 
d="M554 -16q-202 0 -329 127t-127 313t127 314t325 128t322 -151l-102 -84q-82 109 -223 109t-221 -90q-80 -89 -80 -226t80 -226t222 -89t234 110l99 -84q-125 -151 -327 -151zM248 1030l262 395h18l263 -395h-119l-152 207l-153 -207h-119z" />
    <glyph glyph-name="Cdotaccent" unicode="&#x10a;" horiz-adv-x="1486" 
d="M799 1548q-41 0 -72 29t-31 72t31 73t72 29q41 0 71 -30q30 -31 31 -73q-1 -42 -31 -71t-71 -29zM825 -16q-301 0 -508 200t-206 512q0 311 206 512q207 201 508 201q373 0 553 -270l-112 -82q-147 219 -441 219q-245 0 -403 -165t-158 -415t159 -414t402 -165
q297 0 459 233l115 -80q-94 -138 -242 -212t-332 -74z" />
    <glyph glyph-name="cdotaccent" unicode="&#x10b;" horiz-adv-x="958" 
d="M520 1094q-42 0 -72 28t-30 72q0 43 31 73q31 29 71 29t72 -30q31 -30 31 -72q0 -44 -31 -72t-72 -28zM554 -16q-202 0 -329 127t-127 313t127 314t325 128t322 -151l-102 -84q-82 109 -223 109t-221 -90q-80 -89 -80 -226t80 -226t222 -89t234 110l99 -84
q-125 -151 -327 -151z" />
    <glyph glyph-name="Ccaron" unicode="&#x10c;" horiz-adv-x="1486" 
d="M825 -16q-301 0 -508 200t-206 512q0 311 206 512q207 201 508 201q373 0 553 -270l-112 -82q-147 219 -441 219q-245 0 -403 -165t-158 -415t159 -414t402 -165q297 0 459 233l115 -80q-94 -138 -242 -212t-332 -74zM788 1516l-262 393h119l152 -207l153 207h119
l-262 -393h-19z" />
    <glyph glyph-name="ccaron" unicode="&#x10d;" horiz-adv-x="958" 
d="M554 -16q-202 0 -329 127t-127 313t127 314t325 128t322 -151l-102 -84q-82 109 -223 109t-221 -90q-80 -89 -80 -226t80 -226t222 -89t234 110l99 -84q-125 -151 -327 -151zM510 1014l-262 393h119l151 -207l154 207h119l-263 -393h-18z" />
    <glyph glyph-name="Dcaron" unicode="&#x10e;" horiz-adv-x="1392" 
d="M338 133h180q299 0 454 153q154 152 154 410t-154 411q-155 153 -454 153h-180v-1127zM190 0v1393h338q348 1 551 -189t203 -508t-203 -506q-203 -190 -551 -190h-338zM618 1516l-262 393h119l152 -207l153 207h119l-262 -393h-19z" />
    <glyph glyph-name="dcaron" unicode="&#x10f;" horiz-adv-x="1310" 
d="M540 109q134 0 217 89t83 227t-83 226t-217 88t-214 -88t-80 -226t80 -227t214 -89zM510 -16q-174 0 -293 126t-119 315t119 315t291 126q221 0 326 -192v805h141v-1479h-141l4 182q-45 -90 -131 -144t-197 -54zM1233 1407q43 0 76 -32t33 -67t-27 -91l-115 -230h-76
l70 213q-29 10 -48 37q-20 27 -20 67t32 71q32 32 75 32z" />
    <glyph glyph-name="Dcroat" unicode="&#x110;" horiz-adv-x="1392" 
d="M338 133h197q289 0 441 153q152 152 150 410q0 258 -151 411q-152 153 -440 153h-197v-498h375v-129h-375v-500zM190 0v633h-161v129h161v631h355q337 0 537 -193t200 -504q0 -312 -200 -504t-537 -192h-355z" />
    <glyph glyph-name="dcroat" unicode="&#x111;" horiz-adv-x="1128" 
d="M540 109q134 0 217 89t83 227t-83 226t-217 88t-214 -88t-80 -226t80 -227t214 -89zM834 1079h-295v121h295v279h141v-279h158v-121h-158v-1079h-141l4 182q-45 -90 -133 -144t-199 -54q-174 0 -291 126t-117 315t117 315t289 126q225 0 330 -192v405z" />
    <glyph glyph-name="Emacron" unicode="&#x112;" horiz-adv-x="1187" 
d="M395 1573v113h471v-113h-471zM190 0v1393h848v-131h-700v-498h625v-129h-625v-504h729v-131h-877z" />
    <glyph glyph-name="emacron" unicode="&#x113;" horiz-adv-x="1056" 
d="M295 1104v113h471v-113h-471zM244 485h575q-10 115 -83 188q-74 73 -196 73t-201 -72q-79 -70 -95 -189zM572 104q152 0 253 113l88 -86q-131 -147 -346 -147t-342 126t-127 313t126 315t320 128t310 -138t109 -351h-721q14 -125 96 -199t234 -74z" />
    <glyph glyph-name="Edotaccent" unicode="&#x116;" horiz-adv-x="1187" 
d="M631 1548q-41 0 -72 29t-31 72t31 73t72 29q41 0 71 -30q30 -31 31 -73q-1 -42 -31 -71t-71 -29zM190 0v1393h848v-131h-700v-498h625v-129h-625v-504h729v-131h-877z" />
    <glyph glyph-name="edotaccent" unicode="&#x117;" horiz-adv-x="1056" 
d="M530 1094q-42 0 -72 28t-30 72q0 43 31 73q31 29 71 29t72 -30q31 -30 31 -72q0 -44 -31 -72t-72 -28zM244 485h575q-10 115 -83 188q-74 73 -196 73t-201 -72q-79 -70 -95 -189zM572 104q152 0 253 113l88 -86q-131 -147 -346 -147t-342 126t-127 313t126 315t320 128
t310 -138t109 -351h-721q14 -125 96 -199t234 -74z" />
    <glyph glyph-name="Eogonek" unicode="&#x118;" horiz-adv-x="1187" 
d="M883 -475q-80 0 -134 47q-55 47 -55 137t84 203l66 88h-654v1393h848v-131h-700v-498h625v-129h-625v-504h729v-131h-119l-74 -117q-41 -63 -55 -97t-14 -77q1 -43 25 -65t61 -23q61 0 108 74l84 -49q-61 -121 -200 -121z" />
    <glyph glyph-name="eogonek" unicode="&#x119;" horiz-adv-x="1056" 
d="M244 485h575q-10 115 -83 188q-72 73 -196 73t-202 -72t-94 -189zM690 -475q-82 0 -138 47t-56 138t100 218l49 64q-39 -8 -88 -8q-205 0 -332 126t-127 313t126 315t320 128t310 -138t109 -351h-719q10 -121 93 -197t235 -76t253 113l88 -86q-10 -12 -97 -92
q-87 -79 -132 -149t-59 -104q-15 -34 -15 -77t26 -65t62 -23q59 0 107 74l86 -49q-62 -121 -201 -121z" />
    <glyph glyph-name="Ecaron" unicode="&#x11a;" horiz-adv-x="1187" 
d="M190 0v1393h848v-131h-700v-498h625v-129h-625v-504h729v-131h-877zM621 1516l-263 393h119l152 -207l153 207h119l-262 -393h-18z" />
    <glyph glyph-name="ecaron" unicode="&#x11b;" horiz-adv-x="1056" 
d="M244 485h575q-10 115 -83 188q-74 73 -196 73t-201 -72q-79 -70 -95 -189zM572 104q152 0 253 113l88 -86q-131 -147 -346 -147t-342 126t-127 313t126 315t320 128t310 -138t109 -351h-721q14 -125 96 -199t234 -74zM520 1014l-262 393h119l151 -207l154 207h119
l-262 -393h-19z" />
    <glyph glyph-name="Gcircumflex" unicode="&#x11c;" horiz-adv-x="1521" 
d="M840 -16q-313 0 -522 199q-208 200 -208 512t205 513t517 201t481 -180l-101 -101q-141 148 -386 148q-246 0 -404 -165t-158 -415t162 -414t415 -165q253 0 410 127v293h-413v131h553v-492q-197 -192 -551 -192zM510 1544l262 395h19l262 -395h-119l-152 207l-153 -207
h-119z" />
    <glyph glyph-name="gcircumflex" unicode="&#x11d;" horiz-adv-x="1130" 
d="M540 109q134 0 217 89t83 227t-83 226t-217 88t-214 -88t-80 -226t80 -227t214 -89zM549 -457q-293 0 -430 236l106 74q113 -186 320 -187q289 0 289 318v192q-43 -86 -128 -139t-196 -53q-174 0 -293 126t-119 315t119 315t291 126q227 0 330 -200l-4 182h143v-875
q-1 -217 -115 -323t-313 -107zM283 1030l262 395h18l262 -395h-118l-152 207l-154 -207h-118z" />
    <glyph glyph-name="Gbreve" unicode="&#x11e;" horiz-adv-x="1521" 
d="M780 1536q-116 0 -184 66t-84 174l115 18q33 -145 153 -145t154 145l115 -18q-16 -108 -85 -174t-184 -66zM840 -16q-313 0 -522 199q-208 200 -208 512t205 513t517 201t481 -180l-101 -101q-141 148 -386 148q-246 0 -404 -165t-158 -415t162 -414t415 -165
q253 0 410 127v293h-413v131h553v-492q-197 -192 -551 -192z" />
    <glyph glyph-name="gbreve" unicode="&#x11f;" horiz-adv-x="1130" 
d="M553 1022q-115 0 -183 66t-85 174l114 18q33 -145 154 -145t154 145l114 -18q-17 -108 -85 -174t-183 -66zM540 109q134 0 217 89t83 227t-83 226t-217 88t-214 -88t-80 -226t80 -227t214 -89zM549 -457q-293 0 -430 236l106 74q113 -186 320 -187q289 0 289 318v192
q-43 -86 -128 -139t-196 -53q-174 0 -293 126t-119 315t119 315t291 126q227 0 330 -200l-4 182h143v-875q-1 -217 -115 -323t-313 -107z" />
    <glyph glyph-name="Gdotaccent" unicode="&#x120;" horiz-adv-x="1521" 
d="M782 1548q-42 0 -72 29t-30 72t31 73t71 29q40 0 72 -30q31 -31 31 -73t-31 -71t-72 -29zM840 -16q-313 0 -522 199q-208 200 -208 512t205 513t517 201t481 -180l-101 -101q-141 148 -386 148q-246 0 -404 -165t-158 -415t162 -414t415 -165q253 0 410 127v293h-413v131
h553v-492q-197 -192 -551 -192z" />
    <glyph glyph-name="gdotaccent" unicode="&#x121;" horiz-adv-x="1128" 
d="M555 1094q-41 0 -72 28t-30 72q0 43 30 73q31 29 72 29t72 -30t31 -72q0 -43 -31 -72q-31 -28 -72 -28zM540 109q134 0 217 89t83 227t-83 226t-217 88t-214 -88t-80 -226t80 -227t214 -89zM549 -457q-293 0 -430 236l106 74q113 -186 320 -187q289 0 289 318v192
q-43 -86 -128 -139t-196 -53q-174 0 -293 126t-119 315t119 315t291 126q227 0 330 -200l-4 182h143v-875q-1 -217 -115 -323t-313 -107z" />
    <glyph glyph-name="Gcommaaccent" unicode="&#x122;" horiz-adv-x="1521" 
d="M840 -16q-313 0 -522 199q-208 200 -208 512t205 513t517 201t481 -180l-101 -101q-141 148 -386 148q-246 0 -404 -165t-158 -415t162 -414t415 -165q253 0 410 127v293h-413v131h553v-492q-197 -192 -551 -192zM680 -221q0 39 32 69t74 31q42 0 73 -31q32 -32 32 -70
t-25 -83l-108 -219h-78l65 202q-27 10 -46 36t-19 65z" />
    <glyph glyph-name="gcommaaccent" unicode="&#x123;" horiz-adv-x="1128" 
d="M540 109q134 0 217 89t83 227t-83 226t-217 88t-214 -88t-80 -226t80 -227t214 -89zM549 -457q-293 0 -430 236l106 74q113 -186 320 -187q289 0 289 318v192q-43 -86 -128 -139t-196 -53q-174 0 -293 126t-119 315t119 315t291 126q227 0 330 -200l-4 182h143v-875
q-1 -217 -115 -323t-313 -107zM657 1178q1 -38 -31 -70q-32 -31 -74 -31t-74 31t-32 70t25 84l109 219h77l-65 -203q27 -10 46 -36t19 -64z" />
    <glyph glyph-name="Hcircumflex" unicode="&#x124;" horiz-adv-x="1419" 
d="M190 0v1393h148v-650h745v650h148v-1393h-148v610h-745v-610h-148zM436 1544l262 395h19l262 -395h-119l-151 207l-154 -207h-119z" />
    <glyph glyph-name="hcircumflex" unicode="&#x125;" horiz-adv-x="1056" 
d="M152 0v1479h143v-797q41 86 120 135t181 49q143 0 230 -93t87 -257v-516h-143v500q0 236 -211 235q-119 1 -191 -71t-73 -197v-467h-143zM252 1577l262 395h18l263 -395h-119l-152 207l-153 -207h-119z" />
    <glyph glyph-name="Hbar" unicode="&#x126;" horiz-adv-x="1419" 
d="M338 743h743v211h-743v-211zM27 954v111h163v328h148v-328h743v328h150v-328h162v-111h-162v-954h-150v610h-743v-610h-148v954h-163z" />
    <glyph glyph-name="hbar" unicode="&#x127;" horiz-adv-x="1056" 
d="M-6 1081v119h158v279h143v-279h293v-119h-293v-399q41 86 120 135t181 49q143 0 230 -93t87 -257v-516h-143v500q0 236 -211 235q-119 1 -191 -71t-73 -197v-467h-143v1081h-158z" />
    <glyph glyph-name="Imacron" unicode="&#x12a;" horiz-adv-x="542" 
d="M49 1575v113h445v-113h-445zM197 0v1393h149v-1393h-149z" />
    <glyph glyph-name="imacron" unicode="&#x12b;" horiz-adv-x="454" 
d="M47 1104v113h361v-113h-361zM156 0v848h143v-848h-143z" />
    <glyph glyph-name="Iogonek" unicode="&#x12e;" horiz-adv-x="542" 
d="M197 1393h149v-1373l-86 -141q-63 -103 -63 -157q0 -98 79 -97q61 0 105 72l90 -51q-61 -121 -201 -121q-80 0 -135 47t-55 137t84 203l33 43v1438z" />
    <glyph glyph-name="iogonek" unicode="&#x12f;" horiz-adv-x="454" 
d="M156 848h143v-823l-88 -146q-63 -103 -63 -157q-1 -98 79 -97q61 0 105 72l90 -51q-61 -121 -201 -121q-80 0 -135 47t-55 137t84 203l41 55v881zM227 1094q-41 0 -71 28t-31 72q0 43 31 73q32 29 72 29t71 -30t31 -72q0 -44 -31 -72t-72 -28z" />
    <glyph glyph-name="Idotaccent" unicode="&#x130;" horiz-adv-x="542" 
d="M272 1548q-42 0 -72 29t-30 72t31 73t71 29q40 0 72 -30q31 -31 31 -73t-31 -71t-72 -29zM197 0v1393h149v-1393h-149z" />
    <glyph glyph-name="dotlessi" unicode="&#x131;" horiz-adv-x="454" 
d="M156 0v848h143v-848h-143z" />
    <glyph glyph-name="Jcircumflex" unicode="&#x134;" horiz-adv-x="989" 
d="M428 -16q-248 0 -360 209l120 75q88 -152 234 -151q106 0 168 62q61 62 61 192v1022h150v-1026q-1 -187 -103 -285t-270 -98zM451 1544l262 395h18l262 -395h-119l-151 207l-154 -207h-118z" />
    <glyph glyph-name="jcircumflex" unicode="&#x135;" horiz-adv-x="454" 
d="M-45 1030l262 395h19l262 -395h-119l-152 207l-153 -207h-119zM299 -201q1 -123 -61 -189t-174 -65q-112 0 -181 84l76 86q51 -47 102 -47q94 0 95 129v1051h143v-1049z" />
    <glyph glyph-name="Kcommaaccent" unicode="&#x136;" horiz-adv-x="1241" 
d="M190 0v1393h148v-625q0 -74 -10 -182q45 92 96 157l532 650h168l-506 -623l564 -770h-181l-479 662l-184 -220v-442h-148zM535 -221q-1 39 31 69t74 31q42 0 74 -31q58 -57 7 -153l-109 -219h-77l65 202q-27 10 -46 36t-19 65z" />
    <glyph glyph-name="kcommaaccent" unicode="&#x137;" horiz-adv-x="948" 
d="M295 0h-143v1479h143v-949q0 -63 -10 -120l403 438h166l-326 -356l377 -492h-170l-307 397l-133 -139v-258zM385 -221q0 39 32 69q31 30 73 31q42 0 74 -31q32 -32 32 -70t-25 -83l-108 -219h-78l66 202q-66 24 -66 101z" />
    <glyph glyph-name="Lacute" unicode="&#x139;" horiz-adv-x="1079" 
d="M190 0v1393h148v-1262h657v-131h-805zM209 1534l139 395h164l-190 -395h-113z" />
    <glyph glyph-name="lacute" unicode="&#x13a;" horiz-adv-x="466" 
d="M162 0v1479h143v-1479h-143zM178 1567l139 395h164l-190 -395h-113z" />
    <glyph glyph-name="Lcommaaccent" unicode="&#x13b;" horiz-adv-x="1081" 
d="M190 0v1393h148v-1262h657v-131h-805zM587 -121q41 0 73 -31q32 -32 32 -70t-24 -83l-109 -219h-78l66 202q-27 10 -46 36t-19 65t31 69q32 30 74 31z" />
    <glyph glyph-name="lcommaaccent" unicode="&#x13c;" horiz-adv-x="466" 
d="M162 0v1479h143v-1479h-143zM239 -121q41 0 73 -31q32 -32 32 -70t-25 -83l-108 -219h-78l66 202q-27 10 -46 36t-19 65t31 69q32 30 74 31z" />
    <glyph glyph-name="Lcaron" unicode="&#x13d;" horiz-adv-x="1081" 
d="M190 0v1393h148v-1262h657v-131h-805zM635 1304q0 40 32 71q33 32 75 32t75 -32t33 -67t-27 -91l-114 -230h-76l69 213q-29 10 -48 37t-19 67z" />
    <glyph glyph-name="lcaron" unicode="&#x13e;" horiz-adv-x="647" 
d="M162 0v1479h143v-1479h-143zM461 1304q0 40 32 71q33 32 75 32t75 -32t33 -67t-27 -91l-114 -230h-76l69 213q-29 10 -48 37t-19 67z" />
    <glyph glyph-name="Lslash" unicode="&#x141;" horiz-adv-x="1087" 
d="M197 0v516l-154 -59v135l154 59v742h149v-688l408 159v-133l-408 -160v-440h658v-131h-807z" />
    <glyph glyph-name="lslash" unicode="&#x142;" horiz-adv-x="548" 
d="M203 0v549l-174 -105v142l174 106v787h143v-705l180 111v-144l-180 -108v-633h-143z" />
    <glyph glyph-name="Nacute" unicode="&#x143;" horiz-adv-x="1460" 
d="M678 1534l139 395h164l-190 -395h-113zM330 0h-140v1407h25l832 -983q21 -28 46 -62t37 -50t13 -17l-2 29q-2 26 -5 64t-3 65v940h137v-1407h-25l-831 983q-68 78 -97 127l13 -156v-940z" />
    <glyph glyph-name="nacute" unicode="&#x144;" horiz-adv-x="1056" 
d="M152 0v848h143l-4 -174q41 90 122 141t183 51q143 0 230 -93t87 -257v-516h-143v500q0 236 -211 235q-119 1 -191 -71t-73 -197v-467h-143zM469 1020l139 395h164l-190 -395h-113z" />
    <glyph glyph-name="Ncommaaccent" unicode="&#x145;" horiz-adv-x="1460" 
d="M633 -221q0 39 32 69q31 30 73 31q42 0 74 -31q32 -32 32 -70t-25 -83l-108 -219h-78l65 202q-27 10 -46 36t-19 65zM330 0h-140v1407h25l832 -983q21 -28 46 -62t37 -50t13 -17l-2 29q-2 26 -5 64t-3 65v940h137v-1407h-25l-831 983q-68 78 -97 127l13 -156v-940z" />
    <glyph glyph-name="ncommaaccent" unicode="&#x146;" horiz-adv-x="1056" 
d="M152 0v848h143l-4 -174q41 90 122 141t183 51q143 0 230 -93t87 -257v-516h-143v500q0 236 -211 235q-119 1 -191 -71t-73 -197v-467h-143zM424 -221q0 39 32 69t74 31q42 0 73 -31q32 -32 32 -70t-25 -83l-108 -219h-78l65 202q-27 10 -46 36t-19 65z" />
    <glyph glyph-name="Ncaron" unicode="&#x147;" horiz-adv-x="1460" 
d="M725 1516l-262 393h119l151 -207l154 207h119l-263 -393h-18zM330 0h-140v1407h25l832 -983q21 -28 46 -62t37 -50t13 -17l-2 29q-2 26 -5 64t-3 65v940h137v-1407h-25l-831 983q-68 78 -97 127l13 -156v-940z" />
    <glyph glyph-name="ncaron" unicode="&#x148;" horiz-adv-x="1056" 
d="M152 0v848h143l-4 -174q41 90 122 141t183 51q143 0 230 -93t87 -257v-516h-143v500q0 236 -211 235q-119 1 -191 -71t-73 -197v-467h-143zM516 1014l-262 393h119l151 -207l154 207h119l-262 -393h-19z" />
    <glyph glyph-name="Omacron" unicode="&#x14c;" horiz-adv-x="1652" 
d="M264 696q0 -250 160 -414t402 -165q243 0 403 165q160 164 160 414t-160 415t-403 165q-242 0 -402 -165t-160 -415zM1542 696q0 -312 -207 -512t-509 -200t-509 200t-206 512q0 311 206 512q207 201 509 201t509 -201t207 -512zM590 1573v113h471v-113h-471z" />
    <glyph glyph-name="omacron" unicode="&#x14d;" horiz-adv-x="1093" 
d="M244 424q0 -138 85 -228t219 -90t218 90t84 228q0 137 -84 227t-218 90t-219 -90t-85 -227zM548 -16q-189 0 -320 127q-130 127 -130 313t130 314t320 128t318 -128q129 -128 129 -314t-129 -313t-318 -127zM309 1104v113h471v-113h-471z" />
    <glyph glyph-name="Ohungarumlaut" unicode="&#x150;" horiz-adv-x="1652" 
d="M264 696q0 -250 160 -414t402 -165q243 0 403 165q160 164 160 414t-160 415t-403 165q-242 0 -402 -165t-160 -415zM1542 696q0 -312 -207 -512t-509 -200t-509 200t-206 512q0 311 206 512q207 201 509 201t509 -201t207 -512zM629 1563l137 395h156l-181 -395h-112z
M911 1563l140 395h155l-182 -395h-113z" />
    <glyph glyph-name="ohungarumlaut" unicode="&#x151;" horiz-adv-x="1091" 
d="M244 424q0 -138 85 -228t219 -90t218 90t84 228q0 137 -84 227t-218 90t-219 -90t-85 -227zM548 -16q-189 0 -320 127q-130 127 -130 313t130 314t320 128t318 -128q129 -128 129 -314t-129 -313t-318 -127zM348 1034l137 396h156l-180 -396h-113zM631 1034l139 396h156
l-183 -396h-112z" />
    <glyph glyph-name="OE" unicode="&#x152;" horiz-adv-x="2021" 
d="M856 133h170v1127h-170q-288 0 -440 -153t-152 -411t152 -410t440 -153zM844 0q-336 0 -535 193t-199 505t198 503t536 192h1028v-131h-698v-498h622v-129h-622v-504h727v-131h-1057z" />
    <glyph glyph-name="oe" unicode="&#x153;" horiz-adv-x="1804" 
d="M244 424q0 -138 85 -228t219 -90t218 90t84 228q0 137 -84 227t-218 90t-219 -90t-85 -227zM989 485h576q-10 115 -83 188t-196 73t-202 -72q-79 -70 -95 -189zM1318 104q153 0 253 113l88 -86q-131 -147 -354 -147q-139 0 -239 63q-99 63 -146 172q-48 -106 -146 -171
t-225 -64q-190 0 -321 127q-130 127 -130 313t130 314t321 128q129 0 226 -64t145 -173q45 109 141 173t221 64q202 0 318 -138t108 -351h-721q14 -125 96 -199t235 -74z" />
    <glyph glyph-name="Racute" unicode="&#x154;" horiz-adv-x="1243" 
d="M338 674h262q350 0 350 294t-350 294h-262v-588zM190 0v1393h418q228 0 362 -109t134 -317q0 -150 -77 -250t-216 -144l340 -573h-174l-320 549q-20 -2 -65 -2h-254v-547h-148zM551 1534l139 395h164l-190 -395h-113z" />
    <glyph glyph-name="racute" unicode="&#x155;" horiz-adv-x="731" 
d="M152 0v848h143l-4 -166q76 182 248 182q88 0 147 -41l-55 -125q-47 33 -130 33t-145 -72t-61 -213v-446h-143zM342 1020l139 395h164l-190 -395h-113z" />
    <glyph glyph-name="Rcommaaccent" unicode="&#x156;" horiz-adv-x="1245" 
d="M338 674h262q350 0 350 294t-350 294h-262v-588zM190 0v1393h418q228 0 362 -109t134 -317q0 -150 -77 -250t-216 -144l340 -573h-174l-320 549q-20 -2 -65 -2h-254v-547h-148zM634 -121q42 0 74 -31q58 -57 7 -153l-109 -219h-78l66 202q-27 10 -46 36q-20 26 -20 65
t32 69t74 31z" />
    <glyph glyph-name="rcommaaccent" unicode="&#x157;" horiz-adv-x="731" 
d="M152 0v848h143l-4 -166q76 182 248 182q88 0 147 -41l-55 -125q-47 33 -130 33t-145 -72t-61 -213v-446h-143zM125 -221q0 39 32 69q31 30 73 31q42 0 74 -31q32 -32 32 -70t-25 -83l-108 -219h-78l65 202q-27 10 -46 36t-19 65z" />
    <glyph glyph-name="Rcaron" unicode="&#x158;" horiz-adv-x="1245" 
d="M338 674h262q350 0 350 294t-350 294h-262v-588zM190 0v1393h418q228 0 362 -109t134 -317q0 -150 -77 -250t-216 -144l340 -573h-174l-320 549q-20 -2 -65 -2h-254v-547h-148zM596 1516l-262 393h119l151 -207l154 207h119l-263 -393h-18z" />
    <glyph glyph-name="rcaron" unicode="&#x159;" horiz-adv-x="731" 
d="M152 0v848h143l-4 -166q76 182 248 182q88 0 147 -41l-55 -125q-47 33 -130 33t-145 -72t-61 -213v-446h-143zM389 1014l-262 393h119l151 -207l154 207h119l-262 -393h-19z" />
    <glyph glyph-name="Sacute" unicode="&#x15a;" horiz-adv-x="1087" 
d="M545 -16q-344 0 -486 282l123 66q56 -100 140 -158t214 -59q130 1 212 65t82 168t-62 169q-61 65 -201 126l-110 51q-160 72 -234 157q-73 85 -73 229t103 237q103 92 263 92q252 0 377 -209l-119 -74q-94 152 -258 152q-102 0 -162 -54t-59 -144q0 -90 49 -141
q49 -52 172 -110l111 -51q182 -80 266 -177t84 -258t-121 -260t-311 -99zM469 1534l139 395h164l-190 -395h-113z" />
    <glyph glyph-name="sacute" unicode="&#x15b;" horiz-adv-x="839" 
d="M448 -16q-142 0 -236 55q-93 55 -138 141l110 64q86 -143 246 -144q86 0 133 34t47 95t-46 89t-172 64t-192 90t-67 162q0 108 79 170t200 62q186 0 282 -137l-98 -76q-70 96 -184 97q-68 0 -108 -30t-40 -83t41 -80t166 -61t200 -92t75 -170t-78 -181t-220 -69z
M367 1020l139 395h164l-191 -395h-112z" />
    <glyph glyph-name="Scircumflex" unicode="&#x15c;" horiz-adv-x="1087" 
d="M545 -16q-344 0 -486 282l123 66q56 -100 140 -158t214 -59q130 1 212 65t82 168t-62 169q-61 65 -201 126l-110 51q-160 72 -234 157q-73 85 -73 229t103 237q103 92 263 92q252 0 377 -209l-119 -74q-94 152 -258 152q-102 0 -162 -54t-59 -144q0 -90 49 -141
q49 -52 172 -110l111 -51q182 -80 266 -177t84 -258t-121 -260t-311 -99zM256 1544l262 395h19l262 -395h-119l-152 207l-153 -207h-119z" />
    <glyph glyph-name="scircumflex" unicode="&#x15d;" horiz-adv-x="839" 
d="M448 -16q-142 0 -236 55q-93 55 -138 141l110 64q86 -143 246 -144q86 0 133 34t47 95t-46 89t-172 64t-192 90t-67 162q0 108 79 170t200 62q186 0 282 -137l-98 -76q-70 96 -184 97q-68 0 -108 -30t-40 -83t41 -80t166 -61t200 -92t75 -170t-78 -181t-220 -69z
M152 1030l262 395h18l262 -395h-119l-151 207l-154 -207h-118z" />
    <glyph glyph-name="Scedilla" unicode="&#x15e;" horiz-adv-x="1085" 
d="M545 -475q-147 0 -207 121l82 51q41 -80 117 -80q41 0 69 26q28 25 27 69q0 44 -29 72t-84 28h-43v176q-291 25 -418 278l123 66q56 -100 140 -158t214 -59q130 1 212 65t82 168t-62 169q-61 65 -201 126l-110 51q-160 72 -234 157q-73 85 -73 229t103 237q103 92 263 92
q252 0 377 -209l-119 -74q-94 152 -258 152q-102 0 -162 -54t-59 -144q0 -90 49 -141q49 -52 172 -110l111 -51q182 -80 266 -177t84 -255t-113 -256t-293 -106v-93q72 -10 121 -59t49 -129t-58 -129t-138 -49z" />
    <glyph glyph-name="scedilla" unicode="&#x15f;" horiz-adv-x="839" 
d="M430 -475q-147 0 -207 121l82 51q41 -80 117 -80q40 0 68 26q28 25 28 69t-29 72t-83 28h-44v178q-205 27 -288 190l110 64q86 -143 246 -144q86 0 133 34t47 95t-46 89t-172 64t-192 90t-67 162q0 108 79 170t200 62q186 0 282 -137l-98 -76q-70 96 -184 97
q-68 0 -108 -30t-40 -83t41 -80t166 -61t200 -92t75 -168t-74 -178q-72 -69 -215 -74v-93q72 -10 121 -59t49 -129q-1 -80 -59 -129t-138 -49z" />
    <glyph glyph-name="Scaron" unicode="&#x160;" horiz-adv-x="1085" 
d="M545 -16q-344 0 -486 282l123 66q56 -100 140 -158t214 -59q130 1 212 65t82 168t-62 169q-61 65 -201 126l-110 51q-160 72 -234 157q-73 85 -73 229t103 237q103 92 263 92q252 0 377 -209l-119 -74q-94 152 -258 152q-102 0 -162 -54t-59 -144q0 -90 49 -141
q49 -52 172 -110l111 -51q182 -80 266 -177t84 -258t-121 -260t-311 -99zM518 1516l-262 393h119l151 -207l154 207h119l-262 -393h-19z" />
    <glyph glyph-name="scaron" unicode="&#x161;" horiz-adv-x="839" 
d="M448 -16q-142 0 -236 55q-93 55 -138 141l110 64q86 -143 246 -144q86 0 133 34t47 95t-46 89t-172 64t-192 90t-67 162q0 108 79 170t200 62q186 0 282 -137l-98 -76q-70 96 -184 97q-68 0 -108 -30t-40 -83t41 -80t166 -61t200 -92t75 -170t-78 -181t-220 -69z
M414 1014l-262 393h118l152 -207l153 207h119l-262 -393h-18z" />
    <glyph glyph-name="Tcommaaccent" unicode="&#x162;" horiz-adv-x="1138" 
d="M496 0v1262h-428v131h1003v-131h-428v-1262h-147zM467 -221q0 39 32 69q31 30 73 31q42 0 74 -31q32 -32 32 -70t-25 -83l-108 -219h-78l65 202q-27 10 -46 36t-19 65z" />
    <glyph glyph-name="tcommaaccent" unicode="&#x163;" horiz-adv-x="686" 
d="M438 -18q-236 0 -237 274v471h-131v121h131v291h141v-291h238v-121h-238v-473q0 -147 100 -148q68 0 121 54l70 -97q-81 -81 -195 -81zM283 -221q-1 39 31 69t74 31q42 0 74 -31q32 -32 32 -70t-25 -83l-109 -219h-77l65 202q-27 10 -46 36t-19 65z" />
    <glyph glyph-name="Tcaron" unicode="&#x164;" horiz-adv-x="1138" 
d="M496 0v1262h-428v131h1003v-131h-428v-1262h-147zM559 1516l-262 393h119l151 -207l154 207h119l-262 -393h-19z" />
    <glyph glyph-name="tcaron" unicode="&#x165;" horiz-adv-x="800" 
d="M721 1407q43 0 76 -32q60 -58 6 -158l-113 -230h-78l70 213q-27 10 -47 37q-21 27 -21 67t32 71q32 32 75 32zM438 -18q-236 0 -237 274v471h-131v121h131v291h141v-291h238v-121h-238v-473q0 -147 100 -148q68 0 121 54l70 -97q-81 -81 -195 -81z" />
    <glyph glyph-name="Umacron" unicode="&#x16a;" horiz-adv-x="1355" 
d="M440 1573v113h471v-113h-471zM678 -16q-221 0 -361 128q-139 128 -139 363v918h148v-908q0 -182 93 -276t259 -94t259 94t93 276v908h148v-918q0 -235 -140 -363t-360 -128z" />
    <glyph glyph-name="umacron" unicode="&#x16b;" horiz-adv-x="1054" 
d="M289 1104v113h471v-113h-471zM461 -18q-143 0 -231 93q-87 93 -87 253v520h144v-506q0 -229 209 -229q120 1 192 73t72 195v467h143v-848h-143l4 172q-41 -90 -121 -140t-182 -50z" />
    <glyph glyph-name="Ubreve" unicode="&#x16c;" horiz-adv-x="1355" 
d="M676 1536q-116 0 -184 66t-84 174l114 18q33 -145 154 -145t153 145l115 -18q-16 -108 -84 -174t-184 -66zM678 -16q-221 0 -361 128q-139 128 -139 363v918h148v-908q0 -182 93 -276t259 -94t259 94t93 276v908h148v-918q0 -235 -140 -363t-360 -128z" />
    <glyph glyph-name="ubreve" unicode="&#x16d;" horiz-adv-x="1054" 
d="M524 1022q-116 0 -184 66t-84 174l115 18q33 -145 153 -145t154 145l115 -18q-16 -108 -85 -174t-184 -66zM461 -18q-143 0 -231 93q-87 93 -87 253v520h144v-506q0 -229 209 -229q120 1 192 73t72 195v467h143v-848h-143l4 172q-41 -90 -121 -140t-182 -50z" />
    <glyph glyph-name="Uring" unicode="&#x16e;" horiz-adv-x="1355" 
d="M678 -16q-221 0 -361 128q-139 128 -139 363v918h148v-908q0 -182 93 -276t259 -94t259 94t93 276v908h148v-918q0 -235 -140 -363t-360 -128zM676 1520q47 0 78 32q30 32 30 83q0 52 -29 83q-30 31 -79 31t-79 -31t-30 -83q0 -51 31 -83t78 -32zM676 1430q-90 0 -153 60
q-62 60 -62 145t62 145q63 60 153 61q90 0 152 -60q62 -59 62 -145t-62 -146t-152 -60z" />
    <glyph glyph-name="uring" unicode="&#x16f;" horiz-adv-x="1054" 
d="M461 -18q-143 0 -231 93q-87 93 -87 253v520h144v-506q0 -229 209 -229q120 1 192 73t72 195v467h143v-848h-143l4 172q-41 -90 -121 -140t-182 -50zM524 1081q47 0 78 32t31 84t-30 83t-79 31t-79 -31q-29 -31 -29 -83t30 -84t78 -32zM524 991q-90 1 -152 61t-62 145
t62 145t152 60t152 -60t63 -145q-1 -85 -63 -145t-152 -61z" />
    <glyph glyph-name="Uhungarumlaut" unicode="&#x170;" horiz-adv-x="1355" 
d="M479 1563l137 395h156l-180 -395h-113zM762 1563l139 395h156l-183 -395h-112zM678 -16q-221 0 -361 128q-139 128 -139 363v918h148v-908q0 -182 93 -276t259 -94t259 94t93 276v908h148v-918q0 -235 -140 -363t-360 -128z" />
    <glyph glyph-name="uhungarumlaut" unicode="&#x171;" horiz-adv-x="1054" 
d="M328 1034l137 396h156l-181 -396h-112zM610 1034l140 396h155l-182 -396h-113zM461 -18q-143 0 -231 93q-87 93 -87 253v520h144v-506q0 -229 209 -229q120 1 192 73t72 195v467h143v-848h-143l4 172q-41 -90 -121 -140t-182 -50z" />
    <glyph glyph-name="Uogonek" unicode="&#x172;" horiz-adv-x="1355" 
d="M178 475v918h148v-908q0 -182 93 -276t259 -94t259 94t93 276v908h148v-918q0 -219 -122 -345t-319 -144l-65 -107q-64 -103 -64 -157q-1 -97 80 -97q61 0 105 72l90 -51q-61 -121 -201 -121q-80 0 -135 47t-55 137t83 203l56 74q-205 14 -329 140t-124 349z" />
    <glyph glyph-name="uogonek" unicode="&#x173;" horiz-adv-x="1054" 
d="M461 -18q-143 0 -231 93q-87 93 -87 253v520h144v-506q0 -229 209 -229q120 1 192 73t72 195v467h143v-817l-92 -152q-63 -103 -63 -157q0 -98 79 -97q61 0 105 72l90 -51q-61 -121 -201 -121q-80 0 -135 47t-55 137t84 203l43 57l6 203q-41 -90 -121 -140t-182 -50z" />
    <glyph glyph-name="Ydieresis" unicode="&#x178;" horiz-adv-x="1249" 
d="M805 1554q-37 0 -66 28t-28 67t29 67t65 27q37 0 65 -28q28 -29 29 -67q-1 -38 -29 -66t-65 -28zM457 1554q-37 0 -66 28t-29 67t29 67t66 27q37 0 65 -28q28 -29 29 -67q-1 -38 -29 -66t-65 -28zM555 0v512l-485 881h168l335 -617q17 -33 39 -86q21 -53 21 -55
q14 57 59 141l334 617h154l-473 -877v-516h-152z" />
    <glyph glyph-name="Zacute" unicode="&#x179;" horiz-adv-x="1189" 
d="M80 0v23l778 1239h-668v131h897v-23l-776 -1239h781v-131h-1012zM571 1534l140 395h163l-190 -395h-113z" />
    <glyph glyph-name="zacute" unicode="&#x17a;" horiz-adv-x="854" 
d="M66 0v20l489 709h-436v119h667v-23l-493 -706h483v-119h-710zM393 1020l139 395h164l-190 -395h-113z" />
    <glyph glyph-name="Zdotaccent" unicode="&#x17b;" horiz-adv-x="1193" 
d="M627 1548q-41 0 -72 29t-31 72t31 73t72 29q41 0 71 -30q30 -31 31 -73q-1 -42 -31 -71t-71 -29zM80 0v23l778 1239h-668v131h897v-23l-776 -1239h781v-131h-1012z" />
    <glyph glyph-name="zdotaccent" unicode="&#x17c;" horiz-adv-x="856" 
d="M451 1094q-41 0 -72 28t-31 72q0 43 31 73q31 29 72 29t71 -30t31 -72q-1 -44 -31 -72t-71 -28zM66 0v20l489 709h-436v119h667v-23l-493 -706h483v-119h-710z" />
    <glyph glyph-name="Zcaron" unicode="&#x17d;" horiz-adv-x="1193" 
d="M80 0v23l778 1239h-668v131h897v-23l-776 -1239h781v-131h-1012zM616 1516l-262 393h119l152 -207l153 207h119l-262 -393h-19z" />
    <glyph glyph-name="zcaron" unicode="&#x17e;" horiz-adv-x="856" 
d="M66 0v20l489 709h-436v119h667v-23l-493 -706h483v-119h-710zM440 1014l-262 393h119l152 -207l153 207h119l-262 -393h-19z" />
    <glyph glyph-name="florin" unicode="&#x192;" horiz-adv-x="733" 
d="M78 416v116h151l54 459q29 274 252 275q143 0 210 -111l-98 -80q-47 68 -106 68q-102 0 -119 -146l-53 -465h192v-116h-205l-96 -850h-139l96 850h-139z" />
    <glyph glyph-name="Scommaaccent" unicode="&#x218;" horiz-adv-x="1085" 
d="M545 -16q-344 0 -486 282l123 66q56 -100 140 -158t214 -59q130 1 212 65t82 168t-62 169q-61 65 -201 126l-110 51q-160 72 -234 157q-73 85 -73 229t103 237q103 92 263 92q252 0 377 -209l-119 -74q-94 152 -258 152q-102 0 -162 -54t-59 -144q0 -90 49 -141
q49 -52 172 -110l111 -51q182 -80 266 -177t84 -258t-121 -260t-311 -99zM426 -221q0 39 32 69t74 31q42 0 73 -31q32 -32 32 -70t-25 -83l-108 -219h-78l66 202q-66 24 -66 101z" />
    <glyph glyph-name="scommaaccent" unicode="&#x219;" horiz-adv-x="839" 
d="M448 -16q-142 0 -236 55q-93 55 -138 141l110 64q86 -143 246 -144q86 0 133 34t47 95t-46 89t-172 64t-192 90t-67 162q0 108 79 170t200 62q186 0 282 -137l-98 -76q-70 96 -184 97q-68 0 -108 -30t-40 -83t41 -80t166 -61t200 -92t75 -170t-78 -181t-220 -69z
M322 -221q0 39 32 69t73 31q42 0 74 -31q58 -57 7 -153l-109 -219h-77l65 202q-27 10 -46 36t-19 65z" />
    <glyph glyph-name="uni021A" unicode="&#x21a;" horiz-adv-x="1138" 
d="M496 0v1262h-428v131h1003v-131h-428v-1262h-31v-109q72 -10 121 -59t49 -129t-58 -129t-138 -49q-147 0 -207 121l82 51q41 -80 117 -80q40 0 68 26q28 25 28 69t-29 72t-84 28h-43v188h-22z" />
    <glyph glyph-name="uni021B" unicode="&#x21b;" horiz-adv-x="686" 
d="M428 -18v-91q70 -10 120 -59t50 -129t-59 -129t-138 -49q-147 0 -208 121l83 51q39 -80 117 -80q41 0 69 26q28 25 28 69t-30 72t-85 28h-43v186q-131 51 -131 258v471h-131v121h131v291h141v-291h238v-121h-238v-473q0 -147 100 -148q68 0 121 54l70 -97
q-82 -81 -205 -81z" />
    <glyph glyph-name="uni0237" unicode="&#x237;" horiz-adv-x="452" 
d="M299 -201q1 -123 -61 -189t-174 -65q-112 0 -181 84l76 86q51 -47 102 -47q94 0 95 129v1051h143v-1049z" />
    <glyph glyph-name="circumflex" unicode="&#x2c6;" 
d="M240 1030l262 395h18l262 -395h-118l-152 207l-154 -207h-118z" />
    <glyph glyph-name="caron" unicode="&#x2c7;" 
d="M504 1014l-262 393h118l152 -207l154 207h118l-262 -393h-18z" />
    <glyph glyph-name="breve" unicode="&#x2d8;" 
d="M512 1022q-116 0 -184 66t-84 174l114 18q33 -145 154 -145t154 145l114 -18q-16 -108 -84 -174t-184 -66z" />
    <glyph glyph-name="dotaccent" unicode="&#x2d9;" 
d="M512 1094q-41 0 -72 28t-30 72q0 43 30 73q31 29 72 29t72 -30q30 -30 30 -72q0 -43 -30 -72q-31 -28 -72 -28z" />
    <glyph glyph-name="ring" unicode="&#x2da;" 
d="M512 1081q47 0 78 32t31 84t-30 83t-79 31t-79 -31t-30 -83t31 -84t78 -32zM512 991q-90 1 -152 61t-63 145q0 85 62 145q63 60 153 60t152 -60t63 -145q-1 -85 -63 -145t-152 -61z" />
    <glyph glyph-name="ogonek" unicode="&#x2db;" 
d="M487 -475q-80 0 -135 47t-55 137t84 203l65 88h105l-74 -117q-69 -109 -69 -163t24 -76t62 -23q61 0 108 74l86 -49q-62 -121 -201 -121z" />
    <glyph glyph-name="tilde" unicode="&#x2dc;" 
d="M386 1278q71 0 146 -66q40 -37 58 -47t41 -10q61 0 74 119l106 -10q-6 -109 -52 -167q-47 -59 -117 -59t-148 68q-40 37 -58 47t-41 10q-64 0 -76 -121l-106 9q6 109 54 168t119 59z" />
    <glyph glyph-name="hungarumlaut" unicode="&#x2dd;" 
d="M309 1034l137 396h156l-180 -396h-113zM592 1034l139 396h156l-182 -396h-113z" />
    <glyph glyph-name="endash" unicode="&#x2013;" horiz-adv-x="806" 
d="M72 334v125h661v-125h-661z" />
    <glyph glyph-name="emdash" unicode="&#x2014;" horiz-adv-x="1275" 
d="M72 334v125h1132v-125h-1132z" />
    <glyph glyph-name="quoteleft" unicode="&#x2018;" horiz-adv-x="407" 
d="M205 973q-43 0 -76 32q-33 33 -33 71t27 87l113 230h77l-69 -213q27 -10 47 -37t20 -67q1 -40 -31 -72t-75 -31z" />
    <glyph glyph-name="quoteright" unicode="&#x2019;" horiz-adv-x="407" 
d="M203 1407q43 0 76 -32t33 -67t-27 -91l-115 -230h-76l70 213q-29 10 -48 37q-20 27 -20 67t32 71q32 32 75 32z" />
    <glyph glyph-name="quotesinglbase" unicode="&#x201a;" horiz-adv-x="407" 
d="M203 209q43 0 76 -32t33 -68t-27 -89l-115 -231h-76l70 215q-29 8 -48 35q-20 27 -20 67t32 71q32 32 75 32z" />
    <glyph glyph-name="quotedblleft" unicode="&#x201c;" horiz-adv-x="731" 
d="M205 973q-43 0 -76 32q-33 33 -33 71t27 87l113 230h77l-69 -213q27 -10 47 -37t20 -67q1 -40 -31 -72t-75 -31zM528 973q-44 0 -76 32q-32 33 -32 67t26 91l115 230h76l-70 -213q65 -23 67 -104q0 -40 -31 -72q-32 -32 -75 -31z" />
    <glyph glyph-name="quotedblright" unicode="&#x201d;" horiz-adv-x="731" 
d="M203 1407q43 0 76 -32t33 -67t-27 -91l-115 -230h-76l70 213q-29 10 -48 37q-20 27 -20 67t32 71q32 32 75 32zM420 1304q0 40 32 71q32 32 74 32t76 -32q33 -32 33 -71t-27 -87l-112 -230h-78l69 213q-27 10 -47 37t-20 67z" />
    <glyph glyph-name="quotedblbase" unicode="&#x201e;" horiz-adv-x="731" 
d="M203 209q43 0 76 -32t33 -68t-27 -89l-115 -231h-76l70 215q-29 8 -48 35q-20 27 -20 67t32 71q32 32 75 32zM420 106q0 38 32 71q32 32 74 32t76 -32q33 -32 33 -71t-27 -86l-112 -231h-78l69 215q-27 8 -47 36t-20 66z" />
    <glyph glyph-name="dagger" unicode="&#x2020;" horiz-adv-x="690" 
d="M279 573v488h-191v119h191v213h133v-213h190v-119h-190v-488h-133z" />
    <glyph glyph-name="daggerdbl" unicode="&#x2021;" horiz-adv-x="690" 
d="M279 573v215h-191v111h191v168h-191v113h191v213h133v-213h190v-113h-190v-168h190v-111h-190v-215h-133z" />
    <glyph glyph-name="bullet" unicode="&#x2022;" horiz-adv-x="571" 
d="M479 538q0 -82 -57 -138t-136 -56t-136 56q-58 56 -58 138t56 137q56 56 136 56t138 -56q57 -56 57 -137z" />
    <glyph glyph-name="ellipsis" unicode="&#x2026;" horiz-adv-x="1261" 
d="M208 -14q-44 0 -78 32t-34 80q0 47 33 79t78 32t78 -32t33 -79t-33 -80q-33 -32 -77 -32zM632 -14q-44 0 -78 32t-34 80q0 47 33 79t78 32t78 -32t33 -79t-33 -80q-33 -32 -77 -32zM1056 -14q-44 0 -78 32t-34 80q0 47 33 79t78 32t78 -32t33 -79t-33 -80
q-33 -32 -77 -32z" />
    <glyph glyph-name="perthousand" unicode="&#x2030;" horiz-adv-x="2275" 
d="M1206 94q76 0 128 53t52 135t-52 136q-52 53 -128 53t-128 -53t-52 -135q0 -81 52 -135t128 -54zM1733 283q0 -81 53 -135t128 -54t127 53t52 135t-52 136q-52 53 -127 53t-128 -53t-53 -135zM365 559q76 0 128 53q52 52 52 136t-52 136t-128 52t-129 -52
q-54 -52 -54 -135t54 -137t129 -53zM1206 -16q-125 0 -215 85t-90 214t90 215t215 86t215 -86t90 -215t-90 -214t-215 -85zM1913 -16q-125 0 -215 86t-90 214t90 214t215 86t215 -86t90 -215t-90 -214t-215 -85zM391 0l645 1032h144l-645 -1032h-144zM365 446
q-125 0 -217 86q-91 86 -91 216t91 215q90 86 216 86t216 -86t90 -215q0 -130 -90 -216t-215 -86z" />
    <glyph glyph-name="guilsinglleft" unicode="&#x2039;" horiz-adv-x="495" 
d="M270 76l-192 325v17l192 321h148l-197 -329l197 -334h-148z" />
    <glyph glyph-name="guilsinglright" unicode="&#x203a;" horiz-adv-x="495" 
d="M78 76l196 332l-196 331h147l193 -323v-17l-193 -323h-147z" />
    <glyph glyph-name="fraction" unicode="&#x2044;" horiz-adv-x="868" 
d="M-70 0l863 1393h145l-860 -1393h-148z" />
    <glyph glyph-name="Euro" unicode="&#x20ac;" horiz-adv-x="1271" 
d="M82 580v114h174q53 160 189 257t311 98q262 0 407 -193l-106 -82q-111 150 -301 150q-123 0 -215 -62t-135 -168h444v-114h-473q-4 -41 -4 -65t4 -64h473v-115h-442q43 -106 136 -166t212 -61q199 0 315 155l105 -74q-135 -207 -420 -206q-172 0 -310 96
q-137 96 -190 256h-174v115h149q-4 41 -4 65t4 64h-149z" />
    <glyph glyph-name="trademark" unicode="&#x2122;" horiz-adv-x="1484" 
d="M283 784v514h-185v95h480v-95h-185v-514h-110zM709 784v619h18l295 -330l293 330h18v-619h-110v383l-191 -227h-20l-193 227v-383h-110z" />
    <glyph glyph-name="summation" unicode="&#x2211;" horiz-adv-x="1206" 
d="M104 0v23l533 688l-543 659v23h971v-131h-596l-117 4q45 -45 82 -90l371 -455v-19l-377 -483l-86 -94q63 6 127 6h625v-131h-990z" />
    <glyph glyph-name="minus" unicode="&#x2212;" horiz-adv-x="763" 
d="M684 453h-604v127h604v-127z" />
    <glyph glyph-name="space_uni0326" 
d="M410 -221q0 39 32 69t73 31q42 0 74 -31q32 -32 32 -70t-25 -83l-109 -219h-77l65 202q-27 10 -46 36t-19 65z" />
    <glyph glyph-name="idotaccent" horiz-adv-x="454" 
d="M156 0v848h143v-848h-143zM227 1094q-41 0 -71 28t-31 72q0 43 31 73q32 29 72 29t71 -30t31 -72q0 -44 -31 -72t-72 -28z" />
    <glyph glyph-name="space.lining" horiz-adv-x="485" 
 />
    <glyph glyph-name="dollar.lining" horiz-adv-x="1093" 
d="M840 350q0 100 -60 164t-188 123v-524q116 10 182 73q66 64 66 164zM283 1086q0 -86 46 -142t158 -104v442q-94 -8 -149 -59t-55 -137zM139 1082q1 142 99 230t249 97v174h105v-178q190 -27 307 -201l-115 -78q-76 121 -192 148v-481l26 -13q190 -78 278 -176t89 -257
q0 -159 -105 -255t-288 -106v-224h-105v224q-295 25 -424 278l123 68q53 -98 122 -152t179 -67v569q-185 79 -267 169q-81 89 -81 231z" />
    <glyph glyph-name="cent.lining" horiz-adv-x="962" 
d="M244 424q0 -121 62 -206t171 -105v622q-105 -20 -169 -105t-64 -206zM477 1083h105v-219q180 -12 292 -149l-100 -82q-72 92 -192 106v-630q125 14 204 110l99 -84q-115 -137 -303 -149v-224h-105v226q-166 22 -272 144t-107 292q0 170 108 293t271 145v221z" />
    <glyph glyph-name="Euro.lining" horiz-adv-x="1318" 
d="M772 -16q-209 0 -356 138t-195 376h-168v110h152q-2 27 -2 88t4 92h-154v111h168q47 233 191 371t350 139q307 0 450 -272l-122 -70q-62 109 -134 159t-209 50t-235 -100t-137 -277h520v-111h-539q-4 -61 -4 -106t4 -74h539v-110h-520q39 -180 142 -282t245 -101t221 65
q80 64 141 180l125 -63q-143 -313 -477 -313z" />
    <glyph glyph-name="sterling.lining" horiz-adv-x="1234" 
d="M284 264q-58 0 -88 -24q-28 -24 -28 -63q0 -41 30 -65t76 -24q115 0 152 113q-84 63 -142 63zM166 565v115h158q-80 193 -80 321q0 176 121 292t313 116q291 0 412 -252l-123 -63q-90 186 -289 186q-129 0 -206 -76t-77 -205t78 -319h401v-115h-356q53 -152 53 -270
q0 -31 -6 -62q55 -41 88 -61q101 -61 187 -61q86 1 132 27t89 83l100 -84q-65 -82 -133 -118t-174 -35q-158 0 -330 139q-88 -139 -256 -139q-92 0 -155 52t-64 140q1 88 63 140t150 52t178 -46q-8 106 -65 243h-209z" />
    <glyph glyph-name="yen.lining" horiz-adv-x="1236" 
d="M545 0v332h-428v108h428v72l-62 115h-366v108h307l-350 658h168l323 -619q12 -25 60 -141q0 27 59 141l317 619h156l-344 -658h311v-108h-368l-62 -117v-70h430v-108h-430v-332h-149z" />
    <glyph glyph-name="florin.lining" horiz-adv-x="751" 
d="M88 526v115h156l55 494q31 274 254 274q139 0 207 -111l-92 -77q-40 65 -100 65t-90 -32t-38 -113l-57 -500h205v-115h-217l-109 -960h-139l108 960h-143z" />
    <glyph glyph-name="zero.lining" horiz-adv-x="1316" 
d="M252 696q0 -289 114 -434t292 -145q177 0 291 144t114 435q0 292 -114 436t-291 144q-178 0 -292 -146t-114 -434zM657 -16q-235 0 -397 183t-162 529t162 530t398 183q236 0 397 -183q162 -184 162 -530t-162 -529t-398 -183z" />
    <glyph glyph-name="one.lining" horiz-adv-x="653" 
d="M301 0v1262h-227v131h377v-1393h-150z" />
    <glyph glyph-name="two.lining" horiz-adv-x="1091" 
d="M57 0v14l572 607q203 213 202 393q-1 116 -69 188t-189 72t-203 -72t-112 -207l-141 31q37 172 154 278q118 105 302 105t296 -110t112 -285q0 -213 -238 -469l-309 -328q-44 -49 -104 -94q72 8 127 8h532v-131h-932z" />
    <glyph glyph-name="three.lining" horiz-adv-x="1124" 
d="M535 -16q-168 0 -301 77q-132 78 -193 203l123 66q119 -213 364 -213q166 0 264 91q97 92 97 240t-99 232t-274 84q-98 0 -178 -31l-8 15l358 446l74 78q-63 -10 -115 -10h-489v131h837v-15l-344 -424q-18 -26 -76 -84q207 -2 335 -118t128 -317q0 -199 -140 -325
t-363 -126z" />
    <glyph glyph-name="four.lining" horiz-adv-x="1208" 
d="M393 383h430v573q0 123 11 144l-15 -19q-30 -49 -76 -106l-395 -502q-32 -41 -90 -86l-16 -14q90 10 151 10zM823 0v258h-766v76l904 1091h12v-1042h155v-125h-155v-258h-150z" />
    <glyph glyph-name="five.lining" horiz-adv-x="1122" 
d="M535 -16q-164 0 -292 70t-196 194l127 69q117 -201 361 -200q159 0 253 91t94 242q0 150 -90 234q-91 84 -251 84q-201 0 -348 -133l-13 8v750h778v-131h-647v-433q104 66 254 66q213 0 343 -120q130 -119 130 -329t-139 -336t-364 -126z" />
    <glyph glyph-name="six.lining" horiz-adv-x="1163" 
d="M582 117q152 0 244 98q92 99 92 241t-92 241t-244 99t-244 -98q-92 -100 -92 -242t92 -240t244 -99zM582 -16q-213 0 -351 135q-137 135 -137 315t117 348l428 611h166l-297 -422l-107 -125q98 72 211 72q197 0 327 -134t130 -330q0 -198 -137 -334t-350 -136z" />
    <glyph glyph-name="seven.lining" horiz-adv-x="1124" 
d="M70 1262v131h999v-15l-690 -1378h-158l631 1262h-782z" />
    <glyph glyph-name="eight.lining" horiz-adv-x="1155" 
d="M581 809q121 0 189 68t68 168q0 101 -69 167t-189 66t-188 -67t-68 -167t68 -167q68 -68 189 -68zM244 401q0 -131 92 -207t243 -77q151 0 241 77q90 78 91 208q0 130 -91 209q-92 79 -242 79t-242 -79t-92 -210zM578 -16q-213 0 -350 113q-136 114 -136 298
q0 135 79 229t212 132q-98 33 -152 113q-53 81 -53 188q0 147 114 249t289 103q175 0 289 -102t113 -250q0 -109 -54 -189t-153 -112q131 -39 209 -132t78 -229q0 -183 -136 -297t-349 -114z" />
    <glyph glyph-name="nine.lining" horiz-adv-x="1163" 
d="M240 932q0 -146 91 -246t247 -100t250 100t96 246q0 146 -94 244q-94 100 -250 100q-154 0 -247 -99t-93 -245zM549 465q-199 0 -330 134t-131 335t138 338t354 137t355 -137q140 -137 140 -336q0 -156 -121 -334l-405 -602h-164l289 426l86 109q-98 -70 -211 -70z" />
    <glyph glyph-name="percent.lining" horiz-adv-x="1660" 
d="M1249 100q90 0 153 65q62 65 62 163t-62 160t-152 62t-153 -62t-63 -160t62 -163t153 -65zM410 842q90 0 152 63t62 161t-62 162q-62 62 -152 62t-152 -62t-61 -160q0 -98 61 -163q62 -63 152 -63zM1249 -16q-139 0 -242 98t-103 244t102 243q104 99 243 99t243 -98
t103 -244q0 -145 -103 -244q-104 -98 -243 -98zM319 0l877 1393h145l-876 -1393h-146zM410 723q-139 0 -243 99q-103 98 -103 244t102 244q104 98 244 99q140 0 243 -98q105 -97 105 -243t-104 -246t-244 -99z" />
    <glyph glyph-name="perthousand.lining" horiz-adv-x="2467" 
d="M1249 100q90 0 153 65q62 65 62 163t-62 160t-152 62t-153 -62t-63 -160t62 -163t153 -65zM2058 100q90 0 153 65q62 65 62 163t-61 160q-60 62 -152 62t-153 -62t-61 -161t60 -163q62 -64 152 -64zM410 842q90 0 152 63t62 161t-62 162q-62 62 -152 62t-152 -62
t-61 -160q0 -98 61 -163q62 -63 152 -63zM1249 -16q-139 0 -242 98t-103 244t102 243q104 99 243 99t243 -98t103 -244q0 -145 -103 -244q-104 -98 -243 -98zM2060 -16q-139 0 -242 98q-104 98 -104 244t104 243q104 99 242 99q140 0 242 -98t102 -244q0 -145 -102 -244
q-103 -98 -242 -98zM319 0l877 1393h145l-876 -1393h-146zM410 723q-139 0 -243 99q-103 98 -103 244t102 244q104 98 244 99q140 0 243 -98q105 -97 105 -243t-104 -246t-244 -99z" />
    <glyph glyph-name="plus.lining" horiz-adv-x="845" 
d="M356 299v297h-276v127h276v297h131v-297h279v-127h-279v-297h-131z" />
    <glyph glyph-name="minus.lining" horiz-adv-x="845" 
d="M766 596h-686v127h686v-127z" />
    <glyph glyph-name="multiply.lining" horiz-adv-x="845" 
d="M422 565l-238 -239l-88 88l240 239l-240 240l86 86l240 -240l242 242l86 -88l-240 -240l240 -241l-86 -86z" />
    <glyph glyph-name="divide.lining" horiz-adv-x="845" 
d="M423 229q-44 0 -77 32t-33 78t33 78t76 32t77 -32q33 -32 33 -78t-32 -78t-77 -32zM423 870q-44 0 -77 32t-33 78t33 78t76 32t77 -32q33 -32 33 -78t-32 -78t-77 -32zM766 596h-686v127h686v-127z" />
    <glyph glyph-name="equal.lining" horiz-adv-x="841" 
d="M86 422v125h670v-125h-670zM86 721v127h670v-127h-670z" />
    <glyph glyph-name="less.lining" horiz-adv-x="800" 
d="M700 305l-626 342v21l626 336v-134l-411 -215l411 -217v-133z" />
    <glyph glyph-name="greater.lining" horiz-adv-x="800" 
d="M100 305v133l414 215l-414 217v134l627 -342v-21z" />
    <glyph glyph-name="degree.lining" horiz-adv-x="751" 
d="M377 969q74 0 119 47t45 121q0 73 -45 121t-119 48t-119 -48t-45 -122t45 -120q45 -47 119 -47zM377 866q-117 0 -199 79t-82 193t82 192t199 79q117 0 197 -79q80 -78 81 -192q-1 -114 -81 -193t-197 -79z" />
    <glyph glyph-name="period.lining" horiz-adv-x="413" 
d="M208 -14q-44 0 -78 32t-34 80q0 47 33 79t78 32t78 -32t33 -79t-33 -80q-33 -32 -77 -32z" />
    <glyph glyph-name="comma.lining" horiz-adv-x="413" 
d="M96 98q0 45 34 78t78 33t77 -33q61 -61 8 -160l-123 -245h-80l80 227q-74 25 -74 100z" />
    <glyph glyph-name="colon.lining" horiz-adv-x="434" 
d="M328 98q0 -48 -33 -80t-77 -32t-78 32t-34 80q0 47 33 79t78 32t78 -32t33 -79zM218 444q-44 0 -78 33t-34 80t33 79t78 32t78 -32t33 -79t-33 -80t-77 -33z" />
    <glyph glyph-name="semicolon.lining" horiz-adv-x="434" 
d="M106 98q0 45 34 78t78 33t77 -33t33 -74t-25 -86l-123 -245h-80l80 227q-74 25 -74 100zM218 444q-44 0 -78 33t-34 80t33 79t78 32t78 -32t33 -79t-33 -80t-77 -33z" />
    <glyph glyph-name="parenleft.lining" horiz-adv-x="589" 
d="M90 596q0 514 352 874l90 -73q-292 -342 -292 -801t292 -801l-90 -74q-352 361 -352 875z" />
    <glyph glyph-name="parenright.lining" horiz-adv-x="589" 
d="M348 596q0 461 -291 801l88 73q354 -362 354 -874t-354 -875l-88 74q291 340 291 801z" />
    <glyph glyph-name="bracketleft.lining" horiz-adv-x="624" 
d="M156 -262v1741h395v-123h-252v-1495h252v-123h-395z" />
    <glyph glyph-name="bracketright.lining" horiz-adv-x="624" 
d="M74 -262v123h252v1495h-252v123h397v-1741h-397z" />
    <glyph glyph-name="braceleft.lining" horiz-adv-x="751" 
d="M561 -262q-272 0 -272 295v379q0 78 -30 110t-89 31h-119v123h119q59 0 89 33t30 110v365q0 295 272 295h117v-123h-109q-67 0 -101 -39t-34 -135v-379q0 -156 -133 -189q133 -25 133 -188v-391q0 -96 34 -135t101 -39h109v-123h-117z" />
    <glyph glyph-name="braceright.lining" horiz-adv-x="749" 
d="M461 819q0 -143 121 -143h116v-123h-116q-59 0 -90 -32t-31 -109v-379q0 -295 -271 -295h-116v123h108q68 0 102 39t33 135v391q0 160 134 188q-133 25 -134 191v377q0 96 -33 135q-34 39 -102 39h-108v123h116q270 0 271 -295v-365z" />
    <glyph glyph-name="section.lining" horiz-adv-x="1132" 
d="M913 383q0 74 -48 123t-163 100l-223 101q-92 39 -149 94q-111 -53 -111 -170q0 -78 45 -126t154 -97l219 -99q94 -41 149 -90q127 47 127 164zM549 -369q-139 1 -249 63t-169 161l119 75q109 -168 295 -168q121 0 178 52t57 135q0 82 -49 130t-156 95l-217 98
q-147 66 -215 145t-67 193q0 178 180 262q-57 82 -57 195q0 147 105 245t271 97q254 0 371 -213l-119 -74q-86 156 -252 156q-102 0 -162 -57q-61 -57 -61 -147t44 -139q44 -50 145 -95l221 -101q158 -71 226 -151t69 -193q0 -172 -189 -250q66 -84 66 -192q0 -143 -99 -233
q-100 -89 -286 -89z" />
    <glyph glyph-name="numbersign.lining" horiz-adv-x="944" 
d="M342 834h205l55 221h-203zM59 719v115h164l56 221h-148v114h176l55 224h119l-55 -224h203l57 224h119l-55 -224h135v-114h-164l-55 -221h145v-115h-176l-53 -221h-121l55 221h-203l-53 -221h-121l58 221h-138z" />
    <glyph glyph-name="space.tab" horiz-adv-x="409" 
 />
    <glyph glyph-name="dollar.tab" horiz-adv-x="1064" 
d="M582 98q201 12 200 168q0 76 -45 117t-155 72v-357zM307 791q0 -72 37 -106t133 -60v309q-170 -14 -170 -143zM174 782q0 114 85 184q85 71 218 81v217h105v-220q94 -14 168 -63t112 -119l-100 -67q-66 117 -180 135v-338l12 -4q164 -47 244 -123t80 -195
q0 -270 -336 -286v-228h-105v232q-258 27 -358 231l112 60q72 -150 246 -177v383q-159 47 -231 115t-72 182z" />
    <glyph glyph-name="cent.tab" horiz-adv-x="1064" 
d="M293 424q0 -121 62 -206t171 -105v622q-106 -20 -170 -105t-63 -206zM526 1083h105v-219q180 -12 293 -149l-101 -82q-72 92 -192 106v-630q125 14 205 110l98 -84q-115 -137 -303 -149v-224h-105v226q-166 22 -272 144t-107 292q0 170 108 293t271 145v221z" />
    <glyph glyph-name="Euro.tab" horiz-adv-x="1064" 
d="M729 451v-115h-391q37 -106 116 -166t183 -61q104 0 167 39q62 40 111 120l113 -69q-129 -215 -393 -215q-154 0 -276 96t-171 256h-149v115h127q-4 41 -4 75t2 54h-125v114h147q47 160 169 257t280 98q252 0 383 -199l-107 -76q-51 80 -112 115t-163 35t-182 -62
q-79 -62 -118 -168h393v-114h-418l-2 -64q0 -25 4 -65h416z" />
    <glyph glyph-name="sterling.tab" horiz-adv-x="1064" 
d="M255 250q-50 0 -76 -23q-25 -23 -25 -61t26 -62q26 -22 72 -22q45 0 83 26t54 68q-84 74 -134 74zM123 532v115h145q-63 160 -63 271q0 150 101 248t269 100q254 0 361 -224l-117 -63q-43 84 -97 121t-152 37q-98 -1 -159 -61t-61 -162t62 -267h315v-115h-272
q63 -182 63 -303v-16q133 -102 227 -102q63 0 101 18t80 66l86 -89q-50 -63 -110 -93t-152 -29q-129 0 -273 114q-76 -115 -223 -114q-96 0 -155 52q-58 52 -58 133t56 130q55 49 137 49t157 -45q-13 77 -74 229h-194z" />
    <glyph glyph-name="yen.tab" horiz-adv-x="1064" 
d="M109 262v115h337l-75 141h-262v115h200l-217 399h162l227 -434q28 -55 45 -113l6 -20q18 76 50 133l239 434h150l-228 -399h197v-115h-260l-80 -141h340v-115h-342v-262h-147v262h-342z" />
    <glyph glyph-name="florin.tab" horiz-adv-x="1064" 
d="M174 416v116h213l47 416q16 158 94 238t197 80q176 0 258 -150l-100 -69q-27 47 -60 71t-92 25q-135 0 -158 -193l-47 -418h277v-116h-289l-96 -850h-139l96 850h-201z" />
    <glyph glyph-name="zero.tab" horiz-adv-x="1064" 
d="M530 113q139 0 221 108q81 109 81 297t-80 295t-220 107t-221 -106q-80 -106 -80 -296q0 -188 80 -296t219 -109zM532 -16q-202 0 -326 148t-124 385t125 384t325 147t325 -146q126 -148 126 -385t-125 -385t-326 -148z" />
    <glyph glyph-name="one.tab" horiz-adv-x="1064" 
d="M467 123v786h-262v123h407v-909h262v-123h-696v123h289z" />
    <glyph glyph-name="two.tab" horiz-adv-x="1064" 
d="M102 0v18l416 379q115 104 166 177t51 159t-55 135t-145 50q-186 0 -256 -209l-132 36q37 141 141 223t254 81q152 0 246 -86t95 -230q1 -98 -63 -193t-187 -208l-156 -142q-19 -19 -88 -61l-18 -10q76 6 114 6h424v-125h-807z" />
    <glyph glyph-name="three.tab" horiz-adv-x="1064" 
d="M948 196q0 -177 -122 -292t-298 -115q-174 0 -288 72t-166 194l125 62q92 -199 311 -199q125 0 206 75t81 208t-83 199t-229 67q-90 0 -168 -35l-16 19l330 399l61 68q-53 -8 -98 -9h-414v123h740v-14l-318 -381q-27 -35 -70 -64q180 2 298 -99t118 -278z" />
    <glyph glyph-name="four.tab" horiz-adv-x="1064" 
d="M686 164v452l8 115q-35 -57 -65 -96l-314 -399q-34 -43 -73 -76q53 4 98 4h346zM829 164h152v-121h-152v-236h-143v236h-627v70l750 940h20v-889z" />
    <glyph glyph-name="five.tab" horiz-adv-x="1064" 
d="M510 -211q-147 0 -252 61q-104 61 -158 162l121 66q90 -160 289 -160q131 0 210 77t79 204t-74 199q-75 72 -227 73q-152 0 -281 -109l-18 7v663h678v-123h-553v-370q84 57 215 57q186 0 299 -112q112 -112 112 -288t-122 -292q-122 -115 -318 -115z" />
    <glyph glyph-name="six.tab" horiz-adv-x="1064" 
d="M532 111q127 1 206 79t79 203t-75 203q-76 78 -204 78t-206 -82t-78 -203t76 -199t202 -79zM961 391q0 -175 -122 -291t-303 -116t-304 113q-122 114 -122 278t130 350l352 524h162l-287 -426q-27 -37 -94 -104q86 72 190 72q170 0 284 -113t114 -287z" />
    <glyph glyph-name="seven.tab" horiz-adv-x="1064" 
d="M119 909v123h823v-18l-569 -1207h-150l522 1102h-626z" />
    <glyph glyph-name="eight.tab" horiz-adv-x="1064" 
d="M531 750q95 0 153 54q57 54 57 143t-57 143q-56 54 -152 55q-96 0 -153 -54q-57 -53 -57 -143t57 -144t152 -54zM815 371q0 119 -77 191t-207 71q-131 0 -207 -72q-76 -73 -76 -191t76 -188t207 -69q130 -1 207 69t77 189zM963 362q1 -168 -121 -274t-309 -106t-309 108
t-122 272q0 121 69 207t185 123q-174 74 -174 258q0 136 98 226t254 90q154 0 252 -90t99 -226q0 -90 -47 -156t-129 -102q117 -37 185 -123t69 -207z" />
    <glyph glyph-name="nine.tab" horiz-adv-x="1064" 
d="M532 920q-128 0 -206 -78t-78 -203t74 -202t204 -77q129 0 208 81t79 202t-77 199t-204 78zM104 641q0 174 122 291t302 117t304 -115t124 -291q0 -145 -131 -336l-340 -500h-161l274 404q38 49 82 88l18 18q-94 -76 -196 -75q-170 0 -284 112t-114 287z" />
    <glyph glyph-name="percent.tab" horiz-adv-x="1536" 
d="M1173 92q75 0 123 53t50 137q0 84 -50 138q-50 53 -124 53t-123 -53t-49 -137q0 -83 48 -137q50 -54 125 -54zM364 557q76 0 124 53q48 54 48 138t-48 137q-50 53 -124 53t-124 -53t-50 -137t50 -138t124 -53zM1466 283q0 -129 -86 -214t-207 -85q-122 0 -208 85t-86 214
t87 215t208 86q120 0 206 -86t86 -215zM373 0l645 1032h143l-645 -1032h-143zM657 748q-1 -130 -87 -216t-207 -86t-207 86t-86 216t87 215q87 86 207 86t206 -86t87 -215z" />
    <glyph glyph-name="perthousand.tab" horiz-adv-x="2252" 
d="M1194 92q74 0 123 52t49 138t-49 139q-49 52 -123 52t-123 -52t-49 -138q0 -87 49 -139t123 -52zM1874 92q74 0 123 52t49 138t-49 139q-49 52 -123 52t-123 -52t-49 -138q0 -87 49 -139t123 -52zM205 748q0 -84 50 -138t125 -53q75 0 124 53q49 54 49 138t-49 137
t-124 53t-125 -53t-50 -137zM1194 -16q-121 0 -207 85t-86 214t86 215t207 86t207 -86t86 -215t-86 -214t-207 -85zM1874 -16q-121 0 -207 85t-86 214t86 215t207 86t207 -86t86 -215t-86 -214t-207 -85zM391 0l645 1032h144l-645 -1032h-144zM379 446q-121 0 -208 86
t-87 216t87 215q87 86 208 86t207 -86t86 -215q0 -130 -86 -216t-207 -86z" />
    <glyph glyph-name="plus.tab" horiz-adv-x="1064" 
d="M598 453v-312h-131v312h-291v127h291v311h131v-311h291v-127h-291z" />
    <glyph glyph-name="minus.tab" horiz-adv-x="1064" 
d="M176 453v127h713v-127h-713z" />
    <glyph glyph-name="multiply.tab" horiz-adv-x="1064" 
d="M535 424l-250 -248l-90 90l247 248l-247 248l90 90l247 -248l250 248l90 -90l-249 -248l249 -248l-90 -90z" />
    <glyph glyph-name="divide.tab" horiz-adv-x="1064" 
d="M530 90q-44 0 -74 31t-30 75t31 74t73 31q42 0 75 -31q32 -30 32 -74t-32 -75t-75 -31zM174 453v127h715v-127h-715zM530 731q-44 0 -74 31t-30 75q0 45 31 75t73 30t75 -31q32 -31 32 -75t-32 -74q-32 -31 -75 -31z" />
    <glyph glyph-name="equal.tab" horiz-adv-x="1064" 
d="M174 311v127h717v-127h-717zM174 578v124h717v-124h-717z" />
    <glyph glyph-name="less.tab" horiz-adv-x="1064" 
d="M829 152l-655 337v21l655 334v-131l-434 -215l434 -215v-131z" />
    <glyph glyph-name="greater.tab" horiz-adv-x="1064" 
d="M236 152v131l434 215l-434 215v131l655 -338v-21z" />
    <glyph glyph-name="degree.tab" horiz-adv-x="716" 
d="M358 680q59 0 96 38q36 38 35 99q0 61 -35 99q-36 38 -96 38t-96 -39q-37 -39 -37 -98t37 -98t96 -39zM358 586q-98 0 -169 68t-71 164q0 97 71 164t169 67t169 -67t71 -164q0 -96 -71 -164t-169 -68z" />
    <glyph glyph-name="period.tab" horiz-adv-x="409" 
d="M206 -14q-44 0 -78 32t-34 80q0 47 33 79t78 32t78 -32t33 -79t-33 -80q-33 -32 -77 -32z" />
    <glyph glyph-name="comma.tab" horiz-adv-x="409" 
d="M94 98q0 45 34 78t78 33t77 -33q61 -61 8 -160l-123 -245h-80l80 227q-74 25 -74 100z" />
    <glyph glyph-name="colon.tab" horiz-adv-x="409" 
d="M206 -14q-44 0 -78 32t-34 80q0 47 33 79t78 32t78 -32t33 -79t-33 -80q-33 -32 -77 -32zM206 444q-44 0 -78 33t-34 80t33 79t78 32t78 -32t33 -79t-34 -80q-32 -33 -76 -33z" />
    <glyph glyph-name="semicolon.tab" horiz-adv-x="409" 
d="M94 98q0 45 34 78t78 33t77 -33q61 -61 8 -160l-123 -245h-80l80 227q-74 25 -74 100zM206 444q-44 0 -78 33t-34 80t33 79t78 32t78 -32t33 -79t-34 -80q-32 -33 -76 -33z" />
    <glyph glyph-name="parenleft.tab" horiz-adv-x="614" 
d="M106 596q0 510 338 872l93 -69q-281 -344 -281 -803t281 -803l-93 -69q-338 362 -338 872z" />
    <glyph glyph-name="parenright.tab" horiz-adv-x="614" 
d="M508 596q0 -507 -340 -872l-90 69q279 346 278 803q0 457 -278 803l90 69q340 -365 340 -872z" />
    <glyph glyph-name="bracketleft.tab" horiz-adv-x="614" 
d="M150 -262v1741h389v-123h-246v-1495h246v-123h-389z" />
    <glyph glyph-name="bracketright.tab" horiz-adv-x="614" 
d="M76 -262v123h243v1495h-243v123h391v-1741h-391z" />
    <glyph glyph-name="braceleft.tab" horiz-adv-x="614" 
d="M461 -262q-272 0 -273 295v379q0 78 -28 110t-90 31h-68v123h68q61 0 90 33t28 110v365q0 295 273 295h78v-123h-68q-69 0 -103 -39t-34 -135v-379q0 -156 -133 -189q133 -25 133 -188v-391q0 -96 34 -135t103 -39h68v-123h-78z" />
    <glyph glyph-name="braceright.tab" horiz-adv-x="614" 
d="M74 -262v123h69q68 0 102 39t34 135v391q0 164 133 188q-133 33 -133 189v379q0 96 -34 135t-102 39h-69v123h78q272 0 272 -295v-365q0 -79 30 -111t89 -32h67v-123h-67q-59 0 -89 -32t-30 -109v-379q0 -295 -272 -295h-78z" />
    <glyph glyph-name="section.tab" horiz-adv-x="1064" 
d="M229 625q0 -70 37 -111t135 -80l185 -72q83 -28 151 -79q102 37 103 127q0 63 -38 104t-140 82l-201 80q-90 35 -142 90q-90 -43 -90 -141zM858 63q0 -125 -88 -199t-234 -75q-146 0 -245 59q-98 59 -144 162l115 56q82 -156 258 -156q90 0 143 42q52 42 52 106t-39 102
t-129 73l-182 72q-145 55 -209 125q-63 70 -64 178q0 152 166 223q-41 66 -41 150q0 125 91 205t229 80q236 0 327 -207l-116 -53q-31 68 -78 104t-130 37q-83 0 -133 -43q-51 -43 -51 -114q0 -72 33 -112t113 -73l200 -80q143 -55 208 -127t65 -170q0 -147 -164 -213
q47 -63 47 -152z" />
    <glyph glyph-name="numbersign.tab" horiz-adv-x="1064" 
d="M666 915h-213l-56 -217h213zM170 915v117h190l56 223h121l-56 -223h213l56 223h120l-55 -223h150v-117h-179l-55 -217h160v-116h-189l-55 -222h-121l56 222h-213l-56 -222h-120l55 222h-150v116h178l56 217h-162z" />
    <glyph glyph-name="space.tablining" horiz-adv-x="409" 
 />
    <glyph glyph-name="dollar.tablining" horiz-adv-x="1187" 
d="M889 346q1 98 -59 162t-199 129v-524q127 10 193 73q66 62 65 160zM526 1280q-98 -8 -153 -60t-55 -134t46 -135q48 -54 162 -109v438zM174 1080q0 138 98 228t254 101v174h105v-178q207 -25 319 -203l-116 -76q-76 127 -203 150v-483l31 -15q190 -84 281 -180t91 -252
t-106 -253t-297 -107v-224h-105v224q-297 25 -428 278l121 68q55 -98 125 -152t182 -67v573l-6 2q-176 76 -261 165t-85 227z" />
    <glyph glyph-name="cent.tablining" horiz-adv-x="1187" 
d="M586 735q-106 -20 -170 -105t-64 -206t62 -206t172 -105v622zM207 424q0 170 107 293q108 123 272 145v221h104v-219q180 -12 293 -149l-100 -82q-72 92 -193 106v-630q125 14 205 110l98 -84q-115 -137 -303 -149v-224h-104v226q-166 23 -273 144q-106 122 -106 292z
" />
    <glyph glyph-name="Euro.tablining" horiz-adv-x="1187" 
d="M694 -16q-194 0 -330 138t-178 378h-151v110h139q-4 27 -4 73t4 108h-139v110h153q41 236 173 372t321 136q287 0 418 -283l-125 -59q-55 113 -119 162t-187 49q-124 0 -212 -100t-119 -277h442v-110h-456q-2 -31 -2 -93t2 -88h456v-110h-440q31 -182 123 -284t220 -101
q128 0 197 61t121 184l129 -57q-129 -319 -436 -319z" />
    <glyph glyph-name="sterling.tablining" horiz-adv-x="1187" 
d="M278 264q-54 0 -84 -24t-30 -63q0 -41 31 -65t75 -24q113 0 146 115q-84 61 -138 61zM156 565v115h159q-78 186 -77 321q0 178 112 293q113 115 301 115q281 0 393 -244l-120 -63q-84 178 -273 178q-123 0 -193 -75t-69 -205q0 -130 74 -320h385v-115h-342
q51 -150 51 -270q0 -33 -6 -64q49 -39 81 -61q89 -60 197 -59q109 0 193 108l100 -84q-117 -152 -301 -151q-147 0 -311 139q-84 -139 -244 -139q-90 0 -154 52t-65 140t61 140t151 52t169 -46q-8 100 -63 243h-209z" />
    <glyph glyph-name="yen.tablining" horiz-adv-x="1187" 
d="M121 332v108h399v74l-59 113h-340v108h287l-336 658h164l315 -625l45 -135q16 63 49 135l316 625h151l-336 -658h287v-108h-338l-59 -115v-72h397v-108h-397v-332h-146v332h-399z" />
    <glyph glyph-name="florin.tablining" horiz-adv-x="1187" 
d="M246 526v115h215l51 451q18 158 96 238t197 79q178 0 256 -149l-100 -70q-27 47 -60 72t-90 24q-137 0 -158 -192l-51 -453h272v-115h-284l-111 -960h-139l109 960h-203z" />
    <glyph glyph-name="zero.tablining" horiz-adv-x="1187" 
d="M594 117q170 -1 258 155t88 424t-88 424t-258 156t-258 -156t-88 -424t88 -424t258 -155zM594 -16q-229 0 -366 192q-136 192 -136 520t136 521t366 193t365 -194q137 -192 137 -520t-136 -520t-366 -192z" />
    <glyph glyph-name="one.tablining" horiz-adv-x="1187" 
d="M586 0v1262h-336v131h485v-1393h-149z" />
    <glyph glyph-name="two.tablining" horiz-adv-x="1187" 
d="M88 0v14l571 607q201 211 201 393q0 116 -68 188t-189 72q-120 0 -202 -72t-112 -207l-142 31q37 172 155 278t302 105q184 0 295 -110t111 -285q0 -215 -236 -469l-309 -328q-21 -24 -88 -82l-17 -12q72 8 127 8h533v-131h-932z" />
    <glyph glyph-name="three.tablining" horiz-adv-x="1187" 
d="M565 -16q-170 0 -295 76t-186 202l125 66q115 -211 352 -211q164 0 257 91q93 92 93 240t-96 232t-268 84q-98 0 -178 -31l-9 15l357 446l71 78q-61 -10 -114 -10h-479v131h827v-15l-340 -424q-31 -45 -68 -73l-10 -9q211 -4 334 -120t123 -316q1 -200 -137 -326
t-359 -126z" />
    <glyph glyph-name="four.tablining" horiz-adv-x="1187" 
d="M780 383v543q0 30 3 68t5 67l3 26q-29 -59 -86 -135l-357 -473q-32 -47 -82 -90l-16 -14q78 8 139 8h391zM928 383h159v-125h-159v-258h-148v258h-706v76l839 1091h15v-1042z" />
    <glyph glyph-name="five.tablining" horiz-adv-x="1187" 
d="M561 -16q-159 0 -279 68t-186 192l127 69q111 -197 338 -196q156 0 247 90t91 242q0 151 -87 235t-241 84q-195 0 -338 -133l-12 8v750h746v-131h-615v-435q100 68 246 68q207 0 331 -120q124 -119 124 -329q-1 -210 -137 -336t-355 -126z" />
    <glyph glyph-name="six.tablining" horiz-adv-x="1187" 
d="M594 117q147 0 237 97q91 98 91 238t-90 238t-238 98t-238 -97t-90 -238t90 -239q91 -97 238 -97zM595 -16q-210 0 -345 134t-135 314t114 346l430 615h166l-307 -439q-32 -46 -84 -98l-16 -18q98 72 203 71q195 0 323 -132q128 -131 129 -327q0 -196 -134 -331
t-344 -135z" />
    <glyph glyph-name="seven.tablining" horiz-adv-x="1187" 
d="M127 1262v131h946v-15l-653 -1378h-158l600 1262h-735z" />
    <glyph glyph-name="eight.tablining" horiz-adv-x="1187" 
d="M596 809q118 0 188 69t70 169q0 99 -70 165t-188 66t-188 -66q-68 -66 -68 -166t68 -169q68 -68 188 -68zM594 117q152 0 242 76q90 75 90 207t-90 210t-242 78t-242 -79t-90 -210t90 -207t242 -75zM594 -16q-213 0 -349 114t-136 297q0 135 78 229q79 93 210 132
q-96 34 -149 114t-53 187q0 147 113 250q114 102 288 102t289 -102t114 -250q0 -109 -54 -189t-152 -112q131 -39 207 -132t77 -229q0 -183 -135 -297t-348 -114z" />
    <glyph glyph-name="nine.tablining" horiz-adv-x="1187" 
d="M258 936q0 -144 90 -242q90 -100 243 -100t245 98t92 242t-91 244q-91 98 -244 98t-244 -98t-91 -242zM567 473q-199 0 -329 133t-129 332q0 199 136 335t348 136t348 -135t136 -334q0 -160 -114 -334l-414 -606h-164l301 438l86 105q-98 -70 -205 -70z" />
    <glyph glyph-name="percent.tablining" horiz-adv-x="1638" 
d="M1022 326q0 -100 58 -164t144 -64q87 0 144 65t57 164t-57 162t-144 63q-86 0 -144 -62q-58 -64 -58 -164zM415 840q87 0 144 64t57 163q0 98 -57 163q-57 64 -144 64t-145 -63t-57 -163q0 -100 57 -165q58 -63 145 -63zM1225 -16q-135 0 -233 97q-97 97 -97 245t97 244
q96 98 232 98t232 -98t96 -244t-96 -244t-231 -98zM309 0l877 1393h145l-878 -1393h-144zM416 723q-135 0 -233 98q-97 97 -97 245t97 246t233 97q136 0 232 -97q97 -96 97 -244t-97 -246t-232 -99z" />
    <glyph glyph-name="perthousand.tablining" horiz-adv-x="2375" 
d="M1199 98q87 0 144 65t57 164t-56 162q-58 63 -145 63t-144 -62q-57 -64 -57 -164t56 -164q58 -64 145 -64zM1961 98q87 0 144 65t57 164t-56 162q-58 63 -145 63t-144 -62q-57 -64 -57 -164t56 -164q58 -64 145 -64zM415 840q87 0 144 64t57 163q0 98 -57 163
q-57 64 -144 64t-145 -63t-57 -163q0 -100 57 -165q58 -63 145 -63zM1200 -16q-135 0 -232 97q-98 97 -98 245t98 244q98 98 232 98q136 0 232 -98t96 -244q0 -147 -96 -245q-97 -97 -232 -97zM1962 -16q-135 0 -232 97q-98 97 -98 245t98 244q98 98 232 98q135 0 231 -98
q97 -98 97 -244t-96 -244t-232 -98zM295 0l879 1393h145l-879 -1393h-145zM416 723q-135 0 -233 98q-97 97 -97 245t97 246t233 97q136 0 232 -97q97 -96 97 -244t-97 -246t-232 -99z" />
    <glyph glyph-name="plus.tablining" horiz-adv-x="1187" 
d="M659 596v-338h-131v338h-319v127h319v338h131v-338h320v-127h-320z" />
    <glyph glyph-name="minus.tablining" horiz-adv-x="1187" 
d="M209 596v127h768v-127h-768z" />
    <glyph glyph-name="multiply.tablining" horiz-adv-x="1187" 
d="M594 565l-254 -254l-86 88l252 252l-254 256l88 86l254 -254l254 254l88 -86l-254 -254l254 -254l-88 -88z" />
    <glyph glyph-name="divide.tablining" horiz-adv-x="1187" 
d="M593 229q-44 0 -77 32t-33 78t33 78t76 32t77 -32q33 -32 33 -78t-32 -78t-77 -32zM209 596v127h768v-127h-768zM593 870q-44 0 -77 32t-33 78t33 78t76 32t77 -32q33 -32 33 -78t-32 -78t-77 -32z" />
    <glyph glyph-name="equal.tablining" horiz-adv-x="1187" 
d="M209 422v125h770v-125h-770zM209 721v127h770v-127h-770z" />
    <glyph glyph-name="less.tablining" horiz-adv-x="1187" 
d="M934 268l-729 379v21l729 372v-131l-504 -254l504 -256v-131z" />
    <glyph glyph-name="greater.tablining" horiz-adv-x="1187" 
d="M254 268v131l504 256l-504 254v131l729 -372v-21z" />
    <glyph glyph-name="degree.tablining" horiz-adv-x="770" 
d="M385 969q74 0 120 47t46 121q0 73 -46 121t-120 48t-119 -48t-45 -122t45 -120q45 -47 119 -47zM385 866q-117 0 -199 79t-82 193t82 192t199 79q117 0 198 -79q81 -78 81 -192t-81 -193t-198 -79z" />
    <glyph glyph-name="period.tablining" horiz-adv-x="409" 
d="M206 -14q-44 0 -78 32t-34 80q0 47 33 79t78 32t78 -32t33 -79t-33 -80q-33 -32 -77 -32z" />
    <glyph glyph-name="comma.tablining" horiz-adv-x="409" 
d="M94 98q0 45 34 78t78 33t77 -33q61 -61 8 -160l-123 -245h-80l80 227q-74 25 -74 100z" />
    <glyph glyph-name="colon.tablining" horiz-adv-x="409" 
d="M206 -14q-44 0 -78 32t-34 80q0 47 33 79t78 32t78 -32t33 -79t-33 -80q-33 -32 -77 -32zM206 444q-44 0 -78 33t-34 80t33 79t78 32t78 -32t33 -79t-34 -80q-32 -33 -76 -33z" />
    <glyph glyph-name="semicolon.tablining" horiz-adv-x="409" 
d="M94 98q0 45 34 78t78 33t77 -33q61 -61 8 -160l-123 -245h-80l80 227q-74 25 -74 100zM206 444q-44 0 -78 33t-34 80t33 79t78 32t78 -32t33 -79t-34 -80q-32 -33 -76 -33z" />
    <glyph glyph-name="parenleft.tablining" horiz-adv-x="614" 
d="M106 596q0 510 338 872l93 -69q-281 -344 -281 -803t281 -803l-93 -69q-338 362 -338 872z" />
    <glyph glyph-name="parenright.tablining" horiz-adv-x="614" 
d="M508 596q0 -507 -340 -872l-90 69q279 346 278 803q0 457 -278 803l90 69q340 -365 340 -872z" />
    <glyph glyph-name="bracketleft.tablining" horiz-adv-x="614" 
d="M150 -262v1741h389v-123h-246v-1495h246v-123h-389z" />
    <glyph glyph-name="bracketright.tablining" horiz-adv-x="614" 
d="M76 -262v123h243v1495h-243v123h389v-1741h-389z" />
    <glyph glyph-name="braceleft.tablining" horiz-adv-x="614" 
d="M461 -262q-272 0 -273 295v379q0 78 -28 110t-90 31h-68v123h68q61 0 90 33t28 110v365q0 295 273 295h78v-123h-68q-69 0 -103 -39t-34 -135v-379q0 -156 -133 -189q133 -25 133 -188v-391q0 -96 34 -135t103 -39h68v-123h-78z" />
    <glyph glyph-name="braceright.tablining" horiz-adv-x="614" 
d="M74 -262v123h69q68 0 102 39t34 135v391q0 164 133 188q-133 33 -133 189v379q0 96 -34 135t-102 39h-69v123h78q272 0 272 -295v-365q0 -79 30 -111t89 -32h67v-123h-67q-59 0 -89 -32t-30 -109v-379q0 -295 -272 -295h-78z" />
    <glyph glyph-name="section.tablining" horiz-adv-x="1187" 
d="M938 383q0 74 -48 123t-163 100l-223 101q-94 43 -150 94q-109 -53 -108 -170q0 -78 45 -127t153 -96l218 -99q94 -41 149 -90q127 47 127 164zM602 1409q262 0 369 -213l-119 -74q-82 156 -250 156q-104 0 -164 -57t-61 -147q0 -90 44 -139q44 -50 144 -95l223 -101
q156 -71 225 -151t68 -193q0 -172 -188 -250q68 -86 68 -192q-1 -145 -99 -233t-287 -89q-141 -1 -251 61t-168 163l116 77q94 -170 299 -170q121 0 179 52t57 135q0 82 -49 130t-156 95l-219 98q-147 66 -215 145t-68 193q1 178 181 262q-57 82 -57 212t106 228t272 97z
" />
    <glyph glyph-name="numbersign.tablining" horiz-adv-x="1187" 
d="M727 1053h-215q-57 -231 -59 -232h215zM209 1053v116h209l57 224h123q-27 -104 -55 -224h213l57 224h121l-55 -224h170v-116h-199l-59 -232h180v-116h-209l-55 -222h-123l55 222h-215l-14 -56q-12 -55 -27 -110l-14 -56h-121l55 222h-170v116h199l57 232h-180z" />
    <glyph glyph-name="zero.numerator" horiz-adv-x="970" 
d="M217 934q1 -160 73 -257t196 -97t196 97t72 257t-72 257t-196 97t-196 -97t-73 -257zM487 461q-177 0 -293 132t-116 342t115 341t293 131t293 -131q114 -131 114 -341t-114 -342t-292 -132z" />
    <glyph glyph-name="one.numerator" horiz-adv-x="507" 
d="M225 477v797h-182v119h317v-916h-135z" />
    <glyph glyph-name="two.numerator" horiz-adv-x="788" 
d="M39 477v19l391 391q131 131 131 248q0 71 -42 111t-118 40q-143 0 -200 -162l-121 39q37 115 120 179q84 64 210 65q126 0 206 -77t80 -195q0 -150 -164 -314l-145 -147q-61 -63 -113 -90l25 2q50 8 109 8h290v-117h-659z" />
    <glyph glyph-name="three.numerator" horiz-adv-x="782" 
d="M711 763q0 -136 -96 -219q-97 -83 -233 -83q-260 0 -353 196l114 58q66 -133 224 -133q96 0 150 52t54 143t-57 139q-58 48 -148 48t-143 -20l-10 19l207 251l74 70q-74 -6 -107 -6h-274v115h577v-13l-209 -256q-31 -37 -73 -65q135 -6 219 -83t84 -213z" />
    <glyph glyph-name="four.numerator" horiz-adv-x="827" 
d="M334 737h205v260l6 140q-37 -59 -84 -117l-164 -186q-16 -18 -42 -44l-60 -59q84 6 139 6zM539 477v156h-498v74l612 698h17v-668h106v-104h-106v-156h-131z" />
    <glyph glyph-name="five.numerator" horiz-adv-x="786" 
d="M383 1073q147 0 237 -80t91 -222q0 -142 -92 -226q-91 -84 -229 -84q-261 0 -361 194l110 60q70 -131 226 -131q96 0 152 50t56 141t-58 141t-173 50t-211 -75l-14 8v494h524v-117h-408v-238q59 35 150 35z" />
    <glyph glyph-name="six.numerator" horiz-adv-x="837" 
d="M425 575q95 1 153 61t57 146q0 86 -56 146q-57 60 -153 61q-96 0 -154 -60q-58 -61 -59 -147q1 -86 59 -146t153 -61zM425 461q-151 0 -249 92t-98 213t86 244l272 383h148l-160 -226q-49 -70 -113 -120q70 45 135 45q140 0 232 -90t92 -221q0 -132 -97 -226t-248 -94z
" />
    <glyph glyph-name="seven.numerator" horiz-adv-x="788" 
d="M66 1274v119h667v-19l-452 -897h-142l406 797h-479z" />
    <glyph glyph-name="eight.numerator" horiz-adv-x="813" 
d="M408 1016q72 0 112 40t41 103q0 63 -42 103q-41 40 -113 38q-72 0 -112 -38t-40 -102t41 -104t113 -40zM406 578q92 0 145 44t53 124t-53 125q-53 47 -144 47t-145 -48t-55 -126t53 -122t146 -44zM739 733q0 -121 -95 -195t-237 -75q-142 0 -238 75q-95 75 -95 195
q0 87 52 149t138 89q-137 49 -137 194q0 102 79 171t202 69q122 0 200 -69t78 -171q0 -143 -135 -194q88 -27 138 -88t50 -150z" />
    <glyph glyph-name="nine.numerator" horiz-adv-x="835" 
d="M412 881q96 0 154 60q58 61 58 147t-58 146t-153 60t-153 -60t-59 -145q0 -85 57 -147q58 -61 154 -61zM389 778q-139 0 -230 89t-91 221t96 226t246 95q150 0 249 -93t99 -216t-86 -242l-275 -381h-147l164 228q37 51 94 102l18 18q-68 -47 -137 -47z" />
    <glyph glyph-name="zero.denominator" horiz-adv-x="970" 
d="M486 813q-124 0 -196 -97t-73 -258q1 -162 73 -258t196 -96t196 96t72 258q0 161 -72 258t-196 97zM486 -16q-180 0 -294 132t-114 342t116 342t294 132t291 -132q114 -132 114 -342t-114 -342t-293 -132z" />
    <glyph glyph-name="one.denominator" horiz-adv-x="507" 
d="M225 0v797h-182v118h317v-915h-135z" />
    <glyph glyph-name="two.denominator" horiz-adv-x="774" 
d="M39 0v18l385 396q123 125 123 243q0 68 -40 110t-114 42q-135 0 -192 -162l-121 39q35 116 117 180q83 64 205 64t201 -76t79 -210t-156 -296l-147 -149q-19 -23 -61 -56t-50 -37l25 3q25 2 57 5t51 3h283v-117h-645z" />
    <glyph glyph-name="three.denominator" horiz-adv-x="782" 
d="M711 286q0 -136 -96 -219q-97 -83 -233 -83q-260 0 -353 196l114 58q66 -133 224 -134q96 0 150 52t54 144q0 91 -57 139q-58 48 -148 48t-143 -20l-10 18l207 252l74 70q-74 -6 -107 -6h-274v114h577v-10l-209 -258q-31 -37 -73 -65q135 -6 219 -83t84 -213z" />
    <glyph glyph-name="four.denominator" horiz-adv-x="827" 
d="M330 260h209v283l6 139q-39 -66 -84 -117l-168 -209q-41 -47 -84 -82l-21 -20l25 2q54 4 117 4zM539 0v156h-498v73l612 699h17v-668h106v-104h-106v-156h-131z" />
    <glyph glyph-name="five.denominator" horiz-adv-x="786" 
d="M383 598q147 0 237 -81t91 -223q0 -142 -92 -226q-91 -84 -229 -84q-261 0 -361 194l110 60q70 -131 226 -132q96 0 152 52t56 141q0 90 -58 140t-173 50t-211 -75l-14 8v493h524v-116h-408v-238q63 37 150 37z" />
    <glyph glyph-name="six.denominator" horiz-adv-x="837" 
d="M425 98q95 0 153 60t57 147q0 87 -56 147q-57 60 -153 60t-154 -60t-59 -146q1 -86 59 -148q58 -60 153 -60zM426 -16q-150 0 -249 93t-99 213t86 245l272 380h148l-160 -225q-49 -70 -113 -121q70 45 135 45q140 0 232 -89t92 -221t-97 -226t-247 -94z" />
    <glyph glyph-name="seven.denominator" horiz-adv-x="788" 
d="M66 797v118h667v-18l-452 -897h-142l406 797h-479z" />
    <glyph glyph-name="eight.denominator" horiz-adv-x="813" 
d="M408 539q72 0 112 40t41 103q0 63 -42 102q-41 39 -113 39t-112 -39t-40 -102t41 -103t113 -40zM406 100q92 0 145 45t53 124t-54 125t-144 46t-144 -46t-55 -125t53 -124t146 -45zM739 256q0 -122 -95 -196t-237 -74t-238 74q-95 75 -95 196q0 88 52 150t138 88
q-137 49 -137 194q0 102 79 171t202 69q122 0 200 -69t78 -171q0 -143 -135 -194q88 -27 138 -88t50 -150z" />
    <glyph glyph-name="nine.denominator" horiz-adv-x="835" 
d="M412 403q96 1 154 61t58 146t-58 146t-153 61q-95 0 -153 -60q-58 -59 -59 -145t57 -148t154 -61zM389 301q-139 0 -230 89t-91 221q0 133 96 227t246 94t249 -92t99 -216t-86 -243l-275 -381h-147l164 227q28 39 94 105l18 16q-68 -47 -137 -47z" />
    <glyph glyph-name="zero.subscript" horiz-adv-x="825" 
d="M414 -424q104 0 166 82q61 82 61 219t-61 219q-62 82 -166 82t-166 -83t-64 -218q0 -135 63 -218t167 -83zM414 -524q-152 0 -249 112t-97 289q0 178 97 290t249 112t248 -112t96 -290q0 -177 -96 -289t-248 -112z" />
    <glyph glyph-name="one.subscript" horiz-adv-x="430" 
d="M190 -512v678h-155v100h270v-778h-115z" />
    <glyph glyph-name="two.subscript" horiz-adv-x="657" 
d="M33 -512v16l327 336q104 106 105 207q0 57 -34 93t-97 36q-117 0 -164 -137l-102 33q64 204 274 206q104 0 172 -64q66 -66 66 -178t-134 -251l-124 -129l-95 -78q78 8 115 8h240v-98h-549z" />
    <glyph glyph-name="three.subscript" horiz-adv-x="661" 
d="M602 -268q0 -116 -81 -188q-81 -70 -197 -70t-190 46q-75 46 -111 122l98 49q61 -115 188 -115q84 0 130 45t46 123q0 158 -188 158q-76 0 -111 -19l-10 17l178 215l62 59q-63 -6 -90 -6h-232v98h492v-10l-178 -217q-19 -27 -52 -47l-10 -10q116 -4 186 -69t70 -181z" />
    <glyph glyph-name="four.subscript" horiz-adv-x="702" 
d="M281 -291h178v240l4 119q-33 -55 -72 -99l-141 -178l-90 -88q80 6 121 6zM459 -512v133h-424v62l520 593h14v-567h90v-88h-90v-133h-110z" />
    <glyph glyph-name="five.subscript" horiz-adv-x="667" 
d="M313 -526q-207 0 -290 166l94 51q59 -113 192 -113q80 0 128 43t48 120t-50 120t-145 43t-181 -66l-13 8v420h447v-98h-348v-205q55 33 129 33q126 0 202 -69t76 -189t-78 -192t-211 -72z" />
    <glyph glyph-name="six.subscript" horiz-adv-x="712" 
d="M361 -428q81 0 131 51q49 51 49 124t-49 125q-48 52 -130 52t-132 -52t-50 -124t50 -124t131 -52zM362 -526q-128 0 -212 80t-84 181t73 208l232 323h125l-136 -192q-16 -23 -94 -101q57 37 113 37q119 0 198 -76t79 -188t-84 -192q-83 -80 -210 -80z" />
    <glyph glyph-name="seven.subscript" horiz-adv-x="667" 
d="M55 166v100h568v-16l-385 -762h-119l344 678h-408z" />
    <glyph glyph-name="eight.subscript" horiz-adv-x="681" 
d="M341 -53q60 0 95 34t35 88t-35 87q-35 32 -96 32t-96 -32t-35 -87q0 -54 36 -88t96 -34zM340 -426q78 0 124 38t46 104t-46 107q-46 40 -123 40t-124 -40t-47 -107q0 -66 46 -104t124 -38zM623 -306q0 -90 -80 -154t-202 -64t-203 64t-81 153q0 161 160 217
q-115 45 -115 164q0 88 67 145t172 57t172 -57t67 -145q0 -121 -117 -166q160 -50 160 -214z" />
    <glyph glyph-name="nine.subscript" horiz-adv-x="710" 
d="M349 -170q81 0 131 52t50 125t-49 124t-130 51t-131 -52t-50 -123t49 -124t130 -53zM332 -256q-117 0 -196 76t-79 188t82 193q82 80 210 80t212 -79q84 -78 84 -184t-74 -206l-233 -324h-125l139 193q53 70 88 100q-53 -37 -108 -37z" />
    <glyph glyph-name="zero.superscript" horiz-adv-x="825" 
d="M414 702q104 0 166 82q61 82 61 220t-61 219q-62 82 -166 82t-166 -83t-64 -218q0 -134 63 -218t167 -84zM414 602q-152 0 -249 112t-97 290t97 290t249 113q152 0 248 -113q96 -112 96 -290t-96 -290t-248 -112z" />
    <glyph glyph-name="one.superscript" horiz-adv-x="430" 
d="M190 614v678h-155v101h270v-779h-115z" />
    <glyph glyph-name="two.superscript" horiz-adv-x="669" 
d="M33 614v17l334 332q111 111 110 211q0 59 -36 94t-99 35q-125 0 -172 -138l-102 33q66 207 274 207q114 0 182 -66t68 -165q0 -127 -139 -267l-123 -125q-26 -26 -80 -65l-17 -12q76 10 113 10h248v-101h-561z" />
    <glyph glyph-name="three.superscript" horiz-adv-x="661" 
d="M311 600q-207 0 -288 166l98 51q59 -113 188 -112q84 0 130 44q46 45 46 121t-49 118t-131 42t-119 -20l-10 16l178 215l62 59q-63 -6 -90 -6h-232v99h492v-11l-178 -217q-33 -43 -62 -57q116 -4 186 -69t70 -181t-81 -188q-81 -70 -210 -70z" />
    <glyph glyph-name="four.superscript" horiz-adv-x="702" 
d="M459 836v255l4 76v7q-44 -66 -72 -99l-139 -157q-24 -32 -72 -74l-14 -15q72 6 119 7h174zM459 614v134h-424v61l520 594h14v-567h90v-88h-90v-134h-110z" />
    <glyph glyph-name="five.superscript" horiz-adv-x="667" 
d="M313 600q-207 0 -290 166l94 51q59 -113 192 -112q80 0 128 43q48 44 48 120t-50 119t-145 43t-181 -65l-13 8v420h447v-99h-348v-202q57 31 129 30q126 0 202 -68t76 -190q0 -120 -78 -192t-211 -72z" />
    <glyph glyph-name="six.superscript" horiz-adv-x="712" 
d="M180 874q0 -72 50 -124t131 -52t131 52t49 124q0 72 -49 124q-48 52 -130 52t-132 -52t-50 -124zM362 600q-128 0 -212 79t-84 181t73 207l232 326h125l-136 -191q-37 -51 -94 -100q53 35 113 35q119 0 198 -76t79 -188q0 -113 -84 -193q-83 -80 -210 -80z" />
    <glyph glyph-name="seven.superscript" horiz-adv-x="667" 
d="M55 1292v101h568v-17l-385 -762h-119l344 678h-408z" />
    <glyph glyph-name="eight.superscript" horiz-adv-x="681" 
d="M341 1073q60 0 95 33t35 87t-35 88t-95 34t-96 -34t-36 -87t36 -87t96 -34zM340 698q78 0 124 38t46 106t-46 106t-123 39q-77 0 -124 -39q-47 -38 -47 -106t46 -106t124 -38zM623 818q0 -88 -80 -152t-202 -64t-203 64t-81 151q0 166 160 217q-115 45 -115 166
q0 86 67 144t172 59q105 0 172 -58t67 -145q0 -121 -117 -166q160 -50 160 -216z" />
    <glyph glyph-name="nine.superscript" horiz-adv-x="710" 
d="M349 958q81 0 131 52t50 124q0 74 -49 124t-130 50t-131 -52t-50 -122t49 -124q49 -52 130 -52zM332 870q-117 0 -196 76t-79 189t82 193t210 79q128 0 212 -80t84 -184t-74 -205l-233 -324h-125l139 193q37 49 88 100q-53 -37 -108 -37z" />
    <glyph glyph-name="G.alt" horiz-adv-x="1560" 
d="M814 -16q-308 0 -515 202t-207 510q0 309 208 511t509 202q387 0 565 -281l-117 -84q-147 231 -448 232q-243 0 -403 -165t-160 -415t161 -414t395 -165q234 1 370 117t163 290h-497v131h657q-5 -305 -189 -488t-492 -183z" />
    <glyph glyph-name="M.alt" horiz-adv-x="1705" 
d="M133 0l154 1409h20l477 -805q38 -59 60 -121l10 -22q35 86 70 143l477 805h18l154 -1409h-150l-96 850q-12 100 -12 207q-35 -104 -88 -197l-369 -627h-16l-367 627q-33 53 -90 199q0 -109 -12 -209l-97 -850h-143z" />
    <glyph glyph-name="Q.alt1" horiz-adv-x="1652" 
d="M756 410h141v-295q217 25 354 185t137 404q0 242 -159 407q-160 165 -403 165q-242 0 -402 -165t-160 -408t138 -403t354 -185v295zM897 -330h-141v316q-276 25 -461 222q-184 198 -184 498t206 502q207 201 509 201t509 -201t207 -502t-184 -497t-461 -221v-318z" />
    <glyph glyph-name="Q.alt2" horiz-adv-x="1650" 
d="M824 1276q-242 0 -402 -165t-160 -414t160 -413t402 -163q243 0 403 164q159 165 159 413t-159 413q-160 165 -403 165zM1200 -266q-80 0 -161 32t-121 60t-106 79q-66 49 -103 73q-111 70 -207 69q-152 0 -248 -149l-100 82q80 125 219 165q-125 93 -195 235t-69 316
q0 311 206 512q207 201 509 201t509 -201t207 -500t-182 -490t-457 -216q57 -45 90 -69q93 -68 211 -67q117 1 201 93l100 -90q-115 -135 -303 -135z" />
    <glyph glyph-name="a.alt" horiz-adv-x="1122" 
d="M536 109q132 0 213 89t80 226q0 137 -81 226q-82 89 -213 89t-209 -87t-78 -227t78 -228t210 -88zM504 -16q-172 0 -289 127t-117 315t117 314t291 126q223 0 323 -200l-4 182h144v-848h-144l4 182q-45 -88 -129 -143t-196 -55z" />
    <glyph glyph-name="g.alt" horiz-adv-x="964" 
d="M178 -166q0 -176 293 -176q143 0 224 47t81 126t-51 113t-184 42l-213 14q-150 -45 -150 -166zM478 373q95 0 150 52q54 52 54 139t-54 139q-54 53 -150 53t-149 -52q-55 -52 -55 -140q0 -87 54 -139t150 -52zM909 848v-109h-166q68 -73 68 -189t-92 -202t-238 -86
q-102 0 -174 39q-70 -18 -69 -86q0 -80 110 -86l217 -16q356 -27 357 -269q0 -139 -121 -220t-327 -81t-322 75t-115 204q0 160 201 221q-119 39 -119 153t117 160q-92 80 -92 210t94 215q96 85 243 85q66 0 121 -18h307z" />
    <glyph glyph-name="u.alt" horiz-adv-x="1036" 
d="M515 -18q-175 0 -273 103t-99 290v473h144v-467q0 -272 232 -272t233 272v467h141v-473q0 -184 -101 -289q-102 -104 -277 -104z" />
    <glyph glyph-name="Gbreve.alt" horiz-adv-x="1560" 
d="M811 1536q-115 0 -183 66t-85 174l114 18q33 -145 154 -145t154 145l114 -18q-17 -108 -85 -174t-183 -66zM814 -16q-308 0 -515 202t-207 510q0 309 208 511t509 202q387 0 565 -281l-117 -84q-147 231 -448 232q-243 0 -403 -165t-160 -415t161 -414t395 -165
q234 1 370 117t163 290h-497v131h657q-5 -305 -189 -488t-492 -183z" />
    <glyph glyph-name="Gcircumflex.alt" horiz-adv-x="1560" 
d="M814 -16q-308 0 -515 202t-207 510q0 309 208 511t509 202q387 0 565 -281l-117 -84q-147 231 -448 232q-243 0 -403 -165t-160 -415t161 -414t395 -165q234 1 370 117t163 290h-497v131h657q-5 -305 -189 -488t-492 -183zM539 1544l262 395h18l262 -395h-118l-152 207
l-154 -207h-118z" />
    <glyph glyph-name="Gcommaaccent.alt" horiz-adv-x="1607" 
d="M814 -16q-308 0 -515 202t-207 510q0 309 208 511t509 202q387 0 565 -281l-117 -84q-147 231 -448 232q-243 0 -403 -165t-160 -415t161 -414t395 -165q234 1 370 117t163 290h-497v131h657q-5 -305 -189 -488t-492 -183zM709 -221q-1 39 31 69t74 31q42 0 74 -31
q32 -32 32 -70t-25 -83l-109 -219h-77l65 202q-27 10 -46 36t-19 65z" />
    <glyph glyph-name="Gdotaccent.alt" horiz-adv-x="1607" 
d="M811 1548q-41 0 -72 29t-30 72t31 73t71 29q41 0 72 -30q31 -31 31 -73t-32 -71q-30 -29 -71 -29zM814 -16q-308 0 -515 202t-207 510q0 309 208 511t509 202q387 0 565 -281l-117 -84q-147 231 -448 232q-243 0 -403 -165t-160 -415t161 -414t395 -165q234 1 370 117
t163 290h-497v131h657q-5 -305 -189 -488t-492 -183z" />
    <glyph glyph-name="aacute.alt" horiz-adv-x="1122" 
d="M536 109q132 0 213 89t80 226q0 137 -81 226q-82 89 -213 89t-209 -87t-78 -227t78 -228t210 -88zM504 -16q-172 0 -289 127t-117 315t117 314t291 126q223 0 323 -200l-4 182h144v-848h-144l4 182q-45 -88 -129 -143t-196 -55zM504 1020l139 395h164l-191 -395h-112z
" />
    <glyph glyph-name="abreve.alt" horiz-adv-x="1122" 
d="M561 1022q-115 0 -183 66t-85 174l115 18q34 -145 154 -145t153 145l114 -18q-17 -108 -85 -174t-183 -66zM536 109q132 0 213 89t80 226q0 137 -81 226q-82 89 -213 89t-209 -87t-78 -227t78 -228t210 -88zM504 -16q-172 0 -289 127t-117 315t117 314t291 126
q223 0 323 -200l-4 182h144v-848h-144l4 182q-45 -88 -129 -143t-196 -55z" />
    <glyph glyph-name="acircumflex.alt" horiz-adv-x="1122" 
d="M536 109q132 0 213 89t80 226q0 137 -81 226q-82 89 -213 89t-209 -87t-78 -227t78 -228t210 -88zM504 -16q-172 0 -289 127t-117 315t117 314t291 126q223 0 323 -200l-4 182h144v-848h-144l4 182q-45 -88 -129 -143t-196 -55zM289 1030l262 395h18l262 -395h-118
l-152 207l-153 -207h-119z" />
    <glyph glyph-name="adieresis.alt" horiz-adv-x="1122" 
d="M536 109q132 0 213 89t80 226q0 137 -81 226q-82 89 -213 89t-209 -87t-78 -227t78 -228t210 -88zM504 -16q-172 0 -289 127t-117 315t117 314t291 126q223 0 323 -200l-4 182h144v-848h-144l4 182q-45 -88 -129 -143t-196 -55zM387 1100q-37 0 -65 28t-29 66q0 39 29 67
q30 27 66 27t65 -28t29 -66q0 -39 -29 -67q-29 -27 -66 -27zM735 1100q-37 0 -65 28t-29 66q0 39 29 67q30 27 66 27t65 -28t29 -66q0 -39 -29 -67q-29 -27 -66 -27z" />
    <glyph glyph-name="agrave.alt" horiz-adv-x="1122" 
d="M504 1020l-191 395h164l139 -395h-112zM536 109q132 0 213 89t80 226q0 137 -81 226q-82 89 -213 89t-209 -87t-78 -227t78 -228t210 -88zM504 -16q-172 0 -289 127t-117 315t117 314t291 126q223 0 323 -200l-4 182h144v-848h-144l4 182q-45 -88 -129 -143t-196 -55z
" />
    <glyph glyph-name="amacron.alt" horiz-adv-x="1122" 
d="M326 1104v113h471v-113h-471zM536 109q132 0 213 89t80 226q0 137 -81 226q-82 89 -213 89t-209 -87t-78 -227t78 -228t210 -88zM504 -16q-172 0 -289 127t-117 315t117 314t291 126q223 0 323 -200l-4 182h144v-848h-144l4 182q-45 -88 -129 -143t-196 -55z" />
    <glyph glyph-name="aogonek.alt" horiz-adv-x="1122" 
d="M536 109q132 0 213 89t80 226q0 137 -81 226q-82 89 -213 89t-209 -87t-78 -227t78 -228t210 -88zM887 -475q-80 0 -135 47q-56 47 -56 137t84 203l43 59l2 54q2 51 2 104l2 53q-45 -88 -130 -143t-195 -55q-172 0 -289 127t-117 315t117 314t291 126q223 0 323 -200
l-4 182h144v-817l-92 -152q-63 -103 -63 -157q-1 -97 79 -97q61 0 104 72l90 -51q-61 -121 -200 -121z" />
    <glyph glyph-name="aring.alt" horiz-adv-x="1120" 
d="M536 109q132 0 213 89t80 226q0 137 -81 226q-82 89 -213 89t-209 -87t-78 -227t78 -228t210 -88zM504 -16q-172 0 -289 127t-117 315t117 314t291 126q223 0 323 -200l-4 182h144v-848h-144l4 182q-45 -88 -129 -143t-196 -55zM561 1081q47 0 78 32t31 84t-30 83t-79 31
t-79 -31t-30 -83t32 -84q30 -32 77 -32zM561 991q-90 1 -152 61q-63 60 -63 145t62 145t153 60t153 -60t62 -145t-62 -145t-153 -61z" />
    <glyph glyph-name="atilde.alt" horiz-adv-x="1122" 
d="M435 1278q71 0 129 -52t76 -61q17 -10 40 -10q61 0 74 119l106 -10q-6 -109 -52 -167q-46 -59 -116 -59t-149 68q-41 37 -59 47t-40 10q-63 0 -75 -121l-107 9q6 109 54 168t119 59zM536 109q132 0 213 89t80 226q0 137 -81 226q-82 89 -213 89t-209 -87t-78 -227
t78 -228t210 -88zM504 -16q-172 0 -289 127t-117 315t117 314t291 126q223 0 323 -200l-4 182h144v-848h-144l4 182q-45 -88 -129 -143t-196 -55z" />
    <glyph glyph-name="gbreve.alt" horiz-adv-x="964" 
d="M500 1022q-115 0 -184 66t-85 174l115 18q33 -145 154 -145t153 145l115 -18q-16 -108 -84 -174t-184 -66zM178 -166q0 -176 293 -176q143 0 224 47t81 126t-51 113t-184 42l-213 14q-150 -45 -150 -166zM478 373q95 0 150 52q54 52 54 139t-54 139q-54 53 -150 53
t-149 -52q-55 -52 -55 -140q0 -87 54 -139t150 -52zM909 848v-109h-166q68 -73 68 -189t-92 -202t-238 -86q-102 0 -174 39q-70 -18 -69 -86q0 -80 110 -86l217 -16q356 -27 357 -269q0 -139 -121 -220t-327 -81t-322 75t-115 204q0 160 201 221q-119 39 -119 153t117 160
q-92 80 -92 210t94 215q96 85 243 85q66 0 121 -18h307z" />
    <glyph glyph-name="gcircumflex.alt" horiz-adv-x="964" 
d="M178 -166q0 -176 293 -176q143 0 224 47t81 126t-51 113t-184 42l-213 14q-150 -45 -150 -166zM478 373q95 0 150 52q54 52 54 139t-54 139q-54 53 -150 53t-149 -52q-55 -52 -55 -140q0 -87 54 -139t150 -52zM909 848v-109h-166q68 -73 68 -189t-92 -202t-238 -86
q-102 0 -174 39q-70 -18 -69 -86q0 -80 110 -86l217 -16q356 -27 357 -269q0 -139 -121 -220t-327 -81t-322 75t-115 204q0 160 201 221q-119 39 -119 153t117 160q-92 80 -92 210t94 215q96 85 243 85q66 0 121 -18h307zM229 1030l263 395h18l262 -395h-119l-151 207
l-154 -207h-119z" />
    <glyph glyph-name="gcommaaccent.alt" horiz-adv-x="966" 
d="M178 -166q0 -176 293 -176q143 0 224 47t81 126t-51 113t-184 42l-213 14q-150 -45 -150 -166zM478 373q95 0 150 52q54 52 54 139t-54 139q-54 53 -150 53t-149 -52q-55 -52 -55 -140q0 -87 54 -139t150 -52zM909 848v-109h-166q68 -73 68 -189t-92 -202t-238 -86
q-102 0 -174 39q-70 -18 -69 -86q0 -80 110 -86l217 -16q356 -27 357 -269q0 -139 -121 -220t-327 -81t-322 75t-115 204q0 160 201 221q-119 39 -119 153t117 160q-92 80 -92 210t94 215q96 85 243 85q66 0 121 -18h307zM602 1178q0 -38 -32 -70q-32 -31 -74 -31t-73 31
q-32 31 -32 70t25 84l108 219h78l-65 -203q27 -10 46 -36t19 -64z" />
    <glyph glyph-name="gdotaccent.alt" horiz-adv-x="966" 
d="M502 1094q-41 0 -72 28t-31 72q0 43 31 73q31 29 72 29q42 0 72 -30t30 -72q0 -44 -30 -72t-72 -28zM178 -166q0 -176 293 -176q143 0 224 47t81 126t-51 113t-184 42l-213 14q-150 -45 -150 -166zM478 373q95 0 150 52q54 52 54 139t-54 139q-54 53 -150 53t-149 -52
q-55 -52 -55 -140q0 -87 54 -139t150 -52zM909 848v-109h-166q68 -73 68 -189t-92 -202t-238 -86q-102 0 -174 39q-70 -18 -69 -86q0 -80 110 -86l217 -16q356 -27 357 -269q0 -139 -121 -220t-327 -81t-322 75t-115 204q0 160 201 221q-119 39 -119 153t117 160
q-92 80 -92 210t94 215q96 85 243 85q66 0 121 -18h307z" />
    <glyph glyph-name="uacute.alt" horiz-adv-x="1036" 
d="M515 -18q-175 0 -273 103t-99 290v473h144v-467q0 -272 232 -272t233 272v467h141v-473q0 -184 -101 -289q-102 -104 -277 -104zM461 1020l139 395h164l-191 -395h-112z" />
    <glyph glyph-name="ubreve.alt" horiz-adv-x="1036" 
d="M518 1022q-116 0 -184 66t-84 174l115 18q33 -145 153 -145t154 145l114 -18q-16 -108 -84 -174t-184 -66zM515 -18q-175 0 -273 103t-99 290v473h144v-467q0 -272 232 -272t233 272v467h141v-473q0 -184 -101 -289q-102 -104 -277 -104z" />
    <glyph glyph-name="ucircumflex.alt" horiz-adv-x="1036" 
d="M515 -18q-175 0 -273 103t-99 290v473h144v-467q0 -272 232 -272t233 272v467h141v-473q0 -184 -101 -289q-102 -104 -277 -104zM246 1030l262 395h18l262 -395h-118l-152 207l-153 -207h-119z" />
    <glyph glyph-name="udieresis.alt" horiz-adv-x="1036" 
d="M515 -18q-175 0 -273 103t-99 290v473h144v-467q0 -272 232 -272t233 272v467h141v-473q0 -184 -101 -289q-102 -104 -277 -104zM344 1100q-38 0 -66 28t-28 66q0 39 29 67q29 27 65 27t66 -28q28 -28 28 -66q0 -39 -28 -67q-29 -27 -66 -27zM692 1100q-38 0 -66 28
t-28 66q0 39 29 67q29 27 65 27t66 -28q28 -28 28 -66q0 -39 -28 -67q-29 -27 -66 -27z" />
    <glyph glyph-name="ugrave.alt" horiz-adv-x="1036" 
d="M515 -18q-175 0 -273 103t-99 290v473h144v-467q0 -272 232 -272t233 272v467h141v-473q0 -184 -101 -289q-102 -104 -277 -104zM461 1020l-191 395h164l139 -395h-112z" />
    <glyph glyph-name="uhungarumlaut.alt" horiz-adv-x="1038" 
d="M515 -18q-175 0 -273 103t-99 290v473h144v-467q0 -272 232 -272t233 272v467h141v-473q0 -184 -101 -289q-102 -104 -277 -104zM322 1034l137 396h155l-180 -396h-112zM604 1034l139 396h156l-182 -396h-113z" />
    <glyph glyph-name="umacron.alt" horiz-adv-x="1036" 
d="M515 -18q-175 0 -273 103t-99 290v473h144v-467q0 -272 232 -272t233 272v467h141v-473q0 -184 -101 -289q-102 -104 -277 -104zM283 1104v113h471v-113h-471z" />
    <glyph glyph-name="uogonek.alt" horiz-adv-x="1036" 
d="M143 375v473h144v-467q0 -272 232 -272t233 272v467h141v-473q0 -164 -80 -264t-221 -123l-66 -109q-63 -103 -63 -157q0 -98 80 -97q61 0 104 72l90 -51q-61 -121 -200 -121q-80 0 -136 47q-55 47 -55 137t84 203l53 70q-160 10 -250 113t-90 280z" />
    <glyph glyph-name="uring.alt" horiz-adv-x="1038" 
d="M515 -18q-175 0 -273 103t-99 290v473h144v-467q0 -272 232 -272t233 272v467h141v-473q0 -184 -101 -289q-102 -104 -277 -104zM518 1081q47 0 78 32t31 84t-30 83t-79 31t-79 -31q-29 -31 -29 -83t30 -84t78 -32zM518 991q-90 1 -152 61t-62 145t62 145t152 60t152 -60
t63 -145q-1 -85 -63 -145t-152 -61z" />
    <glyph glyph-name="f_b.alt" horiz-adv-x="1708" 
d="M1167 109q133 0 213 89t80 228t-80 226t-213 87t-216 -88t-83 -226t83 -227t216 -89zM1202 -16q-113 0 -201 54t-131 144l4 -182h-143v1157q0 219 -188 219q-89 0 -141 -54t-52 -165v-309h217v-121h-217v-727h-143v727h-137v121h137v311q0 164 97 255q96 91 238 91
t237 -86t95 -252v-493q102 193 330 192q172 0 289 -126t117 -315t-118 -315t-290 -126z" />
    <glyph glyph-name="f_f_b.alt" horiz-adv-x="2232" 
d="M1692 109q133 0 213 89t80 228t-80 226t-213 87t-216 -88t-83 -226t83 -227t216 -89zM207 1192q0 274 248 272q124 0 194 -90l-92 -90q-41 51 -102 51q-104 0 -105 -143v-344h381v311q0 164 97 255q96 91 238 91t238 -86t95 -252v-493q102 193 330 192q173 0 289 -126
t116 -315t-117 -315t-291 -126q-112 0 -200 54t-131 144l4 -182h-144v1157q0 219 -188 219q-88 0 -140 -54t-53 -165v-309h218v-121h-218v-727h-143v727h-381v-727h-143v727h-137v121h137v344z" />
    <glyph glyph-name="f_f_f_l.alt" horiz-adv-x="2086" 
d="M731 1212q0 273 249 273q124 0 194 -90l-93 -90q-41 51 -102 51q-104 0 -105 -144v-364h381v311q-1 164 97 255t239 91t237 -86t95 -252v-1167h-143v1157q0 219 -189 219q-88 0 -140 -54t-52 -165v-309h217v-121h-217v-727h-144v727h-381v-727h-143v727h-381v-727h-143
v727h-137v121h137v344q0 274 248 272q124 0 194 -90l-92 -90q-41 51 -102 51q-104 0 -105 -143v-344h381v364z" />
    <glyph glyph-name="f_f_h.alt" horiz-adv-x="2160" 
d="M207 1192q0 274 248 272q124 0 194 -90l-92 -90q-41 51 -102 51q-104 0 -105 -143v-344h381v311q0 164 97 255q96 91 238 91t238 -86t95 -252v-485q43 86 122 135t181 49q141 0 228 -93t87 -257v-516h-141v500q0 236 -211 235q-121 1 -194 -71t-72 -197v-467h-144v1157
q0 219 -188 219q-88 0 -140 -54t-53 -165v-309h218v-121h-218v-727h-143v727h-381v-727h-143v727h-137v121h137v344z" />
    <glyph glyph-name="f_f_k.alt" horiz-adv-x="2054" 
d="M207 1192q0 274 248 272q124 0 194 -90l-92 -90q-41 51 -102 51q-104 0 -105 -143v-344h381v311q0 164 97 255q96 91 238 91t238 -86t95 -252v-637q0 -53 -8 -118l401 436h166l-326 -356l377 -492h-170l-307 397l-133 -139v-258h-144v1157q0 219 -188 219q-88 0 -140 -54
t-53 -165v-309h218v-121h-218v-727h-143v727h-381v-727h-143v727h-137v121h137v344z" />
    <glyph glyph-name="ffl.alt" horiz-adv-x="1562" 
d="M207 1192q0 274 248 272q124 0 194 -90l-92 -90q-41 51 -102 51q-104 0 -105 -143v-344h381v311q0 164 97 255q96 91 238 91t238 -86t95 -252v-1167h-144v1157q0 219 -188 219q-88 0 -140 -54t-53 -165v-309h218v-121h-218v-727h-143v727h-381v-727h-143v727h-137v121
h137v344z" />
    <glyph glyph-name="f_h.alt" horiz-adv-x="1636" 
d="M207 0v727h-137v121h137v311q0 164 97 255q96 91 238 91t237 -86t95 -252v-485q43 86 122 135t182 49q141 0 228 -93t87 -257v-516h-141v500q0 236 -211 235q-121 1 -194 -71t-73 -197v-467h-143v1157q0 219 -188 219q-89 0 -141 -54t-52 -165v-309h217v-121h-217v-727
h-143z" />
    <glyph glyph-name="f_k.alt" horiz-adv-x="1529" 
d="M874 0h-143v1157q0 219 -188 219q-89 0 -141 -54t-52 -165v-309h217v-121h-217v-727h-143v727h-137v121h137v311q0 164 97 255q96 91 238 91t237 -86t95 -252v-637q0 -53 -8 -118l402 436h166l-326 -356l377 -492h-170l-307 397l-134 -139v-258z" />
    <glyph glyph-name="fl.alt" horiz-adv-x="1038" 
d="M207 0v727h-137v121h137v311q0 164 97 255q96 91 238 91t237 -86t95 -252v-1167h-143v1157q0 219 -188 219q-89 0 -141 -54t-52 -165v-309h217v-121h-217v-727h-143z" />
    <glyph glyph-name="space.up" horiz-adv-x="485" 
 />
    <glyph glyph-name="hyphen.up" horiz-adv-x="624" 
d="M94 479v129h436v-129h-436z" />
    <glyph glyph-name="endash.up" horiz-adv-x="927" 
d="M88 481v127h750v-127h-750z" />
    <glyph glyph-name="emdash.up" horiz-adv-x="1443" 
d="M88 481v127h1268v-127h-1268z" />
    <glyph glyph-name="guilsinglleft.up" horiz-adv-x="495" 
d="M270 172l-192 324v16l192 324h148l-197 -332l197 -332h-148z" />
    <glyph glyph-name="guilsinglright.up" horiz-adv-x="495" 
d="M78 172l196 330l-196 334h147l193 -326v-16l-193 -322h-147z" />
    <glyph glyph-name="guillemotleft.up" horiz-adv-x="813" 
d="M270 172l-192 324v16l192 324h148l-197 -332l197 -332h-148zM588 172l-193 324v16l193 324h147l-196 -332l196 -332h-147z" />
    <glyph glyph-name="guillemotright.up" horiz-adv-x="813" 
d="M78 172l196 330l-196 334h147l193 -326v-16l-193 -322h-147zM395 172l197 330l-197 334h148l192 -326v-16l-192 -322h-148z" />
    <glyph glyph-name="at.up" horiz-adv-x="1814" 
d="M891 307q104 0 174 80t70 194q0 115 -70 195t-174 80t-172 -79t-68 -195t68 -196q68 -79 172 -79zM918 -215q-348 0 -583 225q-235 226 -235 580t239 586t581 233q342 0 568 -216t226 -540q0 -227 -87 -343t-230 -115q-205 0 -238 190q-90 -197 -295 -197
q-154 0 -256 111t-102 281t102 284t254 113q190 0 273 -176l-5 157h142v-475q0 -90 30 -134t106 -44t128 85q51 85 51 261q0 283 -183 463q-182 180 -484 180t-493 -200t-191 -500q0 -301 187 -498t495 -196q184 0 335 82l54 -105q-172 -92 -389 -92z" />
    <glyph glyph-name="A.sc" horiz-adv-x="1050" 
d="M72 0l442 1044h21l444 -1044h-152l-82 203h-452l-82 -203h-139zM338 311h367l-132 322q-13 32 -32 95t-19 65l-8 -27q-21 -77 -45 -133z" />
    <glyph glyph-name="B.sc" horiz-adv-x="989" 
d="M295 610h237q152 0 152 151t-168 150h-221v-301zM295 121h260q199 0 199 188q0 86 -50 137t-151 52h-258v-377zM154 0v1032h376q144 0 220 -73t75 -185q0 -160 -137 -209q98 -25 155 -95q56 -70 56 -188t-87 -200t-247 -82h-411z" />
    <glyph glyph-name="C.sc" horiz-adv-x="1163" 
d="M629 -16q-225 0 -376 150t-151 381q0 230 152 382t377 152q274 0 420 -209l-113 -78q-113 160 -307 160q-166 0 -274 -116q-107 -116 -107 -290t108 -290t271 -115q219 0 329 170l115 -72q-141 -225 -444 -225z" />
    <glyph glyph-name="D.sc" horiz-adv-x="1087" 
d="M299 127h125q205 0 309 104q105 103 105 283t-104 286t-310 105h-125v-778zM154 0v1032h280q250 0 401 -141t151 -375t-151 -375t-401 -141h-280z" />
    <glyph glyph-name="E.sc" horiz-adv-x="933" 
d="M154 0v1032h653v-127h-508v-323h446v-121h-446v-336h528v-125h-673z" />
    <glyph glyph-name="F.sc" horiz-adv-x="899" 
d="M154 0v1032h645v-127h-500v-364h453v-127h-453v-414h-145z" />
    <glyph glyph-name="G.sc" horiz-adv-x="1171" 
d="M654 -16q-244 0 -398 150t-154 382q0 231 155 382t385 151t368 -146l-95 -96q-104 115 -277 115t-281 -117q-107 -117 -107 -291t108 -291t281 -117q172 0 283 82v197h-281v121h416v-389q-160 -133 -403 -133z" />
    <glyph glyph-name="H.sc" horiz-adv-x="1110" 
d="M154 0v1032h145v-461h514v461h143v-1032h-143v442h-514v-442h-145z" />
    <glyph glyph-name="I.sc" horiz-adv-x="462" 
d="M160 0v1032h143v-1032h-143z" />
    <glyph glyph-name="J.sc" horiz-adv-x="796" 
d="M350 -16q-201 0 -289 176l117 69q66 -119 168 -118q156 0 156 174v747h143v-753q0 -145 -81 -220t-214 -75z" />
    <glyph glyph-name="K.sc" horiz-adv-x="1015" 
d="M154 0v1032h145v-418q0 -88 -16 -202q96 158 118 186l344 434h162l-370 -463l428 -569h-174l-353 465l-139 -168v-297h-145z" />
    <glyph glyph-name="L.sc" horiz-adv-x="864" 
d="M154 0v1032h145v-905h481v-127h-626z" />
    <glyph glyph-name="M.sc" horiz-adv-x="1314" 
d="M293 0h-141v1044h18l489 -589l484 589h18v-1044h-141v565q0 117 12 178q-45 -90 -102 -159l-264 -322h-17l-264 322q-59 70 -104 159l12 -178v-565z" />
    <glyph glyph-name="N.sc" horiz-adv-x="1128" 
d="M840 1032h135v-1046h-21l-569 626q-70 72 -111 142q0 -2 8 -49t7 -123v-582h-135v1044h20l563 -620q23 -25 113 -145l-2 12l-8 160v581z" />
    <glyph glyph-name="O.sc" horiz-adv-x="1286" 
d="M643 111q172 1 284 115q111 114 111 289t-111 291q-112 116 -284 116t-284 -116q-111 -116 -111 -291t111 -290q112 -114 284 -114zM1186 517q0 -229 -158 -381t-384 -152t-385 152t-159 381q0 230 159 381t385 151t384 -151t158 -381z" />
    <glyph glyph-name="P.sc" horiz-adv-x="958" 
d="M299 481h162q264 0 264 213t-264 213h-162v-426zM154 0v1032h313q190 0 298 -87q107 -87 107 -250t-108 -250t-297 -87h-168v-358h-145z" />
    <glyph glyph-name="Q.sc" horiz-adv-x="1286" 
d="M643 109q111 0 195 53l-152 162l98 82l156 -170q98 110 98 282t-111 288q-112 116 -284 116t-284 -116q-111 -116 -111 -291t111 -291q112 -115 284 -115zM100 517q0 230 159 381t385 151t384 -151t158 -379t-160 -382l154 -164l-99 -82l-155 172q-127 -80 -283 -79
q-225 0 -384 152t-159 381z" />
    <glyph glyph-name="R.sc" horiz-adv-x="983" 
d="M299 498h162q264 0 264 204t-264 205h-162v-409zM154 0v1032h313q188 0 297 -85t108 -245q0 -233 -233 -299l258 -403h-166l-239 381q-12 -2 -37 -2h-156v-379h-145z" />
    <glyph glyph-name="S.sc" horiz-adv-x="872" 
d="M448 -16q-146 0 -243 62q-98 62 -146 159l117 65q82 -164 262 -164q88 0 144 44t57 112q0 70 -42 113t-144 88l-82 37q-117 48 -177 116t-60 180t81 182q82 70 207 71q195 0 297 -156l-109 -74q-74 109 -184 109q-70 0 -112 -36t-42 -96t34 -98t112 -71l84 -37
q141 -61 211 -135q69 -74 69 -197q0 -122 -94 -198t-240 -76z" />
    <glyph glyph-name="T.sc" horiz-adv-x="935" 
d="M395 0v905h-319v127h784v-127h-319v-905h-146z" />
    <glyph glyph-name="U.sc" horiz-adv-x="1064" 
d="M920 367q0 -183 -106 -283t-281 -100q-174 0 -281 99q-106 99 -107 284v665h146v-659q1 -262 243 -262t242 262v659h144v-665z" />
    <glyph glyph-name="V.sc" horiz-adv-x="1050" 
d="M516 -12l-446 1044h157l246 -588q27 -63 51 -157l8 -31q27 117 58 188l244 588h147l-442 -1044h-23z" />
    <glyph glyph-name="W.sc" horiz-adv-x="1490" 
d="M422 -12l-354 1044h155l189 -569q23 -82 31 -123q9 -41 12 -45q33 129 49 168l235 581h19l237 -579q33 -82 47 -146l7 -24q16 94 41 170l188 567h145l-352 -1044h-18l-256 620q-31 77 -47 146q-20 -80 -48 -146l-260 -620h-20z" />
    <glyph glyph-name="X.sc" horiz-adv-x="1044" 
d="M78 0l356 563l-297 469h162l166 -264q35 -59 57 -129q12 47 58 129l161 264h160l-295 -469l361 -563h-164l-217 344q-51 78 -70 133q-27 -78 -61 -133l-215 -344h-162z" />
    <glyph glyph-name="Y.sc" horiz-adv-x="987" 
d="M424 0v381l-356 651h163l199 -370q49 -92 70 -177q39 117 69 177l197 370h154l-351 -647v-385h-145z" />
    <glyph glyph-name="Z.sc" horiz-adv-x="950" 
d="M84 0v18l547 887h-473v127h698v-18l-547 -889h537v-125h-762z" />
    <glyph glyph-name="Oslash.sc" horiz-adv-x="1286" 
d="M971 756l-580 -566q109 -82 267 -82t271 116q112 114 111 292q1 140 -69 240zM632 924q-161 0 -274 -116t-112 -292q-1 -140 69 -244l582 566q-104 86 -265 86zM1186 500q0 -213 -158 -365q-158 -151 -369 -151t-360 116l-121 -116l-78 79l119 115q-119 145 -119 338
q0 231 159 382t372 151t360 -119l119 117l78 -80q-117 -115 -119 -115q117 -139 117 -352z" />
    <glyph glyph-name="AE.sc" horiz-adv-x="1513" 
d="M735 315v336q0 111 15 183q-29 -74 -91 -160l-239 -359h315zM1389 1032v-127h-510v-323h446v-121h-446v-336h528v-125h-672v199h-393l-133 -199h-152l701 1032h631z" />
    <glyph glyph-name="OE.sc" horiz-adv-x="1556" 
d="M664 127h110v778h-110q-206 0 -310 -104q-104 -105 -104 -285t104 -285q105 -104 310 -104zM653 0q-251 0 -401 141t-150 373t151 376q151 142 400 142h774v-127h-507v-323h446v-121h-446v-336h530v-125h-797z" />
    <glyph glyph-name="Eth.sc" horiz-adv-x="1087" 
d="M299 127h135q199 0 301 104q103 103 103 283t-102 286t-302 105h-135v-325h260v-121h-260v-332zM154 0v459h-111v121h111v452h290q244 0 394 -142t150 -374t-149 -374q-148 -142 -395 -142h-290z" />
    <glyph glyph-name="Dcroat.sc" horiz-adv-x="1087" 
d="M299 127h135q199 0 301 104q103 103 103 283t-102 286t-302 105h-135v-325h260v-121h-260v-332zM154 0v459h-111v121h111v452h290q244 0 394 -142t150 -374t-149 -374q-148 -142 -395 -142h-290z" />
    <glyph glyph-name="dotlessi.sc" horiz-adv-x="462" 
d="M160 0v1032h143v-1032h-143z" />
    <glyph glyph-name="Aacute.sc" horiz-adv-x="1050" 
d="M72 0l442 1044h21l444 -1044h-152l-82 203h-452l-82 -203h-139zM338 311h367l-132 322q-13 32 -32 95t-19 65l-8 -27q-21 -77 -45 -133zM469 1165l139 396h164l-190 -396h-113z" />
    <glyph glyph-name="Abreve.sc" horiz-adv-x="1050" 
d="M524 1163q-116 0 -184 66t-84 174l115 18q33 -145 153 -145t154 145l115 -18q-16 -109 -85 -175t-184 -65zM72 0l442 1044h21l444 -1044h-152l-82 203h-452l-82 -203h-139zM338 311h367l-132 322q-13 32 -32 95t-19 65l-8 -27q-21 -77 -45 -133z" />
    <glyph glyph-name="Acircumflex.sc" horiz-adv-x="1050" 
d="M72 0l442 1044h21l444 -1044h-152l-82 203h-452l-82 -203h-139zM338 311h367l-132 322q-13 32 -32 95t-19 65l-8 -27q-21 -77 -45 -133zM252 1169l262 396h18l263 -396h-119l-152 207l-153 -207h-119z" />
    <glyph glyph-name="Adieresis.sc" horiz-adv-x="1050" 
d="M72 0l442 1044h21l444 -1044h-152l-82 203h-452l-82 -203h-139zM338 311h367l-132 322q-13 32 -32 95t-19 65l-8 -27q-21 -77 -45 -133zM350 1196q-38 0 -66 28t-28 66t29 67q29 27 65 27t66 -28q28 -28 28 -66t-28 -66t-66 -28zM698 1196q-38 0 -66 28t-28 66t29 67
q29 27 65 27t66 -28q29 -28 29 -66t-29 -66t-66 -28z" />
    <glyph glyph-name="Agrave.sc" horiz-adv-x="1050" 
d="M467 1165l-191 396h164l140 -396h-113zM72 0l442 1044h21l444 -1044h-152l-82 203h-452l-82 -203h-139zM338 311h367l-132 322q-13 32 -32 95t-19 65l-8 -27q-21 -77 -45 -133z" />
    <glyph glyph-name="Amacron.sc" horiz-adv-x="1050" 
d="M72 0l442 1044h21l444 -1044h-152l-82 203h-452l-82 -203h-139zM338 311h367l-132 322q-13 32 -32 95t-19 65l-8 -27q-21 -77 -45 -133zM289 1217v112h471v-112h-471z" />
    <glyph glyph-name="Aogonek.sc" horiz-adv-x="1050" 
d="M338 311h367l-130 324q-8 20 -18 50l-17 51l-18 61q0 -29 -53 -162zM899 -475q-80 0 -135 47t-55 137t84 203l45 61l-93 230h-452l-82 -203h-139l442 1044h21l438 -1028l-82 -131q-47 -75 -60 -110q-12 -35 -12 -72t26 -59t62 -23q63 0 107 74l86 -49q-62 -121 -201 -121
z" />
    <glyph glyph-name="Aring.sc" horiz-adv-x="1050" 
d="M72 0l442 1044h21l444 -1044h-152l-82 203h-452l-82 -203h-139zM338 311h367l-132 322q-13 32 -32 95t-19 65l-8 -27q-21 -77 -45 -133zM524 1227q47 -1 78 31t31 84t-30 83t-79 31t-79 -31q-29 -31 -29 -83t30 -84q31 -31 78 -31zM524 1137q-90 0 -152 60t-62 145
q0 86 62 146t152 60t152 -60t63 -146q-1 -86 -63 -145q-62 -60 -152 -60z" />
    <glyph glyph-name="Atilde.sc" horiz-adv-x="1050" 
d="M398 1423q70 0 130 -51q58 -51 75 -61t40 -11q61 0 74 119l106 -10q-6 -109 -52 -167q-47 -58 -117 -58t-130 52t-76 62q-18 10 -40 11q-64 0 -76 -121l-107 8q7 109 55 168t118 59zM72 0l442 1044h21l444 -1044h-152l-82 203h-452l-82 -203h-139zM338 311h367l-132 322
q-13 32 -32 95t-19 65l-8 -27q-21 -77 -45 -133z" />
    <glyph glyph-name="Cacute.sc" horiz-adv-x="1163" 
d="M629 -16q-225 0 -376 150t-151 381q0 230 152 382t377 152q274 0 420 -209l-113 -78q-113 160 -307 160q-166 0 -274 -116q-107 -116 -107 -290t108 -290t271 -115q219 0 329 170l115 -72q-141 -225 -444 -225zM549 1165l139 396h164l-190 -396h-113z" />
    <glyph glyph-name="Ccaron.sc" horiz-adv-x="1163" 
d="M629 -16q-225 0 -376 150t-151 381q0 230 152 382t377 152q274 0 420 -209l-113 -78q-113 160 -307 160q-166 0 -274 -116q-107 -116 -107 -290t108 -290t271 -115q219 0 329 170l115 -72q-141 -225 -444 -225zM596 1153l-262 393h119l151 -207l154 207h119l-263 -393
h-18z" />
    <glyph glyph-name="Ccedilla.sc" horiz-adv-x="1163" 
d="M588 -475q-150 0 -209 121l84 51q39 -80 115 -80q40 0 68 26q28 25 28 69t-29 72t-84 28h-43v182q-184 37 -300 179t-116 357t152 367t377 152q274 0 420 -209l-113 -78q-113 160 -307 160q-166 0 -274 -116q-107 -116 -107 -290t108 -290t271 -115q219 0 329 170
l115 -72q-141 -225 -444 -225h-17v-93q72 -10 121 -59t49 -129t-58 -129t-136 -49z" />
    <glyph glyph-name="Ccircumflex.sc" horiz-adv-x="1163" 
d="M629 -16q-225 0 -376 150t-151 381q0 230 152 382t377 152q274 0 420 -209l-113 -78q-113 160 -307 160q-166 0 -274 -116q-107 -116 -107 -290t108 -290t271 -115q219 0 329 170l115 -72q-141 -225 -444 -225zM334 1169l262 396h18l263 -396h-119l-152 207l-153 -207
h-119z" />
    <glyph glyph-name="Cdotaccent.sc" horiz-adv-x="1163" 
d="M606 1190q-42 0 -72 29t-30 71t31 73q31 30 71 30t72 -30q31 -30 31 -73q0 -44 -31 -72t-72 -28zM629 -16q-225 0 -376 150t-151 381q0 230 152 382t377 152q274 0 420 -209l-113 -78q-113 160 -307 160q-166 0 -274 -116q-107 -116 -107 -290t108 -290t271 -115
q219 0 329 170l115 -72q-141 -225 -444 -225z" />
    <glyph glyph-name="Dcaron.sc" horiz-adv-x="1087" 
d="M496 1153l-263 393h119l152 -207l153 207h119l-262 -393h-18zM299 127h125q205 0 309 104q105 103 105 283t-104 286t-310 105h-125v-778zM154 0v1032h280q250 0 401 -141t151 -375t-151 -375t-401 -141h-280z" />
    <glyph glyph-name="Eacute.sc" horiz-adv-x="933" 
d="M442 1165l140 396h163l-190 -396h-113zM154 0v1032h653v-127h-508v-323h446v-121h-446v-336h528v-125h-673z" />
    <glyph glyph-name="Ecaron.sc" horiz-adv-x="933" 
d="M154 0v1032h653v-127h-508v-323h446v-121h-446v-336h528v-125h-673zM487 1153l-262 393h119l152 -207l153 207h119l-262 -393h-19z" />
    <glyph glyph-name="Ecircumflex.sc" horiz-adv-x="933" 
d="M154 0v1032h653v-127h-508v-323h446v-121h-446v-336h528v-125h-673zM225 1169l262 396h19l262 -396h-119l-151 207l-154 -207h-119z" />
    <glyph glyph-name="Edieresis.sc" horiz-adv-x="933" 
d="M154 0v1032h653v-127h-508v-323h446v-121h-446v-336h528v-125h-673zM324 1196q-37 0 -66 28t-29 66t29 67q29 27 66 27q38 0 66 -28t28 -66t-28 -66t-66 -28zM672 1196q-37 0 -66 28q-28 28 -28 66t28 67q29 27 66 27q38 0 66 -28t28 -66t-28 -66t-66 -28z" />
    <glyph glyph-name="Edotaccent.sc" horiz-adv-x="933" 
d="M498 1190q-41 0 -72 29t-31 71t31 73q31 30 72 30q42 0 72 -30t30 -73q0 -44 -30 -72t-72 -28zM154 0v1032h653v-127h-508v-323h446v-121h-446v-336h528v-125h-673z" />
    <glyph glyph-name="Egrave.sc" horiz-adv-x="933" 
d="M440 1165l-190 396h164l139 -396h-113zM154 0v1032h653v-127h-508v-323h446v-121h-446v-336h528v-125h-673z" />
    <glyph glyph-name="Emacron.sc" horiz-adv-x="933" 
d="M262 1217v112h471v-112h-471zM154 0v1032h653v-127h-508v-323h446v-121h-446v-336h528v-125h-673z" />
    <glyph glyph-name="Eogonek.sc" horiz-adv-x="933" 
d="M643 -475q-80 0 -135 47t-55 137t84 203l65 88h-448v1032h653v-127h-508v-323h446v-121h-446v-336h528v-125h-120l-74 -117q-70 -111 -70 -164t25 -75t61 -23q61 0 109 74l86 -49q-62 -121 -201 -121z" />
    <glyph glyph-name="Gbreve.sc" horiz-adv-x="1171" 
d="M606 1163q-116 0 -184 66t-84 174l115 18q33 -145 153 -145t154 145l114 -18q-16 -109 -84 -175t-184 -65zM654 -16q-244 0 -398 150t-154 382q0 231 155 382t385 151t368 -146l-95 -96q-104 115 -277 115t-281 -117q-107 -117 -107 -291t108 -291t281 -117q172 0 283 82
v197h-281v121h416v-389q-160 -133 -403 -133z" />
    <glyph glyph-name="Gcircumflex.sc" horiz-adv-x="1171" 
d="M654 -16q-244 0 -398 150t-154 382q0 231 155 382t385 151t368 -146l-95 -96q-104 115 -277 115t-281 -117q-107 -117 -107 -291t108 -291t281 -117q172 0 283 82v197h-281v121h416v-389q-160 -133 -403 -133zM334 1169l262 396h18l263 -396h-119l-152 207l-153 -207
h-119z" />
    <glyph glyph-name="Gcommaaccent.sc" horiz-adv-x="1171" 
d="M654 -16q-244 0 -398 150t-154 382q0 231 155 382t385 151t368 -146l-95 -96q-104 115 -277 115t-281 -117q-107 -117 -107 -291t108 -291t281 -117q172 0 283 82v197h-281v121h416v-389q-160 -133 -403 -133zM504 -221q0 39 32 69t74 31q42 0 73 -31q32 -32 32 -70
t-25 -83l-108 -219h-78l65 202q-27 10 -46 36t-19 65z" />
    <glyph glyph-name="Gdotaccent.sc" horiz-adv-x="1171" 
d="M654 -16q-244 0 -398 150t-154 382q0 231 155 382t385 151t368 -146l-95 -96q-104 115 -277 115t-281 -117q-107 -117 -107 -291t108 -291t281 -117q172 0 283 82v197h-281v121h416v-389q-160 -133 -403 -133zM606 1198q-42 0 -72 29t-30 71t31 73q31 30 71 30t72 -30
q31 -30 31 -73q0 -44 -31 -72t-72 -28z" />
    <glyph glyph-name="Hbar.sc" horiz-adv-x="1118" 
d="M299 567h522v154h-522v-154zM12 721v102h142v209h145v-209h522v209h144v-209h141v-102h-141v-721h-144v442h-522v-442h-145v721h-142z" />
    <glyph glyph-name="Hcircumflex.sc" horiz-adv-x="1110" 
d="M154 0v1032h145v-461h514v461h143v-1032h-143v442h-514v-442h-145zM287 1169l262 396h18l262 -396h-118l-152 207l-153 -207h-119z" />
    <glyph glyph-name="Iacute.sc" horiz-adv-x="462" 
d="M160 0v1032h143v-1032h-143zM176 1165l139 396h164l-190 -396h-113z" />
    <glyph glyph-name="Icircumflex.sc" horiz-adv-x="462" 
d="M160 0v1032h143v-1032h-143zM-39 1169l262 396h19l262 -396h-119l-152 207l-153 -207h-119z" />
    <glyph glyph-name="Idieresis.sc" horiz-adv-x="462" 
d="M68 1196q-37 0 -66 28t-29 66t29 68q29 28 66 28q38 0 66 -28t28 -68q0 -38 -28 -66t-66 -28zM396 1196q-38 0 -66 28t-29 66q0 38 29 68q28 28 66 28t66 -28t28 -68q0 -38 -28 -66t-66 -28zM160 0v1032h143v-1032h-143z" />
    <glyph glyph-name="Idotaccent.sc" horiz-adv-x="462" 
d="M233 1190q-41 0 -71 29t-31 71q0 42 31 73q32 30 72 30t71 -30t31 -73q0 -44 -31 -72t-72 -28zM160 0v1032h143v-1032h-143z" />
    <glyph glyph-name="Igrave.sc" horiz-adv-x="462" 
d="M176 1165l-190 396h164l139 -396h-113zM160 0v1032h143v-1032h-143z" />
    <glyph glyph-name="Imacron.sc" horiz-adv-x="462" 
d="M31 1219v112h401v-112h-401zM160 0v1032h143v-1032h-143z" />
    <glyph glyph-name="Iogonek.sc" horiz-adv-x="462" 
d="M160 1032h143v-1005l-90 -148q-63 -103 -63 -157q0 -98 79 -97q61 0 105 72l90 -51q-61 -121 -201 -121q-80 0 -135 47t-55 137t84 203l43 57v1063z" />
    <glyph glyph-name="Jcircumflex.sc" horiz-adv-x="796" 
d="M350 -16q-201 0 -289 176l117 69q66 -119 168 -118q156 0 156 174v747h143v-753q0 -145 -81 -220t-214 -75zM297 1169l262 396h19l262 -396h-119l-152 207l-153 -207h-119z" />
    <glyph glyph-name="Kcommaaccent.sc" horiz-adv-x="1009" 
d="M154 0v1032h145v-418q0 -88 -16 -202q96 158 118 186l344 434h162l-370 -463l428 -569h-174l-353 465l-139 -168v-297h-145zM422 -221q0 39 32 69t74 31q42 0 73 -31q32 -32 32 -70t-25 -83l-108 -219h-78l65 202q-27 10 -46 36t-19 65z" />
    <glyph glyph-name="Lacute.sc" horiz-adv-x="864" 
d="M178 1165l139 396h164l-190 -396h-113zM154 0v1032h145v-905h481v-127h-626z" />
    <glyph glyph-name="Lcaron.sc" horiz-adv-x="862" 
d="M154 0v1032h145v-905h481v-127h-626zM543 946q0 40 31 71q32 32 75 32t76 -32t33 -67t-27 -92l-115 -229h-75l69 213q-29 10 -48 37t-19 67z" />
    <glyph glyph-name="Lcommaaccent.sc" horiz-adv-x="862" 
d="M458 -121q42 0 74 -31q32 -32 31 -70q0 -38 -24 -83l-109 -219h-78l66 202q-27 10 -46 36q-20 26 -20 65t32 69t74 31zM154 0v1032h145v-905h481v-127h-626z" />
    <glyph glyph-name="Lslash.sc" horiz-adv-x="872" 
d="M162 0v365l-113 -46v125l113 48v540h145v-481l289 117v-123l-289 -119v-299h479v-127h-624z" />
    <glyph glyph-name="Nacute.sc" horiz-adv-x="1128" 
d="M514 1165l139 396h164l-190 -396h-113zM840 1032h135v-1046h-21l-569 626q-70 72 -111 142q0 -2 8 -49t7 -123v-582h-135v1044h20l563 -620q23 -25 113 -145l-2 12l-8 160v581z" />
    <glyph glyph-name="Ncaron.sc" horiz-adv-x="1128" 
d="M561 1153l-262 393h119l151 -207l154 207h119l-262 -393h-19zM840 1032h135v-1046h-21l-569 626q-70 72 -111 142q0 -2 8 -49t7 -123v-582h-135v1044h20l563 -620q23 -25 113 -145l-2 12l-8 160v581z" />
    <glyph glyph-name="Ncommaaccent.sc" horiz-adv-x="1128" 
d="M579 -121q41 0 73 -31q32 -32 32 -70t-25 -83l-108 -219h-78l66 202q-27 10 -46 36t-19 65t31 69q32 30 74 31zM840 1032h135v-1046h-21l-569 626q-70 72 -111 142q0 -2 8 -49t7 -123v-582h-135v1044h20l563 -620q23 -25 113 -145l-2 12l-8 160v581z" />
    <glyph glyph-name="Ntilde.sc" horiz-adv-x="1128" 
d="M444 1423q71 0 129 -51t75 -61t40 -11q61 0 74 119l106 -10q-6 -109 -52 -167t-116 -58t-130 52t-77 62t-40 11q-64 0 -76 -121l-107 8q6 109 54 168t120 59zM840 1032h135v-1046h-21l-569 626q-70 72 -111 142q0 -2 8 -49t7 -123v-582h-135v1044h20l563 -620
q23 -25 113 -145l-2 12l-8 160v581z" />
    <glyph glyph-name="Oacute.sc" horiz-adv-x="1286" 
d="M643 111q172 1 284 115q111 114 111 289t-111 291q-112 116 -284 116t-284 -116q-111 -116 -111 -291t111 -290q112 -114 284 -114zM1186 517q0 -229 -158 -381t-384 -152t-385 152t-159 381q0 230 159 381t385 151t384 -151t158 -381zM586 1165l139 396h164l-191 -396
h-112z" />
    <glyph glyph-name="Ocircumflex.sc" horiz-adv-x="1286" 
d="M643 111q172 1 284 115q111 114 111 289t-111 291q-112 116 -284 116t-284 -116q-111 -116 -111 -291t111 -290q112 -114 284 -114zM1186 517q0 -229 -158 -381t-384 -152t-385 152t-159 381q0 230 159 381t385 151t384 -151t158 -381zM371 1169l262 396h18l262 -396
h-118l-152 207l-154 -207h-118z" />
    <glyph glyph-name="Odieresis.sc" horiz-adv-x="1286" 
d="M643 111q172 1 284 115q111 114 111 289t-111 291q-112 116 -284 116t-284 -116q-111 -116 -111 -291t111 -290q112 -114 284 -114zM1186 517q0 -229 -158 -381t-384 -152t-385 152t-159 381q0 230 159 381t385 151t384 -151t158 -381zM467 1196q-37 0 -66 28t-29 66
t29 67q29 27 66 27t65 -28t29 -66q-1 -38 -29 -66t-65 -28zM815 1196q-37 0 -65 28t-29 66q0 38 29 67q30 27 66 27t65 -28t29 -66t-30 -66q-28 -28 -65 -28z" />
    <glyph glyph-name="Ograve.sc" horiz-adv-x="1286" 
d="M643 111q172 1 284 115q111 114 111 289t-111 291q-112 116 -284 116t-284 -116q-111 -116 -111 -291t111 -290q112 -114 284 -114zM1186 517q0 -229 -158 -381t-384 -152t-385 152t-159 381q0 230 159 381t385 151t384 -151t158 -381zM586 1165l-191 396h164l139 -396
h-112z" />
    <glyph glyph-name="Ohungarumlaut.sc" horiz-adv-x="1286" 
d="M643 111q172 1 284 115q111 114 111 289t-111 291q-112 116 -284 116t-284 -116q-111 -116 -111 -291t111 -290q112 -114 284 -114zM1186 517q0 -229 -158 -381t-384 -152t-385 152t-159 381q0 230 159 381t385 151t384 -151t158 -381zM444 1180l138 395h155l-180 -395
h-113zM727 1180l139 395h156l-182 -395h-113z" />
    <glyph glyph-name="Omacron.sc" horiz-adv-x="1286" 
d="M643 111q172 1 284 115q111 114 111 289t-111 291q-112 116 -284 116t-284 -116q-111 -116 -111 -291t111 -290q112 -114 284 -114zM1186 517q0 -229 -158 -381t-384 -152t-385 152t-159 381q0 230 159 381t385 151t384 -151t158 -381zM406 1217v112h471v-112h-471z" />
    <glyph glyph-name="Otilde.sc" horiz-adv-x="1286" 
d="M515 1423q71 0 129 -51t76 -61q17 -10 40 -11q61 0 74 119l106 -10q-6 -109 -52 -167t-116 -58t-130 52t-78 62t-40 11q-63 0 -75 -121l-107 8q6 109 54 168t119 59zM643 111q172 1 284 115q111 114 111 289t-111 291q-112 116 -284 116t-284 -116q-111 -116 -111 -291
t111 -290q112 -114 284 -114zM1186 517q0 -229 -158 -381t-384 -152t-385 152t-159 381q0 230 159 381t385 151t384 -151t158 -381z" />
    <glyph glyph-name="Racute.sc" horiz-adv-x="983" 
d="M299 498h162q264 0 264 204t-264 205h-162v-409zM154 0v1032h313q188 0 297 -85t108 -245q0 -233 -233 -299l258 -403h-166l-239 381q-12 -2 -37 -2h-156v-379h-145zM426 1165l139 396h164l-190 -396h-113z" />
    <glyph glyph-name="Rcaron.sc" horiz-adv-x="983" 
d="M299 498h162q264 0 264 204t-264 205h-162v-409zM154 0v1032h313q188 0 297 -85t108 -245q0 -233 -233 -299l258 -403h-166l-239 381q-12 -2 -37 -2h-156v-379h-145zM473 1153l-262 393h119l151 -207l154 207h119l-262 -393h-19z" />
    <glyph glyph-name="Rcommaaccent.sc" horiz-adv-x="983" 
d="M299 498h162q264 0 264 204t-264 205h-162v-409zM154 0v1032h313q188 0 297 -85t108 -245q0 -233 -233 -299l258 -403h-166l-239 381q-12 -2 -37 -2h-156v-379h-145zM499 -121q41 0 73 -31q32 -32 32 -70t-24 -83l-109 -219h-78l66 202q-27 10 -46 36t-19 65t31 69
q32 30 74 31z" />
    <glyph glyph-name="Sacute.sc" horiz-adv-x="872" 
d="M448 -16q-146 0 -243 62q-98 62 -146 159l117 65q82 -164 262 -164q88 0 144 44t57 112q0 70 -42 113t-144 88l-82 37q-117 48 -177 116t-60 180t81 182q82 70 207 71q195 0 297 -156l-109 -74q-74 109 -184 109q-70 0 -112 -36t-42 -96t34 -98t112 -71l84 -37
q141 -61 211 -135q69 -74 69 -197q0 -122 -94 -198t-240 -76zM375 1165l139 396h164l-191 -396h-112z" />
    <glyph glyph-name="Scaron.sc" horiz-adv-x="872" 
d="M448 -16q-146 0 -243 62q-98 62 -146 159l117 65q82 -164 262 -164q88 0 144 44t57 112q0 70 -42 113t-144 88l-82 37q-117 48 -177 116t-60 180t81 182q82 70 207 71q195 0 297 -156l-109 -74q-74 109 -184 109q-70 0 -112 -36t-42 -96t34 -98t112 -71l84 -37
q141 -61 211 -135q69 -74 69 -197q0 -122 -94 -198t-240 -76zM422 1153l-262 393h119l151 -207l154 207h118l-262 -393h-18z" />
    <glyph glyph-name="Scedilla.sc" horiz-adv-x="872" 
d="M449 -475q-145 0 -207 121l82 51q41 -80 116 -80q41 0 69 26q28 25 28 69t-29 72t-84 28h-43v176q-115 12 -198 71t-124 146l117 65q82 -164 262 -164q88 0 144 44t57 112q0 70 -42 113t-144 88l-82 37q-117 48 -177 116t-60 180t81 182q82 70 207 71q195 0 297 -156
l-109 -74q-74 109 -184 109q-70 0 -112 -36t-42 -96t34 -98t112 -71l84 -37q141 -61 211 -135q69 -74 69 -193q0 -120 -84 -194t-223 -82v-95q72 -10 121 -59t49 -129t-58 -129t-138 -49z" />
    <glyph glyph-name="Scircumflex.sc" horiz-adv-x="872" 
d="M448 -16q-146 0 -243 62q-98 62 -146 159l117 65q82 -164 262 -164q88 0 144 44t57 112q0 70 -42 113t-144 88l-82 37q-117 48 -177 116t-60 180t81 182q82 70 207 71q195 0 297 -156l-109 -74q-74 109 -184 109q-70 0 -112 -36t-42 -96t34 -98t112 -71l84 -37
q141 -61 211 -135q69 -74 69 -197q0 -122 -94 -198t-240 -76zM160 1169l262 396h18l262 -396h-118l-152 207l-153 -207h-119z" />
    <glyph glyph-name="Scommaaccent.sc" horiz-adv-x="872" 
d="M448 -16q-146 0 -243 62q-98 62 -146 159l117 65q82 -164 262 -164q88 0 144 44t57 112q0 70 -42 113t-144 88l-82 37q-117 48 -177 116t-60 180t81 182q82 70 207 71q195 0 297 -156l-109 -74q-74 109 -184 109q-70 0 -112 -36t-42 -96t34 -98t112 -71l84 -37
q141 -61 211 -135q69 -74 69 -197q0 -122 -94 -198t-240 -76zM330 -221q0 39 32 69t73 31q42 0 74 -31q32 -32 32 -70t-25 -83l-108 -219h-78l65 202q-27 10 -46 36t-19 65z" />
    <glyph glyph-name="Tcaron.sc" horiz-adv-x="935" 
d="M459 1153l-262 393h118l152 -207l154 207h118l-262 -393h-18zM395 0v905h-319v127h784v-127h-319v-905h-146z" />
    <glyph glyph-name="uni021A.sc" horiz-adv-x="935" 
d="M395 0v905h-319v127h784v-127h-319v-905h-27v-109q72 -10 121 -59t49 -129t-58 -129t-139 -49q-147 0 -206 121l81 51q41 -80 117 -80q41 0 69 26q28 25 28 69t-29 72t-84 28h-43v188h-25z" />
    <glyph glyph-name="Tcommaaccent.sc" horiz-adv-x="935" 
d="M367 -221q-1 39 31 69t74 31q42 0 74 -31q32 -32 32 -70t-25 -83l-109 -219h-77l65 202q-27 10 -46 36t-19 65zM395 0v905h-319v127h784v-127h-319v-905h-146z" />
    <glyph glyph-name="Thorn.sc" horiz-adv-x="974" 
d="M299 334h174q133 0 193 51q59 51 59 151t-59 152q-59 51 -193 51h-174v-405zM154 0v1032h145v-168h180q193 0 293 -83t100 -243t-100 -245q-100 -84 -293 -84h-180v-209h-145z" />
    <glyph glyph-name="Uacute.sc" horiz-adv-x="1064" 
d="M477 1165l139 396h164l-190 -396h-113zM920 367q0 -183 -106 -283t-281 -100q-174 0 -281 99q-106 99 -107 284v665h146v-659q1 -262 243 -262t242 262v659h144v-665z" />
    <glyph glyph-name="Ubreve.sc" horiz-adv-x="1064" 
d="M532 1163q-116 0 -184 66t-84 174l115 18q33 -145 153 -145t154 145l115 -18q-16 -109 -85 -175t-184 -65zM920 367q0 -183 -106 -283t-281 -100q-174 0 -281 99q-106 99 -107 284v665h146v-659q1 -262 243 -262t242 262v659h144v-665z" />
    <glyph glyph-name="Ucircumflex.sc" horiz-adv-x="1064" 
d="M920 367q0 -183 -106 -283t-281 -100q-174 0 -281 99q-106 99 -107 284v665h146v-659q1 -262 243 -262t242 262v659h144v-665zM260 1169l262 396h19l262 -396h-119l-152 207l-153 -207h-119z" />
    <glyph glyph-name="Udieresis.sc" horiz-adv-x="1064" 
d="M920 367q0 -183 -106 -283t-281 -100q-174 0 -281 99q-106 99 -107 284v665h146v-659q1 -262 243 -262t242 262v659h144v-665zM358 1196q-38 0 -66 28t-28 66t29 67q29 27 65 27t66 -28q29 -28 29 -66t-29 -66t-66 -28zM707 1196q-37 0 -66 28t-29 66t29 67q29 27 66 27
t65 -28t29 -66q-1 -38 -29 -66t-65 -28z" />
    <glyph glyph-name="Ugrave.sc" horiz-adv-x="1064" 
d="M475 1165l-190 396h164l139 -396h-113zM920 367q0 -183 -106 -283t-281 -100q-174 0 -281 99q-106 99 -107 284v665h146v-659q1 -262 243 -262t242 262v659h144v-665z" />
    <glyph glyph-name="Uhungarumlaut.sc" horiz-adv-x="1067" 
d="M336 1180l137 395h156l-180 -395h-113zM618 1180l140 395h155l-182 -395h-113zM920 367q0 -183 -106 -283t-281 -100q-174 0 -281 99q-106 99 -107 284v665h146v-659q1 -262 243 -262t242 262v659h144v-665z" />
    <glyph glyph-name="Umacron.sc" horiz-adv-x="1064" 
d="M297 1217v112h471v-112h-471zM920 367q0 -183 -106 -283t-281 -100q-174 0 -281 99q-106 99 -107 284v665h146v-659q1 -262 243 -262t242 262v659h144v-665z" />
    <glyph glyph-name="Uogonek.sc" horiz-adv-x="1064" 
d="M145 1032h146v-659q1 -262 243 -262t242 262v659h144v-665q0 -165 -86 -263t-232 -116l-65 -109q-63 -103 -63 -157q-1 -98 79 -97q61 0 104 72l91 -51q-61 -121 -201 -121q-80 0 -135 47q-56 47 -56 137t84 203l56 74q-160 10 -255 108t-96 273v665z" />
    <glyph glyph-name="Uring.sc" horiz-adv-x="1067" 
d="M532 1178q47 0 78 32t31 83q0 52 -30 83t-79 31q-48 0 -78 -31t-30 -83q0 -51 30 -83t78 -32zM532 1087q-90 1 -152 61t-62 145t62 145t152 61q90 0 152 -60q62 -59 64 -145q0 -86 -63 -146t-153 -61zM920 367q0 -183 -106 -283t-281 -100q-174 0 -281 99
q-106 99 -107 284v665h146v-659q1 -262 243 -262t242 262v659h144v-665z" />
    <glyph glyph-name="Yacute.sc" horiz-adv-x="987" 
d="M442 1165l140 396h163l-190 -396h-113zM424 0v381l-356 651h163l199 -370q49 -92 70 -177q39 117 69 177l197 370h154l-351 -647v-385h-145z" />
    <glyph glyph-name="Ydieresis.sc" horiz-adv-x="987" 
d="M326 1196q-37 0 -66 28t-29 66t29 67q29 27 66 27q38 0 66 -28t28 -66t-28 -66t-66 -28zM674 1196q-37 0 -66 28q-28 28 -28 66t28 67q29 27 66 27q38 0 66 -28t28 -66t-28 -66t-66 -28zM424 0v381l-356 651h163l199 -370q49 -92 70 -177q39 117 69 177l197 370h154
l-351 -647v-385h-145z" />
    <glyph glyph-name="Zacute.sc" horiz-adv-x="950" 
d="M84 0v18l547 887h-473v127h698v-18l-547 -889h537v-125h-762zM440 1165l140 396h163l-190 -396h-113z" />
    <glyph glyph-name="Zcaron.sc" horiz-adv-x="952" 
d="M84 0v18l547 887h-473v127h698v-18l-547 -889h537v-125h-762zM487 1153l-262 393h119l152 -207l153 207h119l-262 -393h-19z" />
    <glyph glyph-name="Zdotaccent.sc" horiz-adv-x="952" 
d="M498 1190q-41 0 -72 29t-31 71t31 73q31 30 72 30q42 0 72 -30t30 -73q0 -44 -30 -72t-72 -28zM84 0v18l547 887h-473v127h698v-18l-547 -889h537v-125h-762z" />
    <glyph glyph-name="space.sc" horiz-adv-x="466" 
 />
    <glyph glyph-name="dollar.sc" horiz-adv-x="892" 
d="M690 266q0 72 -43 113t-151 74v-353q96 8 145 52q49 42 49 114zM227 786q0 -63 37 -99t127 -64v311q-164 -16 -164 -148zM92 778q0 110 82 186q82 75 217 83v217h105v-220q96 -14 168 -64t108 -114l-102 -65q-59 104 -174 129v-340l12 -4q164 -49 242 -122t78 -195
q0 -123 -88 -199q-87 -76 -244 -84v-230h-105v232q-129 12 -221 77t-133 148l110 59q80 -145 244 -170v383q-155 43 -227 113t-72 180z" />
    <glyph glyph-name="cent.sc" horiz-adv-x="778" 
d="M213 349q0 -91 46 -157t122 -81v477q-76 -16 -122 -82t-46 -157zM381 913h104v-198q150 -18 238 -119l-96 -80q-53 63 -142 78v-492q98 14 158 84l94 -82q-96 -106 -252 -118v-209h-104v211q-135 20 -223 120t-88 241q0 140 88 241t223 121v202z" />
    <glyph glyph-name="Euro.sc" horiz-adv-x="1077" 
d="M57 567v111h144q41 168 155 269q115 101 277 102q231 0 360 -203l-110 -78q-47 76 -105 115t-156 39t-172 -66t-102 -178h375v-111h-393q-4 -70 2 -125h391v-110h-367q29 -106 102 -164t175 -59q172 0 266 165l117 -69q-129 -221 -383 -221q-155 0 -267 93t-157 255h-152
v110h129q-6 55 -2 125h-127z" />
    <glyph glyph-name="sterling.sc" horiz-adv-x="987" 
d="M244 211q-42 1 -65 -19q-21 -20 -21 -49t22 -48t60 -19q83 0 114 86q-68 49 -110 49zM141 436v115h117q-45 113 -45 194q0 135 89 219t243 85q236 0 334 -197l-117 -68q-66 139 -211 140q-88 0 -139 -50q-99 -96 -6 -323h305v-115h-260q41 -113 41 -200q0 -18 -5 -48
q239 -159 363 5l92 -89q-94 -121 -248 -120q-115 0 -248 104q-74 -104 -210 -104q-78 0 -131 45q-52 45 -52 117t50 114q51 43 119 43t138 -35q-10 76 -53 168h-166z" />
    <glyph glyph-name="yen.sc" horiz-adv-x="1011" 
d="M580 285h313v-111h-313v-174h-144v174h-315v111h315v37l-41 79h-274v111h217l-270 520h159l228 -459q35 -74 53 -149q18 76 57 149l230 459h149l-268 -520h217v-111h-275l-38 -77v-39z" />
    <glyph glyph-name="florin.sc" horiz-adv-x="739" 
d="M78 449v114h155l23 211q31 274 252 275q137 0 207 -109l-90 -80q-41 66 -101 66t-89 -32q-30 -32 -38 -114l-24 -217h182v-114h-197l-71 -642h-140l72 642h-141z" />
    <glyph glyph-name="zero.sc" horiz-adv-x="1091" 
d="M545 113q139 1 222 109t83 295t-83 295t-222 108t-221 -108t-82 -295t82 -295t221 -109zM999 518q-1 -234 -125 -384t-327 -150t-329 150t-126 384t126 382t327 148t327 -148t127 -382z" />
    <glyph glyph-name="one.sc" horiz-adv-x="569" 
d="M272 0v905h-202v127h346v-1032h-144z" />
    <glyph glyph-name="two.sc" horiz-adv-x="892" 
d="M63 0v16l431 443q147 147 147 280q0 82 -46 131t-134 50q-166 0 -223 -195l-129 33q27 131 121 211t238 80t232 -85t88 -221q0 -164 -176 -348l-186 -188q-49 -51 -107 -90l21 2q69 6 109 6h350v-125h-736z" />
    <glyph glyph-name="three.sc" horiz-adv-x="903" 
d="M819 320q1 -148 -109 -242t-260 -94t-250 61q-99 61 -149 160l121 59q84 -154 258 -153q114 0 178 62q64 61 64 161t-71 160t-172 59q-101 0 -159 -25l-6 13l232 288l88 89q-84 -12 -131 -13h-314v127h652v-18l-236 -291q-31 -41 -74 -70q147 -8 243 -97q96 -88 95 -236z
" />
    <glyph glyph-name="four.sc" horiz-adv-x="968" 
d="M342 293h285v323q0 70 8 132l2 30q-27 -51 -102 -137l-230 -276l-86 -82q74 10 123 10zM625 0v178h-557v101l680 763h18v-747h121v-117h-121v-178h-141z" />
    <glyph glyph-name="five.sc" horiz-adv-x="897" 
d="M430 -16q-129 0 -226 59t-147 150l119 67q90 -150 250 -149q115 0 177 59q63 58 63 162t-66 162t-182 59q-158 0 -260 -88l-13 6v561h596v-125h-469v-282q72 41 172 41q168 0 268 -94t99 -246t-103 -247t-278 -95z" />
    <glyph glyph-name="six.sc" horiz-adv-x="946" 
d="M474 111q108 1 171 67t64 168q-1 102 -63 170t-170 68t-175 -69q-65 -69 -65 -169t65 -168q65 -67 173 -67zM473 -16q-166 0 -272 102q-107 102 -107 242t90 274l308 430h161l-182 -254q-25 -39 -94 -108l-21 -21q76 47 152 47q146 0 246 -100t100 -252t-108 -256
t-273 -104z" />
    <glyph glyph-name="seven.sc" horiz-adv-x="894" 
d="M80 907v125h751v-12l-501 -1020h-154l449 907h-545z" />
    <glyph glyph-name="eight.sc" horiz-adv-x="923" 
d="M464 604q83 0 131 45t48 121t-50 121t-131 45t-131 -44t-50 -121t50 -122t133 -45zM463 109q109 0 171 52t62 142t-62 142q-62 53 -171 53t-172 -52t-63 -144q0 -91 62 -142q64 -51 173 -51zM463 -16q-166 0 -274 85t-107 220q0 100 59 169t154 95q-72 29 -113 88
t-41 137q0 115 90 193q89 78 231 78t231 -78t89 -193q0 -80 -41 -139t-112 -86q96 -25 154 -95t59 -169q0 -135 -106 -220t-273 -85z" />
    <glyph glyph-name="nine.sc" horiz-adv-x="940" 
d="M707 684q1 100 -63 170t-174 70t-174 -69t-65 -170t63 -170t174 -69t174 69q65 69 65 169zM434 334q-147 0 -248 101q-100 101 -100 253t109 256t275 104t273 -102t107 -246t-94 -278l-305 -422h-160l203 281q33 47 90 96q-63 -43 -150 -43z" />
    <glyph glyph-name="percent.sc" horiz-adv-x="1568" 
d="M1206 94q76 0 128 53t52 135t-52 136q-52 53 -128 53t-128 -53t-52 -135q0 -81 52 -135t128 -54zM365 559q76 0 128 53q52 52 52 136t-52 136t-128 52t-129 -52q-54 -52 -54 -135t54 -137t129 -53zM1206 -16q-125 0 -215 85t-90 214t90 215t215 86t215 -86t90 -215
t-90 -214t-215 -85zM391 0l645 1032h144l-645 -1032h-144zM365 446q-125 0 -217 86q-91 86 -91 216t91 215q90 86 216 86t216 -86t90 -215q0 -130 -90 -216t-215 -86z" />
    <glyph glyph-name="perthousand.sc" horiz-adv-x="2275" 
d="M1206 94q76 0 128 53t52 135t-52 136q-52 53 -128 53t-128 -53t-52 -135q0 -81 52 -135t128 -54zM1733 283q0 -81 53 -135t128 -54t127 53t52 135t-52 136q-52 53 -127 53t-128 -53t-53 -135zM365 559q76 0 128 53q52 52 52 136t-52 136t-128 52t-129 -52
q-54 -52 -54 -135t54 -137t129 -53zM1206 -16q-125 0 -215 85t-90 214t90 215t215 86t215 -86t90 -215t-90 -214t-215 -85zM1913 -16q-125 0 -215 86t-90 214t90 214t215 86t215 -86t90 -215t-90 -214t-215 -85zM391 0l645 1032h144l-645 -1032h-144zM365 446
q-125 0 -217 86q-91 86 -91 216t91 215q90 86 216 86t216 -86t90 -215q0 -130 -90 -216t-215 -86z" />
    <glyph glyph-name="plus.sc" horiz-adv-x="763" 
d="M315 197v256h-235v127h235v256h131v-256h238v-127h-238v-256h-131z" />
    <glyph glyph-name="minus.sc" horiz-adv-x="763" 
d="M684 453h-604v127h604v-127z" />
    <glyph glyph-name="multiply.sc" horiz-adv-x="757" 
d="M379 424l-205 -205l-90 90l205 205l-205 205l90 90l205 -205l205 205l90 -90l-205 -205l205 -205l-90 -90z" />
    <glyph glyph-name="divide.sc" horiz-adv-x="763" 
d="M382 117q-42 -1 -74 31t-32 76t31 74t74 30t75 -30t32 -75t-32 -76q-32 -30 -74 -30zM381 702q-43 0 -74 31t-31 76t31 75t74 30t75 -30t32 -75t-32 -76t-75 -31zM684 453h-604v127h604v-127z" />
    <glyph glyph-name="equal.sc" horiz-adv-x="759" 
d="M86 311v127h588v-127h-588zM86 578v124h588v-124h-588z" />
    <glyph glyph-name="less.sc" horiz-adv-x="729" 
d="M629 193l-555 296v21l555 293v-131l-344 -172l344 -174v-133z" />
    <glyph glyph-name="greater.sc" horiz-adv-x="729" 
d="M100 193v131l344 172l-344 174v133l555 -297v-21z" />
    <glyph glyph-name="degree.sc" horiz-adv-x="665" 
d="M333 680q58 0 95 39t37 98t-37 98t-95 39t-95 -39t-37 -98t37 -98t95 -39zM333 586q-99 0 -169 68t-70 164q0 97 70 164t169 67t169 -67t70 -164t-70 -165q-70 -67 -169 -67z" />
    <glyph glyph-name="period.sc" horiz-adv-x="413" 
d="M208 -14q-44 0 -78 32t-34 80q0 47 33 79t78 32t78 -32t33 -79t-33 -80q-33 -32 -77 -32z" />
    <glyph glyph-name="comma.sc" horiz-adv-x="413" 
d="M96 98q0 45 34 78t78 33t77 -33q61 -61 8 -160l-123 -245h-80l80 227q-74 25 -74 100z" />
    <glyph glyph-name="colon.sc" horiz-adv-x="434" 
d="M328 98q0 -48 -33 -80t-77 -32t-78 32t-34 80q0 47 33 79t78 32t78 -32t33 -79zM218 444q-44 0 -78 33t-34 80t33 79t78 32t78 -32t33 -79t-33 -80t-77 -33z" />
    <glyph glyph-name="semicolon.sc" horiz-adv-x="434" 
d="M106 98q0 45 34 78t78 33t77 -33t33 -74t-25 -86l-123 -245h-80l80 227q-74 25 -74 100zM218 444q-44 0 -78 33t-34 80t33 79t78 32t78 -32t33 -79t-33 -80t-77 -33z" />
    <glyph glyph-name="parenleft.sc" horiz-adv-x="589" 
d="M90 694q0 461 352 817l90 -75q-292 -334 -292 -743t292 -742l-90 -74q-352 356 -352 817z" />
    <glyph glyph-name="parenright.sc" horiz-adv-x="589" 
d="M350 694q0 232 -78 408t-215 334l88 75q354 -354 354 -817t-354 -817l-88 74q293 334 293 743z" />
    <glyph glyph-name="bracketleft.sc" horiz-adv-x="624" 
d="M156 -113v1612h395v-123h-252v-1366h252v-123h-395z" />
    <glyph glyph-name="bracketright.sc" horiz-adv-x="624" 
d="M74 -113v123h252v1366h-252v123h395v-1612h-395z" />
    <glyph glyph-name="braceleft.sc" horiz-adv-x="751" 
d="M561 -113q-272 0 -272 295v287q0 78 -30 110t-89 31h-119v123h119q59 0 89 33t30 111v327q0 295 272 295h117v-123h-109q-67 0 -101 -39t-34 -135v-342q0 -158 -133 -186q133 -29 133 -191v-299q0 -96 34 -135t101 -39h109v-123h-117z" />
    <glyph glyph-name="braceright.sc" horiz-adv-x="751" 
d="M74 -113v123h108q68 0 102 39t33 135v299q0 160 134 189q-133 29 -134 188v342q0 96 -33 135q-34 39 -102 39h-108v123h116q272 0 273 -295v-327q0 -78 30 -111t89 -33h118v-123h-118q-59 0 -89 -32t-30 -109v-287q0 -295 -273 -295h-116z" />
    <glyph glyph-name="slash.sc" horiz-adv-x="876" 
d="M31 -262l614 1741h143l-614 -1741h-143z" />
    <glyph glyph-name="section.sc" horiz-adv-x="907" 
d="M696 293q0 49 -31 82q-32 33 -106 63l-201 82q-47 16 -86 47q-63 -41 -63 -101t29 -94t102 -65l192 -78q45 -18 86 -43q78 33 78 107zM160 797q0 104 83 178t210 74q207 0 288 -158l-110 -68q-55 104 -176 105q-72 0 -112 -38t-40 -99q0 -102 121 -156l192 -80
q113 -47 164 -105t51 -145q0 -125 -133 -184q53 -68 54 -148q0 -115 -83 -185t-215 -69q-132 -1 -228 51q-95 52 -138 134l113 69q78 -133 231 -133q86 0 129 36t43 93q0 90 -131 146l-188 75q-111 48 -160 104t-49 138q0 134 133 195q-49 66 -49 170z" />
    <glyph glyph-name="numbersign.sc" horiz-adv-x="944" 
d="M342 696h205l55 222h-203zM59 582v114h164l56 222h-148v114h176l55 223h119l-55 -223h203l57 223h119l-55 -223h135v-114h-164l-55 -222h145v-114h-176l-53 -222h-121l55 222h-203l-53 -222h-121l58 222h-138z" />
    <glyph glyph-name="summation.sc" horiz-adv-x="950" 
d="M84 0v16l401 510l-407 488v18h747v-127h-407l-88 4q37 -35 61 -69l256 -305v-15l-258 -327l-63 -72q47 4 96 4h426v-125h-764z" />
    <glyph glyph-name="G.scalt" horiz-adv-x="1232" 
d="M644 -16q-230 0 -386 150t-156 381q0 230 156 382t379 152q279 0 426 -209l-113 -78q-104 158 -313 158q-168 0 -278 -116q-109 -116 -109 -289t110 -290t269 -117q160 0 255 78t117 199h-321v119h469q4 -228 -135 -374q-140 -146 -370 -146z" />
    <glyph glyph-name="M.scalt" horiz-adv-x="1339" 
d="M123 0l115 1044h18l352 -555q33 -51 60 -118q49 100 61 118l352 555h19l114 -1044h-141l-59 530q-10 92 -10 191l-18 -40q-26 -64 -66 -130l-244 -381h-17l-243 383q-65 99 -88 168q2 -92 -9 -189l-59 -532h-137z" />
    <glyph glyph-name="Q.scalt1" horiz-adv-x="1286" 
d="M575 324h136v-213q147 23 237 135t90 278t-111 282q-112 116 -284 116t-284 -116q-111 -116 -111 -283t91 -278t236 -134v213zM711 -238h-136v226q-203 23 -339 170t-136 368t159 372t385 151t384 -151t158 -372t-136 -368t-339 -170v-226z" />
    <glyph glyph-name="Q.scalt2" horiz-adv-x="1286" 
d="M643 111q172 1 284 115q111 114 111 289t-111 291q-112 116 -284 116t-284 -116q-111 -116 -111 -291t111 -290q112 -114 284 -114zM940 -111q76 0 145 70l89 -90q-96 -106 -240 -107q-100 0 -179 43t-143 99t-91 76q-65 49 -138 51q-106 0 -182 -111l-92 80
q61 92 161 125q-170 154 -170 388t159 385t385 151t384 -151t158 -372t-136 -368t-339 -170q57 -49 105 -74t124 -25z" />
    <glyph glyph-name="Gbreve.scalt" horiz-adv-x="1232" 
d="M623 1163q-115 0 -184 66t-85 174l115 18q33 -145 154 -145t153 145l115 -18q-17 -109 -85 -175t-183 -65zM644 -16q-230 0 -386 150t-156 381q0 230 156 382t379 152q279 0 426 -209l-113 -78q-104 158 -313 158q-168 0 -278 -116q-109 -116 -109 -289t110 -290
t269 -117q160 0 255 78t117 199h-321v119h469q4 -228 -135 -374q-140 -146 -370 -146z" />
    <glyph glyph-name="Gcircumflex.scalt" horiz-adv-x="1232" 
d="M644 -16q-230 0 -386 150t-156 381q0 230 156 382t379 152q279 0 426 -209l-113 -78q-104 158 -313 158q-168 0 -278 -116q-109 -116 -109 -289t110 -290t269 -117q160 0 255 78t117 199h-321v119h469q4 -228 -135 -374q-140 -146 -370 -146zM350 1169l262 396h19
l262 -396h-119l-151 207l-154 -207h-119z" />
    <glyph glyph-name="Gcommaaccent.scalt" horiz-adv-x="1232" 
d="M644 -16q-230 0 -386 150t-156 381q0 230 156 382t379 152q279 0 426 -209l-113 -78q-104 158 -313 158q-168 0 -278 -116q-109 -116 -109 -289t110 -290t269 -117q160 0 255 78t117 199h-321v119h469q4 -228 -135 -374q-140 -146 -370 -146zM626 -121q42 0 74 -31
q32 -32 31 -70q0 -38 -24 -83l-109 -219h-78l66 202q-27 10 -46 36q-20 26 -20 65t32 69t74 31z" />
    <glyph glyph-name="Gdotaccent.scalt" horiz-adv-x="1232" 
d="M644 -16q-230 0 -386 150t-156 381q0 230 156 382t379 152q279 0 426 -209l-113 -78q-104 158 -313 158q-168 0 -278 -116q-109 -116 -109 -289t110 -290t269 -117q160 0 255 78t117 199h-321v119h469q4 -228 -135 -374q-140 -146 -370 -146zM623 1198q-41 0 -72 29
t-31 71t31 73q31 30 72 30t71 -30t31 -73q-1 -44 -31 -72t-71 -28z" />
    <glyph glyph-name="space.sctab" horiz-adv-x="409" 
 />
    <glyph glyph-name="dollar.sctab" 
d="M756 266q0 72 -43 113t-152 74v-353q95 8 145 52q50 42 50 114zM293 786q0 -63 37 -99t127 -64v311q-164 -16 -164 -148zM457 1264h104v-220q96 -14 168 -64t109 -114l-103 -65q-59 104 -174 129v-340l12 -4q164 -49 242 -122t78 -195q0 -123 -87 -199t-245 -84v-230
h-104v232q-129 12 -221 77t-134 148l111 59q80 -145 244 -170v383q-154 43 -227 113q-72 70 -72 180t82 186q82 75 217 83v217z" />
    <glyph glyph-name="cent.sctab" 
d="M336 349q0 -91 46 -157t122 -81v477q-76 -16 -122 -82t-46 -157zM504 913h104v-198q150 -18 238 -119l-96 -80q-53 63 -142 78v-492q98 14 158 84l94 -82q-96 -106 -252 -118v-209h-104v211q-135 20 -223 120t-88 241q0 140 88 241t223 121v202z" />
    <glyph glyph-name="Euro.sctab" 
d="M45 563v111h141q37 172 148 273t266 102q225 0 348 -197l-106 -74q-48 78 -100 112t-148 34t-165 -66t-97 -184h348v-111h-363q-2 -14 -2 -45t4 -80h361v-110h-340q61 -219 264 -219q154 0 250 157l115 -65q-125 -217 -365 -217q-150 0 -260 93t-149 251h-150v110h129
q-4 49 -4 80t2 45h-127z" />
    <glyph glyph-name="sterling.sctab" 
d="M263 211q-81 0 -83 -66q0 -31 20 -51t58 -20q84 0 115 88q-68 49 -110 49zM162 436v115h114q-45 113 -45 197q1 133 91 217t227 84q137 -1 222 -55t126 -142l-117 -66q-68 137 -211 138q-88 0 -137 -50t-49 -132q0 -83 43 -191h295v-115h-252q39 -106 39 -200
q0 -18 -4 -48q228 -157 350 -2l92 -88q-90 -115 -235 -114q-115 0 -248 104q-72 -104 -201 -104q-80 0 -132 45t-52 115t50 115q50 44 118 44t133 -35q-10 70 -51 168h-166z" />
    <glyph glyph-name="yen.sctab" 
d="M98 252v104h334v9l-74 131h-260v102h207l-231 434h164l223 -426q30 -61 43 -123l6 -20q20 82 51 143l236 426h151l-239 -434h204v-102h-260l-75 -129v-11h335v-104h-335v-252h-146v252h-334z" />
    <glyph glyph-name="florin.sctab" 
d="M174 440v115h195l20 176q16 158 94 238t197 80q176 0 258 -150l-100 -70q-27 47 -60 72t-92 25q-135 0 -158 -193l-20 -178h254v-115h-266l-72 -633h-139l71 633h-182z" />
    <glyph glyph-name="zero.sctab" 
d="M511 113q132 -1 208 107t76 297t-76 295t-209 108q-133 0 -208 -106t-75 -296t76 -298t208 -107zM946 517q0 -237 -118 -385t-316 -148t-316 148t-118 385t119 384t315 147t316 -146q118 -148 118 -385z" />
    <glyph glyph-name="one.sctab" 
d="M446 123v786h-256v123h402v-909h250v-123h-666v123h270z" />
    <glyph glyph-name="two.sctab" 
d="M123 0v16l430 443q147 147 147 280q0 82 -46 131t-134 50q-164 0 -223 -195l-129 33q27 131 122 211t238 80q144 0 232 -85t88 -221q0 -164 -176 -348l-187 -188q-49 -51 -106 -90l22 2q60 6 107 6h350v-125h-735z" />
    <glyph glyph-name="three.sctab" 
d="M510 -16q-152 0 -250 60t-147 161l120 59q86 -154 256 -153q115 0 179 61q63 62 63 162t-71 160t-167 59q-96 0 -159 -23l-8 11l231 288l88 89q-82 -12 -129 -13h-313v127h651v-18l-238 -291q-31 -41 -73 -70q147 -10 240 -98q93 -89 93 -237t-106 -241
q-108 -93 -260 -93z" />
    <glyph glyph-name="four.sctab" 
d="M653 293v323q0 39 9 132l2 30q-19 -37 -103 -137l-229 -276l-86 -82q74 10 123 10h284zM793 295h120v-117h-120v-178h-142v178h-557v101l680 763h19v-747z" />
    <glyph glyph-name="five.sctab" 
d="M498 -16q-129 0 -227 59q-97 59 -146 150l119 67q90 -150 248 -149q115 0 178 59q63 58 63 162t-65 163q-66 58 -202 58t-243 -88l-10 6v561h596v-125h-471v-282q72 41 174 41q168 0 267 -94t99 -246t-102 -247t-278 -95z" />
    <glyph glyph-name="six.sctab" 
d="M274 346q0 -100 66 -168t174 -67t170 67q63 66 64 168q0 102 -62 170t-172 68q-108 0 -174 -69t-66 -169zM512 -16q-166 0 -272 102t-106 242t89 274l307 430h162l-182 -254q-25 -39 -94 -108l-21 -21q76 47 152 47q147 0 247 -100t99 -252q1 -152 -107 -256t-274 -104z
" />
    <glyph glyph-name="seven.sctab" 
d="M141 907v125h752v-12l-500 -1020h-153l446 907h-545z" />
    <glyph glyph-name="eight.sctab" 
d="M513 604q81 0 129 45t48 121t-50 121t-130 45t-128 -45t-48 -121t49 -121t130 -45zM512 109q106 0 168 52q61 52 61 142t-61 142q-62 53 -168 53t-168 -52t-63 -144q1 -91 63 -142t168 -51zM512 -16q-164 0 -270 85t-107 220q-1 100 59 169t154 95q-72 29 -112 88
t-41 137q0 115 89 193t229 78t228 -78t88 -193q0 -80 -41 -139t-112 -86q94 -27 152 -95t59 -169q1 -135 -105 -220t-270 -85z" />
    <glyph glyph-name="nine.sctab" 
d="M750 684q0 100 -64 170t-173 70q-111 0 -175 -69t-64 -170t64 -170t172 -69q110 0 175 69t65 169zM477 334q-147 0 -248 101q-100 101 -100 253t109 256q110 104 276 104t272 -102t106 -246t-93 -278l-305 -422h-160l203 281q33 47 90 96q-63 -43 -150 -43z" />
    <glyph glyph-name="percent.sctab" horiz-adv-x="1536" 
d="M1173 92q75 0 123 53t50 137q0 84 -50 138q-50 53 -124 53t-123 -53t-49 -137q0 -83 48 -137q50 -54 125 -54zM364 557q76 0 124 53q48 54 48 138t-48 137q-50 53 -124 53t-124 -53t-50 -137t50 -138t124 -53zM1466 283q0 -129 -86 -214t-207 -85q-122 0 -208 85t-86 214
t87 215t208 86q120 0 206 -86t86 -215zM373 0l645 1032h143l-645 -1032h-143zM657 748q-1 -130 -87 -216t-207 -86t-207 86t-86 216t87 215q87 86 207 86t206 -86t87 -215z" />
    <glyph glyph-name="perthousand.sctab" horiz-adv-x="2252" 
d="M1194 92q74 0 123 52t49 138t-49 139q-49 52 -123 52t-123 -52t-49 -138q0 -87 49 -139t123 -52zM1874 92q74 0 123 52t49 138t-49 139q-49 52 -123 52t-123 -52t-49 -138q0 -87 49 -139t123 -52zM205 748q0 -84 50 -138t125 -53q75 0 124 53q49 54 49 138t-49 137
t-124 53t-125 -53t-50 -137zM1194 -16q-121 0 -207 85t-86 214t86 215t207 86t207 -86t86 -215t-86 -214t-207 -85zM1874 -16q-121 0 -207 85t-86 214t86 215t207 86t207 -86t86 -215t-86 -214t-207 -85zM391 0l645 1032h144l-645 -1032h-144zM379 446q-121 0 -208 86
t-87 216t87 215q87 86 208 86t207 -86t86 -215q0 -130 -86 -216t-207 -86z" />
    <glyph glyph-name="plus.sctab" 
d="M578 453v-312h-132v312h-290v127h290v311h132v-311h290v-127h-290z" />
    <glyph glyph-name="minus.sctab" 
d="M156 453v127h712v-127h-712z" />
    <glyph glyph-name="multiply.sctab" 
d="M514 424l-250 -248l-90 90l248 248l-248 248l90 90l248 -248l250 248l90 -90l-250 -248l250 -248l-90 -90z" />
    <glyph glyph-name="divide.sctab" 
d="M510 90q-43 0 -74 31q-30 31 -30 75t30 74t74 31q43 0 75 -31q31 -30 31 -74t-32 -75t-74 -31zM154 453v127h714v-127h-714zM510 731q-43 0 -74 31q-30 31 -30 75q0 45 30 75t74 30q43 0 75 -31q31 -31 31 -75t-32 -74q-32 -31 -74 -31z" />
    <glyph glyph-name="equal.sctab" 
d="M154 311v127h716v-127h-716zM154 578v124h716v-124h-716z" />
    <glyph glyph-name="less.sctab" 
d="M809 152l-655 337v21l655 334v-131l-434 -215l434 -215v-131z" />
    <glyph glyph-name="greater.sctab" 
d="M215 152v131l434 215l-434 215v131l655 -338v-21z" />
    <glyph glyph-name="degree.sctab" horiz-adv-x="665" 
d="M333 680q58 0 95 39t37 98t-37 98t-95 39t-95 -39t-37 -98t37 -98t95 -39zM333 586q-99 0 -169 68t-70 164q0 97 70 164t169 67t169 -67t70 -164t-70 -165q-70 -67 -169 -67z" />
    <glyph glyph-name="period.sctab" horiz-adv-x="409" 
d="M206 -14q-44 0 -78 32t-34 80q0 47 33 79t78 32t78 -32t33 -79t-33 -80q-33 -32 -77 -32z" />
    <glyph glyph-name="comma.sctab" horiz-adv-x="409" 
d="M94 98q0 45 34 78t78 33t77 -33q61 -61 8 -160l-123 -245h-80l80 227q-74 25 -74 100z" />
    <glyph glyph-name="colon.sctab" horiz-adv-x="409" 
d="M206 -14q-44 0 -78 32t-34 80q0 47 33 79t78 32t78 -32t33 -79t-33 -80q-33 -32 -77 -32zM206 444q-44 0 -78 33t-34 80t33 79t78 32t78 -32t33 -79t-34 -80q-32 -33 -76 -33z" />
    <glyph glyph-name="semicolon.sctab" horiz-adv-x="409" 
d="M94 98q0 45 34 78t78 33t77 -33q61 -61 8 -160l-123 -245h-80l80 227q-74 25 -74 100zM206 444q-44 0 -78 33t-34 80t33 79t78 32t78 -32t33 -79t-34 -80q-32 -33 -76 -33z" />
    <glyph glyph-name="parenleft.sctab" horiz-adv-x="614" 
d="M100 693q0 466 342 816l90 -71q-280 -328 -280 -742t280 -745l-90 -74q-342 350 -342 816z" />
    <glyph glyph-name="parenright.sctab" horiz-adv-x="614" 
d="M512 691q0 -466 -340 -814l-92 74q282 329 282 743t-282 744l92 71q340 -352 340 -818z" />
    <glyph glyph-name="bracketleft.sctab" horiz-adv-x="614" 
d="M150 -113v1612h389v-123h-246v-1366h246v-123h-389z" />
    <glyph glyph-name="bracketright.sctab" horiz-adv-x="614" 
d="M76 -113v123h243v1366h-243v123h389v-1612h-389z" />
    <glyph glyph-name="braceleft.sctab" horiz-adv-x="614" 
d="M461 -113q-272 0 -273 295v287q0 78 -28 110q-29 32 -90 31h-68v123h68q61 0 90 33t28 111v327q0 295 273 295h78v-123h-68q-69 0 -103 -39t-34 -135v-342q0 -158 -133 -186q133 -29 133 -191v-299q0 -96 34 -135t103 -39h68v-123h-78z" />
    <glyph glyph-name="braceright.sctab" horiz-adv-x="614" 
d="M74 -113v123h69q68 0 102 39t34 135v299q0 160 133 189q-133 29 -133 188v342q0 96 -34 135t-102 39h-69v123h78q272 0 272 -295v-327q0 -78 30 -111t89 -33h67v-123h-67q-59 0 -89 -32t-30 -109v-287q0 -295 -272 -295h-78z" />
    <glyph glyph-name="section.sctab" 
d="M750 291q0 49 -33 82t-105 63l-178 78q-57 25 -96 53q-66 -39 -66 -100t28 -94t95 -62l180 -75q58 -25 93 -50q82 33 82 105zM516 1049q201 0 279 -158l-111 -66q-51 100 -166 101q-66 0 -104 -38t-39 -95q0 -104 123 -156l172 -76q113 -51 164 -107t51 -139
q0 -135 -144 -196q51 -63 51 -163t-78 -168q-80 -68 -208 -69t-220 51t-136 136l112 67q29 -59 88 -96t136 -37t118 35t41 92q0 88 -129 146l-174 73q-109 48 -157 104t-48 138q1 138 142 199q-47 66 -47 170t78 178q79 74 206 74z" />
    </font>
</defs>
</svg>
